# Blender v2.92.0 OBJ File: ''
# www.blender.org
mtllib probeTest.mtl.mtl
o Icosphere
v 0.000000 -100.000000 0.000000
v 72.360733 -44.721951 52.572529
v -27.638802 -44.721985 85.064926
v -89.442619 -44.721561 0.000000
v -27.638802 -44.721985 -85.064926
v 72.360733 -44.721951 -52.572529
v -16.245556 -85.065445 49.999527
v 42.532269 -85.065422 30.901140
v 26.286882 -52.573765 80.901161
v 85.064789 -52.573593 0.000000
v 42.532269 -85.065422 -30.901140
v -52.572979 -85.065170 0.000000
v -68.818939 -52.573620 49.999695
v -16.245556 -85.065445 -49.999527
v -68.818939 -52.573620 -49.999695
v 26.286882 -52.573765 -80.901161
v 95.105782 0.000000 30.901262
v 95.105782 0.000000 -30.901262
v 0.000000 0.000000 99.999992
v 58.778561 0.000000 80.901672
v -95.105782 0.000000 30.901262
v -58.778561 0.000000 80.901672
v -58.778561 0.000000 -80.901672
v -95.105782 0.000000 -30.901262
v 58.778561 0.000000 -80.901672
v 0.000000 0.000000 -99.999992
vt 0.818181 0.000000
vt 0.772726 0.078731
vt 0.863635 0.078731
vt 0.727272 0.157461
vt 0.681818 0.078731
vt 0.636363 0.157461
vt 0.090909 0.000000
vt 0.045454 0.078731
vt 0.136363 0.078731
vt 0.272727 0.000000
vt 0.227273 0.078731
vt 0.318182 0.078731
vt 0.454545 0.000000
vt 0.409090 0.078731
vt 0.500000 0.078731
vt 0.681818 0.236191
vt 0.909090 0.157461
vt 0.818181 0.157461
vt 0.863635 0.236191
vt 0.181818 0.157461
vt 0.090909 0.157461
vt 0.136363 0.236191
vt 0.363636 0.157461
vt 0.272727 0.157461
vt 0.318182 0.236191
vt 0.545454 0.157461
vt 0.454545 0.157461
vt 0.500000 0.236191
vt 0.772726 0.236191
vt 0.954545 0.236191
vt 0.227273 0.236191
vt 0.409090 0.236191
vt 0.590909 0.236191
vt 0.045454 0.236191
vt 0.000000 0.157461
vt 0.590909 0.078731
vt 0.636363 0.000000
vt 0.000000 0.000000
vt 0.000000 0.000000
vt 0.000000 0.000000
vt 0.000000 0.000000
vt 0.000000 0.000000
vt 0.000000 0.000000
vt 0.000000 0.000000
vt 0.000000 0.000000
vt 0.000000 0.000000
vt 0.000000 0.000000
vn 0.1024 -0.9435 0.3151
vn 0.7002 -0.6617 0.2680
vn -0.2680 -0.9435 0.1947
vn -0.2680 -0.9435 -0.1947
vn 0.1024 -0.9435 -0.3151
vn 0.9050 -0.3304 0.2680
vn 0.0247 -0.3304 0.9435
vn -0.8897 -0.3304 0.3151
vn -0.5746 -0.3304 -0.7488
vn 0.5346 -0.3304 -0.7779
vn 0.8026 -0.1256 0.5831
vn -0.3066 -0.1256 0.9435
vn -0.9921 -0.1256 0.0000
vn -0.3066 -0.1256 -0.9435
vn 0.8026 -0.1256 -0.5831
vn 0.3035 -0.1876 -0.9342
vn 0.0247 -0.3304 -0.9435
vn -0.7947 -0.1876 -0.5773
vn -0.8897 -0.3304 -0.3151
vn -0.7947 -0.1876 0.5773
vn -0.5746 -0.3304 0.7488
vn 0.3035 -0.1876 0.9342
vn 0.5346 -0.3304 0.7779
vn 0.9822 -0.1876 0.0000
vn 0.9050 -0.3304 -0.2680
vn 0.4713 -0.6617 -0.5831
vn 0.1876 -0.7947 -0.5773
vn -0.0385 -0.6617 -0.7488
vn -0.4089 -0.6617 -0.6284
vn -0.4911 -0.7947 -0.3568
vn -0.7240 -0.6617 -0.1947
vn -0.7240 -0.6617 0.1947
vn -0.4911 -0.7947 0.3568
vn -0.4089 -0.6617 0.6284
vn 0.7002 -0.6617 -0.2680
vn 0.6071 -0.7947 0.0000
vn 0.3313 -0.9435 0.0000
vn -0.0385 -0.6617 0.7488
vn 0.1876 -0.7947 0.5773
vn 0.4713 -0.6617 0.5831
vn 0.0000 1.0000 0.0000
usemtl None
s off
f 1/1/1 8/2/1 7/3/1
f 2/4/2 8/5/2 10/6/2
f 1/7/3 7/8/3 12/9/3
f 1/10/4 12/11/4 14/12/4
f 1/13/5 14/14/5 11/15/5
f 2/4/6 10/6/6 17/16/6
f 3/17/7 9/18/7 19/19/7
f 4/20/8 13/21/8 21/22/8
f 5/23/9 15/24/9 23/25/9
f 6/26/10 16/27/10 25/28/10
f 2/4/11 17/16/11 20/29/11
f 3/17/12 19/19/12 22/30/12
f 4/20/13 21/22/13 24/31/13
f 5/23/14 23/25/14 26/32/14
f 6/26/15 25/28/15 18/33/15
f 25/28/16 16/27/16 26/32/16
f 16/27/17 5/23/17 26/32/17
f 23/25/18 15/24/18 24/31/18
f 15/24/19 4/20/19 24/31/19
f 21/22/20 13/21/20 22/34/20
f 13/21/21 3/35/21 22/34/21
f 19/19/22 9/18/22 20/29/22
f 9/18/23 2/4/23 20/29/23
f 17/16/24 10/6/24 18/33/24
f 10/6/25 6/26/25 18/33/25
f 11/15/26 16/27/26 6/26/26
f 11/15/27 14/14/27 16/27/27
f 14/14/28 5/23/28 16/27/28
f 14/12/29 15/24/29 5/23/29
f 14/12/30 12/11/30 15/24/30
f 12/11/31 4/20/31 15/24/31
f 12/9/32 13/21/32 4/20/32
f 12/9/33 7/8/33 13/21/33
f 7/8/34 3/35/34 13/21/34
f 10/6/35 11/36/35 6/26/35
f 10/6/36 8/5/36 11/36/36
f 8/5/37 1/37/37 11/36/37
f 7/3/38 9/18/38 3/17/38
f 7/3/39 8/2/39 9/18/39
f 8/2/40 2/4/40 9/18/40
f 25/38/41 26/39/41 23/40/41
f 18/41/41 25/38/41 23/40/41
f 18/41/41 23/40/41 24/42/41
f 17/43/41 18/41/41 24/42/41
f 17/43/41 24/42/41 21/44/41
f 20/45/41 17/43/41 21/44/41
f 20/45/41 21/44/41 22/46/41
f 19/47/41 20/45/41 22/46/41
