# Blender 3.3.1
# www.blender.org
mtllib attlerock.mtl
o Attlerock
v -0.003418 -0.512474 -1.045020
v -0.003418 0.487526 -1.045020
v 0.173122 -0.501254 -0.985923
v 0.173122 0.498746 -0.985923
v 0.379265 -0.512474 -0.968899
v 0.379265 0.487526 -0.968899
v 0.551095 -0.500000 -0.825642
v 0.551095 0.500000 -0.825642
v 0.702631 -0.500000 -0.701279
v 0.702631 0.500000 -0.701279
v 0.826994 -0.500000 -0.549742
v 0.826994 0.500000 -0.549742
v 0.995143 -0.528911 -0.401282
v 0.995143 0.471089 -0.401282
v 0.981578 -0.505654 -0.197759
v 0.981578 0.494347 -0.197759
v 1.000793 -0.505654 -0.002669
v 1.000793 0.494347 -0.002669
v 1.052049 -0.528911 0.176492
v 1.052049 0.471089 0.176492
v 0.919404 -0.500000 0.388511
v 0.919404 0.500000 0.388511
v 0.826994 -0.500000 0.561398
v 0.826994 0.500000 0.561398
v 0.702631 -0.500000 0.712935
v 0.702631 0.500000 0.712935
v -0.711582 -0.500000 0.712935
v -0.711582 0.500000 0.712935
v -0.835945 -0.500000 0.561398
v -0.835945 0.500000 0.561398
v -0.928355 -0.500000 0.388511
v -0.928355 0.500000 0.388511
v -0.985261 -0.500000 0.200918
v -0.985261 0.500000 0.200918
v -1.004475 -0.500000 0.005828
v -1.004475 0.500000 0.005828
v -0.985261 -0.500000 -0.189262
v -0.985261 0.500000 -0.189262
v -0.998065 -0.507405 -0.444304
v -0.998065 0.492595 -0.444304
v -0.827467 -0.500882 -0.528853
v -0.827467 0.499118 -0.528853
v -0.697546 -0.490544 -0.652625
v -0.697546 0.509456 -0.652625
v -0.551567 -0.500882 -0.804752
v -0.551567 0.499118 -0.804752
v -0.456869 -0.507405 -0.985500
v -0.456869 0.492595 -0.985500
v -0.199566 -0.500000 -0.974957
v -0.199566 0.500000 -0.974957
v 0.584205 0.500000 0.810125
v 0.584205 -0.500000 0.810125
v -0.587807 0.500000 0.814515
v -0.587807 -0.500000 0.814515
v -0.530330 0.500000 0.744479
v 0.530330 0.500000 0.744479
v 0.416678 0.500000 0.651207
v -0.416678 0.500000 0.651207
v -0.287013 0.500000 0.581899
v -0.146318 0.500000 0.539220
v 0.146318 0.500000 0.539220
v 0.287013 0.500000 0.581899
v 0.000000 0.500000 0.524809
v 0.416678 -0.500000 0.651207
v 0.530330 -0.500000 0.744479
v -0.530330 -0.500000 0.744479
v -0.416678 -0.500000 0.651207
v 0.146318 -0.500000 0.539220
v 0.287013 -0.500000 0.581899
v -0.287013 -0.500000 0.581899
v -0.146318 -0.500000 0.539220
v 0.000000 -0.500000 0.524809
vn 0.3174 -0.0000 -0.9483
vn 0.0823 -0.0000 -0.9966
vn 0.6404 -0.0000 -0.7681
vn 0.6344 -0.0000 -0.7730
vn 0.7730 -0.0000 -0.6344
vn 0.6619 -0.0000 -0.7496
vn 0.9978 -0.0000 0.0665
vn 0.9952 -0.0000 -0.0980
vn 0.9614 -0.0000 -0.2751
vn 0.8478 -0.0000 0.5304
vn 0.8819 -0.0000 0.4714
vn 0.7730 -0.0000 0.6344
vn 0.6344 -0.0000 0.7730
vn -0.6344 -0.0000 0.7730
vn -0.7730 -0.0000 0.6344
vn -0.8819 -0.0000 0.4714
vn -0.9569 -0.0000 0.2903
vn -0.9952 -0.0000 0.0980
vn -0.9952 -0.0000 -0.0980
vn -0.9987 -0.0000 0.0501
vn -0.4441 -0.0000 -0.8960
vn -0.6898 -0.0000 -0.7240
vn -0.7215 -0.0000 -0.6924
vn -0.8858 -0.0000 -0.4641
vn 0.0047 1.0000 -0.0025
vn 0.0409 -0.0000 -0.9992
vn -0.3364 -0.0000 -0.9417
vn -0.0047 -1.0000 0.0025
vn -0.0980 -0.0000 0.9952
vn -0.2903 -0.0000 0.9569
vn -0.4714 -0.0000 0.8819
vn 0.4714 -0.0000 0.8819
vn 0.2903 -0.0000 0.9569
vn 0.0980 -0.0000 0.9952
vt 1.000000 0.500000
vt 0.000000 0.500000
vt 0.750000 0.490000
vt 1.000000 1.000000
vt 0.250000 0.490000
vt 0.000000 1.000000
vt 0.968750 0.500000
vt 0.796822 0.485388
vt 0.968750 1.000000
vt 0.296822 0.485388
vt 0.937500 0.500000
vt 0.841844 0.471731
vt 0.937500 1.000000
vt 0.341844 0.471731
vt 0.906250 0.500000
vt 0.883337 0.449553
vt 0.906250 1.000000
vt 0.383337 0.449553
vt 0.875000 0.500000
vt 0.919706 0.419706
vt 0.875000 1.000000
vt 0.419706 0.419706
vt 0.843750 0.500000
vt 0.949553 0.383337
vt 0.843750 1.000000
vt 0.449553 0.383337
vt 0.812500 0.500000
vt 0.971731 0.341844
vt 0.812500 1.000000
vt 0.471731 0.341844
vt 0.781250 0.500000
vt 0.985388 0.296822
vt 0.781250 1.000000
vt 0.485388 0.296822
vt 0.750000 0.500000
vt 0.990000 0.250000
vt 0.750000 1.000000
vt 0.490000 0.250000
vt 0.718750 0.500000
vt 0.985388 0.203178
vt 0.718750 1.000000
vt 0.485388 0.203178
vt 0.687500 0.500000
vt 0.971731 0.158156
vt 0.687500 1.000000
vt 0.471731 0.158156
vt 0.656250 0.500000
vt 0.949553 0.116663
vt 0.656250 1.000000
vt 0.449553 0.116663
vt 0.625000 0.500000
vt 0.919706 0.080294
vt 0.625000 1.000000
vt 0.419706 0.080294
vt 0.375000 0.500000
vt 0.580294 0.080294
vt 0.375000 1.000000
vt 0.080294 0.080294
vt 0.343750 0.500000
vt 0.550447 0.116663
vt 0.343750 1.000000
vt 0.050447 0.116663
vt 0.312500 0.500000
vt 0.528269 0.158156
vt 0.312500 1.000000
vt 0.028269 0.158156
vt 0.281250 0.500000
vt 0.514612 0.203178
vt 0.281250 1.000000
vt 0.014612 0.203178
vt 0.250000 0.500000
vt 0.510000 0.250000
vt 0.250000 1.000000
vt 0.010000 0.250000
vt 0.218750 0.500000
vt 0.514612 0.296822
vt 0.218750 1.000000
vt 0.014612 0.296822
vt 0.187500 0.500000
vt 0.528269 0.341844
vt 0.187500 1.000000
vt 0.028269 0.341844
vt 0.156250 0.500000
vt 0.550447 0.383337
vt 0.156250 1.000000
vt 0.050447 0.383337
vt 0.125000 0.500000
vt 0.580294 0.419706
vt 0.125000 1.000000
vt 0.080294 0.419706
vt 0.093750 0.500000
vt 0.616663 0.449553
vt 0.093750 1.000000
vt 0.116663 0.449553
vt 0.062500 0.500000
vt 0.658156 0.471731
vt 0.158156 0.471731
vt 0.062500 1.000000
vt 0.031250 0.500000
vt 0.703178 0.485388
vt 0.203178 0.485388
vt 0.031250 1.000000
vt 0.600578 1.000000
vt 0.391283 0.056969
vt 0.856950 0.916667
vt 0.600578 0.500000
vt 0.891283 0.056969
vt 0.856950 0.583333
vt 0.400525 1.000000
vt 0.110000 0.055915
vt 0.144257 0.916667
vt 0.400525 0.500000
vt 0.610000 0.055915
vt 0.144257 0.583333
vt 0.123795 0.072724
vt 0.125000 0.916667
vt 0.378353 0.072724
vt 0.875000 0.916667
vt 0.351077 0.095109
vt 0.906250 0.916667
vt 0.151071 0.095109
vt 0.093750 0.916667
vt 0.182191 0.111743
vt 0.062500 0.916667
vt 0.215958 0.121986
vt 0.031250 0.916667
vt 0.286190 0.121986
vt 0.968750 0.916667
vt 0.319957 0.111743
vt 0.937500 0.916667
vt 0.251074 0.125445
vt 1.000000 0.916667
vt 0.000000 0.916667
vt 0.851077 0.095109
vt 0.906250 0.583333
vt 0.878353 0.072724
vt 0.875000 0.583333
vt 0.623795 0.072724
vt 0.125000 0.583333
vt 0.651071 0.095109
vt 0.093750 0.583333
vt 0.786190 0.121986
vt 0.968750 0.583333
vt 0.819957 0.111743
vt 0.937500 0.583333
vt 0.682191 0.111743
vt 0.062500 0.583333
vt 0.715958 0.121986
vt 0.031250 0.583333
vt 0.751074 0.125445
vt 1.000000 0.583333
vt 0.000000 0.583333
s 0
usemtl 
f 1/1/1 2/4/1 4/9/1 3/7/1
f 3/7/2 4/9/2 6/13/2 5/11/2
f 5/11/3 6/13/3 8/17/3 7/15/3
f 7/15/4 8/17/4 10/21/4 9/19/4
f 9/19/5 10/21/5 12/25/5 11/23/5
f 11/23/6 12/25/6 14/29/6 13/27/6
f 13/27/7 14/29/7 16/33/7 15/31/7
f 15/31/8 16/33/8 18/37/8 17/35/8
f 17/35/9 18/37/9 20/41/9 19/39/9
f 19/39/10 20/41/10 22/45/10 21/43/10
f 21/43/11 22/45/11 24/49/11 23/47/11
f 23/47/12 24/49/12 26/53/12 25/51/12
f 25/51/13 26/53/13 51/103/13 52/106/13
f 28/57/14 27/55/14 54/112/14 53/109/14
f 27/55/15 28/57/15 30/61/15 29/59/15
f 29/59/16 30/61/16 32/65/16 31/63/16
f 31/63/17 32/65/17 34/69/17 33/67/17
f 33/67/18 34/69/18 36/73/18 35/71/18
f 35/71/19 36/73/19 38/77/19 37/75/19
f 37/75/20 38/77/20 40/81/20 39/79/20
f 39/79/21 40/81/21 42/85/21 41/83/21
f 41/83/22 42/85/22 44/89/22 43/87/22
f 43/87/23 44/89/23 46/93/23 45/91/23
f 45/91/24 46/93/24 48/98/24 47/95/24
f 51/104/25 26/54/25 24/50/25 22/46/25 20/42/25 18/38/25 16/34/25 14/30/25 12/26/25 10/22/25 8/18/25 6/14/25 4/10/25 2/5/25 50/101/25 48/97/25 46/94/25 44/90/25 42/86/25 40/82/25 38/78/25 36/74/25 34/70/25 32/66/25 30/62/25 28/58/25 53/110/25 55/115/25 58/121/25 59/123/25 60/125/25 63/131/25 61/127/25 62/129/25 57/119/25 56/117/25
f 47/95/26 48/98/26 50/102/26 49/99/26
f 49/99/27 50/102/27 2/6/27 1/2/27
f 54/113/28 27/56/28 29/60/28 31/64/28 33/68/28 35/72/28 37/76/28 39/80/28 41/84/28 43/88/28 45/92/28 47/96/28 49/100/28 1/3/28 3/8/28 5/12/28 7/16/28 9/20/28 11/24/28 13/28/28 15/32/28 17/36/28 19/40/28 21/44/28 23/48/28 25/52/28 52/107/28 65/136/28 64/134/28 69/144/28 68/142/28 72/150/28 71/148/28 70/146/28 67/140/28 66/138/28
f 68/143/29 61/128/29 63/132/29 72/151/29
f 69/145/30 62/130/30 61/128/30 68/143/30
f 64/135/31 57/120/31 62/130/31 69/145/31
f 65/137/14 56/118/14 57/120/14 64/135/14
f 52/108/15 51/105/15 56/118/15 65/137/15
f 53/111/12 54/114/12 66/139/12 55/116/12
f 67/141/13 58/122/13 55/116/13 66/139/13
f 70/147/32 59/124/32 58/122/32 67/141/32
f 71/149/33 60/126/33 59/124/33 70/147/33
f 72/152/34 63/133/34 60/126/34 71/149/34
