# Blender v2.92.0 OBJ File: ''
# www.blender.org
mtllib brittle_hollow.mtl
o Cylinder_Cylinder.001
v 0.000000 -0.500000 -1.000000
v 0.000000 0.500000 -1.000000
v 0.195090 -0.500000 -0.980785
v 0.195090 0.500000 -0.980785
v 0.382683 -0.500000 -0.923880
v 0.382683 0.500000 -0.923880
v 0.555570 -0.500000 -0.831470
v 0.555570 0.500000 -0.831470
v 0.707107 -0.500000 -0.707107
v 0.707107 0.500000 -0.707107
v 0.831470 -0.500000 -0.555570
v 0.831470 0.500000 -0.555570
v 0.923880 -0.500000 -0.382683
v 0.923880 0.500000 -0.382683
v 0.980785 -0.500000 -0.195090
v 0.980785 0.500000 -0.195090
v 1.000000 -0.500000 -0.000000
v 1.000000 0.500000 -0.000000
v 0.980785 -0.500000 0.195090
v 0.980785 0.500000 0.195090
v 0.923880 -0.500000 0.382683
v 0.923880 0.500000 0.382683
v 0.831470 -0.500000 0.555570
v 0.831470 0.500000 0.555570
v 0.707107 -0.500000 0.707107
v 0.707107 0.500000 0.707107
v 0.555570 -0.500000 0.831470
v 0.555570 0.500000 0.831470
v 0.382683 -0.500000 0.923880
v 0.382683 0.500000 0.923880
v 0.195090 -0.500000 0.980785
v 0.195090 0.500000 0.980785
v -0.000000 -0.500000 1.000000
v -0.000000 0.500000 1.000000
v -0.195091 -0.500000 0.980785
v -0.195091 0.500000 0.980785
v -0.382684 -0.500000 0.923879
v -0.382684 0.500000 0.923879
v -0.555571 -0.500000 0.831469
v -0.555571 0.500000 0.831469
v -0.707107 -0.500000 0.707106
v -0.707107 0.500000 0.707106
v -0.831470 -0.500000 0.555570
v -0.831470 0.500000 0.555570
v -0.923880 -0.500000 0.382683
v -0.923880 0.500000 0.382683
v -0.980785 -0.500000 0.195089
v -0.980785 0.500000 0.195089
v -1.000000 -0.500000 -0.000001
v -1.000000 0.500000 -0.000001
v -0.980785 -0.500000 -0.195091
v -0.980785 0.500000 -0.195091
v -0.923879 -0.500000 -0.382684
v -0.923879 0.500000 -0.382684
v -0.831469 -0.500000 -0.555571
v -0.831469 0.500000 -0.555571
v -0.707106 -0.500000 -0.707108
v -0.707106 0.500000 -0.707108
v -0.555569 -0.500000 -0.831470
v -0.555569 0.500000 -0.831470
v -0.382682 -0.500000 -0.923880
v -0.382682 0.500000 -0.923880
v -0.195089 -0.500000 -0.980786
v -0.195089 0.500000 -0.980786
v 0.000000 -0.500000 -0.760666
v 0.000000 0.500000 -0.760666
v -0.746050 -0.500000 0.148398
v -0.746050 0.500000 0.148398
v 0.148399 -0.500000 -0.746050
v 0.148399 0.500000 -0.746050
v 0.291094 -0.500000 -0.702764
v 0.291094 0.500000 -0.702764
v -0.760666 -0.500000 -0.000001
v -0.760666 0.500000 -0.000001
v 0.422603 -0.500000 -0.632471
v 0.422603 0.500000 -0.632471
v -0.746050 -0.500000 -0.148399
v -0.746050 0.500000 -0.148399
v 0.537872 -0.500000 -0.537872
v 0.537872 0.500000 -0.537872
v -0.702763 -0.500000 -0.291095
v -0.702763 0.500000 -0.291095
v 0.632471 -0.500000 -0.422603
v 0.632471 0.500000 -0.422603
v -0.632470 -0.500000 -0.422604
v -0.632470 0.500000 -0.422604
v 0.702764 -0.500000 -0.291094
v 0.702764 0.500000 -0.291094
v -0.537871 -0.500000 -0.537873
v -0.537871 0.500000 -0.537873
v 0.746050 -0.500000 -0.148399
v 0.746050 0.500000 -0.148399
v -0.422603 -0.500000 -0.632471
v -0.422603 0.500000 -0.632471
v 0.760666 -0.500000 -0.000000
v 0.760666 0.500000 -0.000000
v -0.291093 -0.500000 -0.702764
v -0.291093 0.500000 -0.702764
v 0.746050 -0.500000 0.148398
v 0.746050 0.500000 0.148398
v -0.148397 -0.500000 -0.746050
v -0.148397 0.500000 -0.746050
v 0.702764 -0.500000 0.291094
v 0.702764 0.500000 0.291094
v 0.632471 -0.500000 0.422603
v 0.632471 0.500000 0.422603
v 0.537872 -0.500000 0.537872
v 0.537872 0.500000 0.537872
v 0.148398 0.500000 0.746050
v 0.422603 0.500000 0.632471
v 0.291094 0.500000 0.702764
v 0.422603 -0.500000 0.632471
v 0.291094 -0.500000 0.702764
v -0.632471 0.500000 0.422603
v -0.702764 0.500000 0.291094
v 0.148398 -0.500000 0.746050
v -0.000000 -0.500000 0.760666
v -0.000000 0.500000 0.760666
v -0.148399 -0.500000 0.746050
v -0.148399 0.500000 0.746050
v -0.291095 -0.500000 0.702764
v -0.291095 0.500000 0.702764
v -0.422604 -0.500000 0.632470
v -0.422604 0.500000 0.632470
v -0.537872 0.500000 0.537872
v -0.537872 -0.500000 0.537872
v -0.632471 -0.500000 0.422603
v -0.702764 -0.500000 0.291094
v -0.592435 -0.500000 0.051032
v -0.592435 0.500000 0.051032
v -0.577819 -0.500000 -0.097367
v -0.577819 0.500000 -0.097367
v -0.534532 -0.500000 -0.240063
v -0.534532 0.500000 -0.240063
v -0.464239 -0.500000 -0.371572
v -0.464239 0.500000 -0.371572
v -0.379558 -0.500000 -0.528553
v -0.379558 0.500000 -0.528553
v -0.248049 -0.500000 -0.598846
v -0.248049 0.500000 -0.598846
v -0.105353 -0.500000 -0.642132
v -0.105353 0.500000 -0.642132
v 0.157804 -0.500000 -0.540349
v 0.157804 0.500000 -0.540349
v 0.289313 -0.500000 -0.470056
v 0.289313 0.500000 -0.470056
v 0.404582 -0.500000 -0.375457
v 0.404582 0.500000 -0.375457
v 0.499180 -0.500000 -0.260189
v 0.499180 0.500000 -0.260189
v 0.618694 -0.500000 -0.148399
v 0.618694 0.500000 -0.148399
v 0.633310 -0.500000 -0.000000
v 0.633310 0.500000 -0.000000
v 0.618694 -0.500000 0.148399
v 0.618694 0.500000 0.148399
v 0.500790 -0.500000 0.183137
v 0.500790 0.500000 0.183137
v 0.430497 -0.500000 0.314646
v 0.430497 0.500000 0.314646
v 0.509445 -0.500000 0.469243
v 0.509445 0.500000 0.469243
v 0.394176 -0.500000 0.563841
v 0.394176 0.500000 0.563841
v 0.262667 0.500000 0.634135
v 0.262667 -0.500000 0.634135
v 0.119971 0.500000 0.677421
v 0.119971 -0.500000 0.677421
v -0.028427 0.500000 0.692037
v -0.028427 -0.500000 0.692037
v -0.291095 -0.500000 0.702764
v -0.291095 0.500000 0.702764
v -0.422604 -0.500000 0.632470
v -0.422604 0.500000 0.632470
v -0.537872 0.500000 0.537872
v -0.537872 -0.500000 0.537872
v -0.632471 -0.500000 0.422603
v -0.632471 0.500000 0.422603
v -0.588369 -0.500000 0.393135
v -0.588369 0.500000 0.393135
v -0.658662 -0.500000 0.261626
v -0.658662 0.500000 0.261626
v -0.493771 -0.500000 0.508404
v -0.493771 0.500000 0.508404
v -0.588369 -0.500000 0.393135
v -0.588369 0.500000 0.393135
v -0.093153 -0.500000 0.563928
v -0.093153 0.500000 0.563928
v -0.235848 -0.500000 0.520641
v -0.235848 0.500000 0.520641
vt 1.000000 0.500000
vt 1.000000 1.000000
vt 0.968750 1.000000
vt 0.968750 0.500000
vt 0.937500 1.000000
vt 0.937500 0.500000
vt 0.906250 1.000000
vt 0.906250 0.500000
vt 0.875000 1.000000
vt 0.875000 0.500000
vt 0.843750 1.000000
vt 0.843750 0.500000
vt 0.812500 1.000000
vt 0.812500 0.500000
vt 0.781250 1.000000
vt 0.781250 0.500000
vt 0.750000 1.000000
vt 0.750000 0.500000
vt 0.718750 1.000000
vt 0.718750 0.500000
vt 0.687500 1.000000
vt 0.687500 0.500000
vt 0.656250 1.000000
vt 0.656250 0.500000
vt 0.625000 1.000000
vt 0.625000 0.500000
vt 0.593750 1.000000
vt 0.593750 0.500000
vt 0.562500 1.000000
vt 0.562500 0.500000
vt 0.531250 1.000000
vt 0.531250 0.500000
vt 0.500000 1.000000
vt 0.500000 0.500000
vt 0.468750 1.000000
vt 0.468750 0.500000
vt 0.437500 1.000000
vt 0.437500 0.500000
vt 0.406250 1.000000
vt 0.406250 0.500000
vt 0.375000 1.000000
vt 0.375000 0.500000
vt 0.343750 1.000000
vt 0.343750 0.500000
vt 0.312500 1.000000
vt 0.312500 0.500000
vt 0.281250 1.000000
vt 0.281250 0.500000
vt 0.250000 1.000000
vt 0.250000 0.500000
vt 0.218750 1.000000
vt 0.218750 0.500000
vt 0.187500 1.000000
vt 0.187500 0.500000
vt 0.156250 1.000000
vt 0.156250 0.500000
vt 0.125000 1.000000
vt 0.125000 0.500000
vt 0.093750 1.000000
vt 0.093750 0.500000
vt 0.062500 1.000000
vt 0.062500 0.500000
vt 0.031250 1.000000
vt 0.031250 0.500000
vt 0.000000 1.000000
vt 0.000000 0.500000
vt 1.000000 0.914330
vt 1.000000 0.585670
vt 0.968750 0.585670
vt 0.968750 0.914330
vt 0.937500 0.585670
vt 0.937500 0.914330
vt 0.351425 0.401793
vt 0.319863 0.418663
vt 0.319863 0.418663
vt 0.351425 0.401793
vt 0.879089 0.379089
vt 0.901793 0.351425
vt 0.901793 0.351425
vt 0.879089 0.379089
vt 0.401793 0.351425
vt 0.379089 0.379089
vt 0.379089 0.379089
vt 0.401793 0.351425
vt 0.843750 0.585670
vt 0.812500 0.585670
vt 0.812500 0.914330
vt 0.843750 0.914330
vt 0.781250 0.585670
vt 0.781250 0.914330
vt 0.432560 0.250000
vt 0.429052 0.285616
vt 0.429052 0.285616
vt 0.432560 0.250000
vt 0.718750 0.585670
vt 0.718750 0.914330
vt 0.718750 0.914330
vt 0.718750 0.585670
vt 0.687500 0.914330
vt 0.687500 0.585670
vt 0.687500 0.585670
vt 0.687500 0.914330
vt 0.656250 0.585670
vt 0.625000 0.585670
vt 0.625000 0.914330
vt 0.656250 0.914330
vt 0.319863 0.081337
vt 0.351425 0.098207
vt 0.351425 0.098207
vt 0.319863 0.081337
vt 0.285616 0.070948
vt 0.285616 0.070948
vt 0.250000 0.067440
vt 0.250000 0.067440
vt 0.379089 0.120911
vt 0.379089 0.120911
vt 0.500000 0.585670
vt 0.468750 0.585670
vt 0.468750 0.914330
vt 0.500000 0.914330
vt 0.714384 0.070948
vt 0.680137 0.081337
vt 0.680137 0.081337
vt 0.714384 0.070948
vt 0.648575 0.098207
vt 0.620910 0.120911
vt 0.620910 0.120911
vt 0.648575 0.098207
vt 0.343750 0.585670
vt 0.343750 0.914330
vt 0.343750 0.914330
vt 0.343750 0.585670
vt 0.598207 0.148575
vt 0.598207 0.148575
vt 0.343750 0.585670
vt 0.343750 0.914330
vt 0.281250 0.585670
vt 0.281250 0.914330
vt 0.312500 0.914330
vt 0.312500 0.585670
vt 0.250000 0.585670
vt 0.250000 0.914330
vt 0.581337 0.319863
vt 0.598207 0.351425
vt 0.598207 0.351425
vt 0.581337 0.319863
vt 0.250000 0.585670
vt 0.250000 0.914330
vt 0.098207 0.351425
vt 0.081337 0.319863
vt 0.081337 0.319863
vt 0.098207 0.351425
vt 0.156250 0.914330
vt 0.156250 0.585670
vt 0.125000 0.585670
vt 0.125000 0.914330
vt 0.093750 0.585670
vt 0.093750 0.914330
vt 0.180138 0.418663
vt 0.148575 0.401793
vt 0.148575 0.401793
vt 0.180138 0.418663
vt 0.031250 0.585670
vt 0.031250 0.914330
vt 0.031250 0.914330
vt 0.031250 0.585670
vt 0.000000 0.585670
vt 0.000000 0.914330
vt 0.081337 0.180138
vt 0.028269 0.158156
vt 0.050447 0.116663
vt 0.080294 0.080294
vt 0.116663 0.050447
vt 0.158156 0.028269
vt 0.203178 0.014612
vt 0.250000 0.010000
vt 0.296822 0.014612
vt 0.341844 0.028269
vt 0.383337 0.050447
vt 0.419706 0.080294
vt 0.449553 0.116663
vt 0.471731 0.158156
vt 0.485388 0.203178
vt 0.490000 0.250000
vt 0.485388 0.296822
vt 0.471731 0.341844
vt 0.449553 0.383337
vt 0.419706 0.419706
vt 0.383337 0.449553
vt 0.341844 0.471731
vt 0.296822 0.485388
vt 0.250000 0.490000
vt 0.203179 0.485389
vt 0.158156 0.471731
vt 0.116663 0.449553
vt 0.080295 0.419706
vt 0.050447 0.383337
vt 0.028269 0.341844
vt 0.120911 0.379089
vt 0.214385 0.429052
vt 0.250000 0.432560
vt 0.285616 0.429052
vt 0.418663 0.319863
vt 0.429052 0.214384
vt 0.418663 0.180137
vt 0.401793 0.148575
vt 0.214384 0.070948
vt 0.180137 0.081337
vt 0.148575 0.098207
vt 0.120911 0.120911
vt 0.098207 0.148575
vt 0.014612 0.296822
vt 0.010000 0.250000
vt 0.014611 0.203179
vt 0.070948 0.214384
vt 0.067440 0.250000
vt 0.070948 0.285616
vt 0.901793 0.148575
vt 0.949553 0.116663
vt 0.919706 0.080294
vt 0.883337 0.050447
vt 0.841844 0.028269
vt 0.796822 0.014612
vt 0.785615 0.070948
vt 0.819862 0.081337
vt 0.851425 0.098207
vt 0.879089 0.120911
vt 0.750000 0.010000
vt 0.703178 0.014612
vt 0.658156 0.028269
vt 0.616663 0.050447
vt 0.580294 0.080294
vt 0.550447 0.116663
vt 0.528269 0.158156
vt 0.514611 0.203179
vt 0.510000 0.250000
vt 0.514612 0.296822
vt 0.528269 0.341844
vt 0.550447 0.383337
vt 0.580295 0.419706
vt 0.616663 0.449553
vt 0.658156 0.471731
vt 0.703179 0.485389
vt 0.750000 0.490000
vt 0.796822 0.485388
vt 0.841844 0.471731
vt 0.883337 0.449553
vt 0.919706 0.419706
vt 0.949553 0.383337
vt 0.971731 0.341844
vt 0.985388 0.296822
vt 0.990000 0.250000
vt 0.985388 0.203178
vt 0.971731 0.158156
vt 0.918663 0.180137
vt 0.929052 0.214384
vt 0.932560 0.250000
vt 0.929052 0.285616
vt 0.918663 0.319863
vt 0.851425 0.401793
vt 0.819862 0.418663
vt 0.785616 0.429052
vt 0.750000 0.432560
vt 0.714385 0.429052
vt 0.680138 0.418663
vt 0.648575 0.401793
vt 0.620911 0.379089
vt 0.570948 0.285616
vt 0.567440 0.250000
vt 0.570948 0.214384
vt 0.581337 0.180138
vt 0.750000 0.067440
vt 0.218750 0.585670
vt 0.218750 0.914330
vt 0.187500 0.585670
vt 0.187500 0.914330
vt 0.156250 0.585670
vt 0.156250 0.914330
vt 0.067440 0.250000
vt 0.070948 0.285616
vt 0.570948 0.285616
vt 0.567440 0.250000
vt 0.093750 0.914330
vt 0.093750 0.585670
vt 0.062500 0.585670
vt 0.062500 0.914330
vt 0.680138 0.418663
vt 0.648575 0.401793
vt 0.214385 0.429052
vt 0.714385 0.429052
vt 0.937500 0.914330
vt 0.937500 0.585670
vt 0.906250 0.585670
vt 0.906250 0.914330
vt 0.906250 0.585670
vt 0.875000 0.585670
vt 0.875000 0.914330
vt 0.843750 0.585670
vt 0.843750 0.914330
vt 0.851425 0.401793
vt 0.819862 0.418663
vt 0.781250 0.585670
vt 0.750000 0.585670
vt 0.750000 0.914330
vt 0.781250 0.914330
vt 0.932560 0.250000
vt 0.929052 0.285616
vt 0.429052 0.214384
vt 0.929052 0.214384
vt 0.656250 0.585670
vt 0.656250 0.914330
vt 0.418663 0.180137
vt 0.401793 0.148575
vt 0.901793 0.148575
vt 0.918663 0.180137
vt 0.625000 0.585670
vt 0.593750 0.585670
vt 0.593750 0.914330
vt 0.625000 0.914330
vt 0.562500 0.914330
vt 0.562500 0.585670
vt 0.531250 0.914330
vt 0.531250 0.585670
vt 0.500000 0.914330
vt 0.500000 0.585670
vt 0.750000 0.067440
vt 0.785615 0.070948
vt 0.851425 0.098207
vt 0.879089 0.120911
vt 0.819862 0.081337
vt 0.437500 0.585670
vt 0.406250 0.585670
vt 0.406250 0.914330
vt 0.437500 0.914330
vt 0.375000 0.914330
vt 0.375000 0.585670
vt 0.598207 0.148575
vt 0.620910 0.120911
vt 0.180137 0.081337
vt 0.148575 0.098207
vt 0.680137 0.081337
vt 0.437500 0.914330
vt 0.437500 0.585670
vt 0.120911 0.120911
vt 0.098207 0.148575
vt 0.312500 0.585670
vt 0.312500 0.914330
vt 0.343750 0.585670
vt 0.343750 0.914330
vt 0.375000 0.914330
vt 0.375000 0.585670
vt 0.581337 0.180138
vt 0.598207 0.148575
vt 0.120911 0.120911
vt 0.098207 0.148575
vt 0.098207 0.148575
vt 0.081337 0.180138
vt 0.468750 0.914330
vt 0.468750 0.585670
vt 0.437500 0.585670
vt 0.437500 0.914330
vt 0.214384 0.070948
vt 0.180137 0.081337
vn 0.0980 0.0000 -0.9952
vn 0.2903 0.0000 -0.9569
vn 0.4714 0.0000 -0.8819
vn 0.6344 0.0000 -0.7730
vn 0.7730 0.0000 -0.6344
vn 0.8819 0.0000 -0.4714
vn 0.9569 0.0000 -0.2903
vn 0.9952 0.0000 -0.0980
vn 0.9952 0.0000 0.0980
vn 0.9569 0.0000 0.2903
vn 0.8819 0.0000 0.4714
vn 0.7730 0.0000 0.6344
vn 0.6344 0.0000 0.7730
vn 0.4714 0.0000 0.8819
vn 0.2903 0.0000 0.9569
vn 0.0980 0.0000 0.9952
vn -0.0980 0.0000 0.9952
vn -0.2903 0.0000 0.9569
vn -0.4714 0.0000 0.8819
vn -0.6344 0.0000 0.7730
vn -0.7730 0.0000 0.6344
vn -0.8819 0.0000 0.4714
vn -0.9569 0.0000 0.2903
vn -0.9952 0.0000 0.0980
vn -0.9952 0.0000 -0.0980
vn -0.9569 0.0000 -0.2903
vn -0.8819 0.0000 -0.4714
vn -0.7730 0.0000 -0.6344
vn -0.6344 0.0000 -0.7730
vn -0.4714 0.0000 -0.8819
vn -0.2903 0.0000 -0.9569
vn -0.0980 0.0000 -0.9952
vn 0.0000 1.0000 0.0000
vn 0.0000 -1.0000 0.0000
vn 0.0000 0.0000 1.0000
vn 0.5556 0.0000 0.8315
vn 0.9239 0.0000 -0.3827
vn -0.9239 0.0000 0.3827
vn -0.0000 0.0000 -1.0000
vn -0.5556 0.0000 -0.8315
usemtl None
s off
f 1/1/1 2/2/1 4/3/1 3/4/1
f 3/4/2 4/3/2 6/5/2 5/6/2
f 5/6/3 6/5/3 8/7/3 7/8/3
f 7/8/4 8/7/4 10/9/4 9/10/4
f 9/10/5 10/9/5 12/11/5 11/12/5
f 11/12/6 12/11/6 14/13/6 13/14/6
f 13/14/7 14/13/7 16/15/7 15/16/7
f 15/16/8 16/15/8 18/17/8 17/18/8
f 17/18/9 18/17/9 20/19/9 19/20/9
f 19/20/10 20/19/10 22/21/10 21/22/10
f 21/22/11 22/21/11 24/23/11 23/24/11
f 23/24/12 24/23/12 26/25/12 25/26/12
f 25/26/13 26/25/13 28/27/13 27/28/13
f 27/28/14 28/27/14 30/29/14 29/30/14
f 29/30/15 30/29/15 32/31/15 31/32/15
f 31/32/16 32/31/16 34/33/16 33/34/16
f 33/34/17 34/33/17 36/35/17 35/36/17
f 35/36/18 36/35/18 38/37/18 37/38/18
f 37/38/19 38/37/19 40/39/19 39/40/19
f 39/40/20 40/39/20 42/41/20 41/42/20
f 41/42/21 42/41/21 44/43/21 43/44/21
f 43/44/22 44/43/22 46/45/22 45/46/22
f 45/46/23 46/45/23 48/47/23 47/48/23
f 47/48/24 48/47/24 50/49/24 49/50/24
f 49/50/25 50/49/25 52/51/25 51/52/25
f 51/52/26 52/51/26 54/53/26 53/54/26
f 53/54/27 54/53/27 56/55/27 55/56/27
f 55/56/28 56/55/28 58/57/28 57/58/28
f 57/58/29 58/57/29 60/59/29 59/60/29
f 59/60/30 60/59/30 62/61/30 61/62/30
f 61/62/31 62/61/31 64/63/31 63/64/31
f 63/64/32 64/63/32 2/65/32 1/66/32
f 66/67/17 65/68/17 69/69/17 70/70/17
f 70/70/18 69/69/18 71/71/18 72/72/18
f 76/73/33 72/74/33 144/75/33 146/76/33
f 79/77/34 83/78/34 149/79/34 147/80/34
f 84/81/33 80/82/33 148/83/33 150/84/33
f 83/85/22 87/86/22 88/87/22 84/88/22
f 87/86/23 91/89/23 92/90/23 88/87/23
f 96/91/33 92/92/33 152/93/33 154/94/33
f 99/95/35 100/96/35 156/97/35 155/98/35
f 104/99/26 100/96/26 99/95/26 103/100/26
f 104/99/3 103/100/3 157/101/3 158/102/3
f 105/103/28 107/104/28 108/105/28 106/106/28
f 111/107/33 110/108/33 164/109/33 165/110/33
f 109/111/33 111/107/33 165/110/33 167/112/33
f 118/113/33 109/111/33 167/112/33 169/114/33
f 110/108/33 108/115/33 162/116/33 164/109/33
f 117/117/1 119/118/1 120/119/1 118/120/1
f 119/121/34 121/122/34 189/123/34 187/124/34
f 123/125/35 126/126/35 176/127/35 173/128/35
f 127/129/35 114/130/35 178/131/35 177/132/35
f 126/126/35 127/133/35 177/134/35 176/127/35
f 114/130/36 127/129/36 179/135/36 180/136/36
f 67/137/7 68/138/7 115/139/7 128/140/7
f 73/141/8 74/142/8 68/138/8 67/137/8
f 81/143/34 85/144/34 135/145/34 133/146/34
f 74/142/18 73/141/18 129/147/18 130/148/18
f 86/149/33 82/150/33 134/151/33 136/152/33
f 86/153/12 85/154/12 89/155/12 90/156/12
f 90/156/13 89/155/13 93/157/13 94/158/13
f 98/159/33 94/160/33 138/161/33 140/162/33
f 101/163/37 102/164/37 142/165/37 141/166/37
f 102/164/16 101/163/16 65/167/16 66/168/16
f 115/169/33 46/170/33 44/171/33 42/172/33 40/173/33 38/174/33 36/175/33 34/176/33 32/177/33 30/178/33 28/179/33 26/180/33 24/181/33 22/182/33 20/183/33 18/184/33 16/185/33 14/186/33 12/187/33 10/188/33 8/189/33 6/190/33 4/191/33 2/192/33 64/193/33 62/194/33 60/195/33 58/196/33 56/197/33 54/198/33 82/150/33 86/149/33 90/199/33 94/160/33 98/159/33 102/200/33 66/201/33 70/202/33 72/74/33 76/73/33 80/82/33 84/81/33 88/203/33 92/92/33 96/91/33 100/204/33 104/205/33 106/206/33 108/115/33 110/108/33 111/107/33 109/111/33 118/113/33 120/207/33 122/208/33 124/209/33 125/210/33 114/211/33
f 82/150/33 54/198/33 52/212/33 50/213/33 48/214/33 46/170/33 115/169/33 68/215/33 74/216/33 78/217/33
f 105/218/34 23/219/34 25/220/34 27/221/34 29/222/34 31/223/34 116/224/34 113/225/34 112/226/34 107/227/34
f 116/224/34 31/223/34 33/228/34 35/229/34 37/230/34 39/231/34 41/232/34 43/233/34 45/234/34 47/235/34 49/236/34 51/237/34 53/238/34 55/239/34 57/240/34 59/241/34 61/242/34 63/243/34 1/244/34 3/245/34 5/246/34 7/247/34 9/248/34 11/249/34 13/250/34 15/251/34 17/252/34 19/253/34 21/254/34 23/219/34 105/218/34 103/255/34 99/256/34 95/257/34 91/258/34 87/259/34 83/78/34 79/77/34 75/260/34 71/261/34 69/262/34 65/263/34 101/264/34 97/265/34 93/266/34 89/267/34 85/144/34 81/143/34 77/268/34 73/269/34 67/270/34 128/271/34 127/133/34 126/126/34 123/125/34 121/122/34 119/121/34 117/272/34
f 130/148/9 129/147/9 131/273/9 132/274/9
f 132/274/10 131/273/10 133/275/10 134/276/10
f 134/276/11 133/275/11 135/277/11 136/278/11
f 78/217/33 74/216/33 130/279/33 132/280/33
f 73/269/34 77/268/34 131/281/34 129/282/34
f 85/154/2 86/153/2 136/278/2 135/277/2
f 82/150/33 78/217/33 132/280/33 134/151/33
f 77/268/34 81/143/34 133/146/34 131/281/34
f 138/283/14 137/284/14 139/285/14 140/286/14
f 140/286/15 139/285/15 141/166/15 142/165/15
f 93/266/34 97/265/34 139/287/34 137/288/34
f 94/158/38 93/157/38 137/284/38 138/283/38
f 102/200/33 98/159/33 140/162/33 142/289/33
f 97/265/34 101/264/34 141/290/34 139/287/34
f 144/291/19 143/292/19 145/293/19 146/294/19
f 146/294/20 145/295/20 147/296/20 148/297/20
f 147/296/21 149/298/21 150/299/21 148/297/21
f 71/261/34 75/260/34 145/300/34 143/301/34
f 72/72/28 71/71/28 143/292/28 144/291/28
f 83/85/12 84/88/12 150/299/12 149/298/12
f 80/82/33 76/73/33 146/76/33 148/83/33
f 75/260/34 79/77/34 147/80/34 145/300/34
f 151/302/24 153/303/24 154/304/24 152/305/24
f 153/303/25 155/98/25 156/97/25 154/304/25
f 91/258/34 95/257/34 153/306/34 151/307/34
f 92/90/39 91/89/39 151/302/39 152/305/39
f 100/204/33 96/91/33 154/94/33 156/308/33
f 95/257/34 99/256/34 155/309/34 153/306/34
f 157/101/27 159/310/27 160/311/27 158/102/27
f 106/206/33 104/205/33 158/312/33 160/313/33
f 103/255/34 105/218/34 159/314/34 157/315/34
f 105/103/19 106/106/19 160/311/19 159/310/19
f 161/316/29 163/317/29 164/318/29 162/319/29
f 165/320/30 164/318/30 163/317/30 166/321/30
f 167/322/31 165/320/31 166/321/31 168/323/31
f 169/324/32 167/322/32 168/323/32 170/325/32
f 116/224/34 117/272/34 170/326/34 168/327/34
f 107/227/34 112/226/34 163/328/34 161/329/34
f 113/225/34 116/224/34 168/327/34 166/330/34
f 112/226/34 113/225/34 166/330/34 163/328/34
f 117/117/38 118/120/38 169/324/38 170/325/38
f 108/105/37 107/104/37 161/316/37 162/319/37
f 171/331/3 173/332/3 174/333/3 172/334/3
f 175/335/4 174/333/4 173/332/4 176/336/4
f 176/127/34 177/134/34 185/337/34 183/338/34
f 124/209/35 122/208/35 172/339/35 174/340/35
f 121/122/35 123/125/35 173/128/35 171/341/35
f 122/342/35 121/343/35 171/331/35 172/334/35
f 114/211/35 125/210/35 175/344/35 178/345/35
f 125/210/35 124/209/35 174/340/35 175/344/35
f 181/346/6 182/347/6 180/136/6 179/135/6
f 185/348/5 186/349/5 184/350/5 183/351/5
f 177/132/40 178/131/40 186/349/40 185/348/40
f 127/133/34 128/271/34 181/352/34 179/353/34
f 128/140/40 115/139/40 182/347/40 181/346/40
f 178/345/33 175/344/33 184/354/33 186/355/33
f 175/335/36 176/336/36 183/351/36 184/350/36
f 115/169/33 114/211/33 180/356/33 182/357/33
f 188/358/2 187/359/2 189/360/2 190/361/2
f 120/119/10 119/118/10 187/359/10 188/358/10
f 121/343/26 122/342/26 190/361/26 189/360/26
f 122/208/33 120/207/33 188/362/33 190/363/33
