# Blender 3.3.1
# www.blender.org
mtllib ember_twin.mtl
o EmberTwin
v 0.000000 -0.500000 -1.000000
v 0.000000 0.500000 -1.000000
v 0.195090 -0.500000 -0.980785
v 0.195090 0.500000 -0.980785
v 0.382683 -0.500000 -0.923880
v 0.382683 0.500000 -0.923880
v 0.555570 -0.500000 -0.831470
v 0.555570 0.500000 -0.831470
v 0.707107 -0.500000 -0.707107
v 0.707107 0.500000 -0.707107
v 0.831470 -0.500000 -0.555570
v 0.831470 0.500000 -0.555570
v 0.923880 -0.500000 -0.382683
v 0.923880 0.500000 -0.382683
v 0.980785 -0.500000 -0.195090
v 0.980785 0.500000 -0.195090
v 1.000000 -0.500000 0.000000
v 1.000000 0.500000 0.000000
v 0.980785 -0.500000 0.195090
v 0.980785 0.500000 0.195090
v 0.923880 -0.500000 0.382683
v 0.923880 0.500000 0.382683
v 0.831470 -0.500000 0.555570
v 0.831470 0.500000 0.555570
v 0.707107 -0.500000 0.707107
v 0.707107 0.500000 0.707107
v 0.555570 -0.500000 0.831470
v 0.555570 0.500000 0.831470
v 0.382683 -0.500000 0.923880
v 0.382683 0.500000 0.923880
v 0.195090 -0.500000 0.980785
v 0.195090 0.500000 0.980785
v 0.000000 -0.500000 1.000000
v 0.000000 0.500000 1.000000
v -0.195090 -0.500000 0.980785
v -0.195090 0.500000 0.980785
v -0.382683 -0.500000 0.923880
v -0.382683 0.500000 0.923880
v -0.555570 -0.500000 0.831470
v -0.555570 0.500000 0.831470
v -0.707107 -0.500000 0.707107
v -0.707107 0.500000 0.707107
v -0.831470 -0.500000 0.555570
v -0.831470 0.500000 0.555570
v -0.923880 -0.500000 0.382683
v -0.923880 0.500000 0.382683
v -0.980785 -0.500000 0.195090
v -0.980785 0.500000 0.195090
v -1.000000 -0.500000 0.000000
v -1.000000 0.500000 0.000000
v -0.980785 -0.500000 -0.195090
v -0.980785 0.500000 -0.195090
v -0.923880 -0.500000 -0.382683
v -0.923880 0.500000 -0.382683
v -0.831470 -0.500000 -0.555570
v -0.831470 0.500000 -0.555570
v -0.707107 -0.500000 -0.707107
v -0.707107 0.500000 -0.707107
v -0.555570 -0.500000 -0.831470
v -0.555570 0.500000 -0.831470
v -0.382683 -0.500000 -0.923880
v -0.382683 0.500000 -0.923880
v -0.195090 -0.500000 -0.980785
v -0.195090 0.500000 -0.980785
v 0.327715 0.500000 -1.647533
v 0.327715 -0.500000 -1.647533
v 0.642836 -0.500000 -1.551942
v 0.642836 0.500000 -1.551942
v 0.933253 -0.500000 -1.396711
v 0.933253 0.500000 -1.396711
v 1.187805 -0.500000 -1.187805
v 1.187805 0.500000 -1.187805
v 1.396711 -0.500000 -0.933253
v 1.396711 0.500000 -0.933253
v 1.551942 -0.500000 -0.642836
v 1.551942 0.500000 -0.642836
v 1.647533 -0.500000 -0.327715
v 1.647533 0.500000 -0.327715
v 1.679811 -0.500000 0.000000
v 1.679811 0.500000 0.000000
v 1.647533 -0.500000 0.327715
v 1.647533 0.500000 0.327715
v 1.551942 -0.500000 0.642836
v 1.551942 0.500000 0.642836
v 1.396711 -0.500000 0.933253
v 1.396711 0.500000 0.933253
v 1.187805 -0.500000 1.187805
v 1.187805 0.500000 1.187805
v 0.933253 -0.500000 1.396711
v 0.933253 0.500000 1.396711
v 0.642836 -0.500000 1.551942
v 0.642836 0.500000 1.551942
v 0.327715 -0.500000 1.647533
v 0.327715 0.500000 1.647533
v -0.327715 0.500000 1.647533
v -0.327715 -0.500000 1.647533
v -0.642836 -0.500000 1.551942
v -0.642836 0.500000 1.551942
v -0.933253 -0.500000 1.396711
v -0.933253 0.500000 1.396711
v -1.187805 -0.500000 1.187805
v -1.187805 0.500000 1.187805
v -1.396711 -0.500000 0.933253
v -1.396711 0.500000 0.933253
v -1.551942 -0.500000 0.642836
v -1.551942 0.500000 0.642836
v -1.647533 -0.500000 0.327715
v -1.647533 0.500000 0.327715
v -1.679811 -0.500000 0.000000
v -1.679811 0.500000 0.000000
v -1.647533 -0.500000 -0.327715
v -1.647533 0.500000 -0.327715
v -1.551942 -0.500000 -0.642836
v -1.551942 0.500000 -0.642836
v -1.396711 -0.500000 -0.933253
v -1.396711 0.500000 -0.933253
v -1.187805 -0.500000 -1.187805
v -1.187805 0.500000 -1.187805
v -0.933253 -0.500000 -1.396711
v -0.933253 0.500000 -1.396711
v -0.642836 -0.500000 -1.551942
v -0.642836 0.500000 -1.551942
v -0.327715 -0.500000 -1.647533
v -0.327715 0.500000 -1.647533
v 1.879832 0.500000 -0.304835
v 1.879832 -0.500000 -0.304835
v 1.912109 -0.500000 0.022879
v 1.912109 0.500000 0.022879
v 1.879832 -0.500000 0.350594
v 1.879832 0.500000 0.350594
v 1.784241 -0.500000 0.665715
v 1.784241 0.500000 0.665715
v -1.638449 0.500000 -0.700638
v -1.638449 -0.500000 -0.700638
v -1.483218 -0.500000 -0.991055
v -1.483218 0.500000 -0.991055
v -1.274312 -0.500000 -1.245607
v -1.274312 0.500000 -1.245607
v -1.840831 0.500000 -0.015859
v -1.840831 -0.500000 -0.015859
v -1.808554 -0.500000 -0.343574
v -1.808554 0.500000 -0.343574
v -0.981789 0.500000 1.436544
v -0.981789 -0.500000 1.436544
v -1.236341 -0.500000 1.227638
v -1.236341 0.500000 1.227638
v -1.445247 -0.500000 0.973085
v -1.445247 0.500000 0.973085
v -1.600478 -0.500000 0.682668
v -1.600478 0.500000 0.682668
v 1.226086 0.500000 1.245097
v 1.226086 -0.500000 1.245097
v 0.971534 -0.500000 1.454003
v 0.971534 0.500000 1.454003
v 0.681117 -0.500000 1.609234
v 0.681117 0.500000 1.609234
v 0.970549 0.500000 -1.442157
v 0.970549 -0.500000 -1.442157
v 1.225102 -0.500000 -1.233251
v 1.225102 0.500000 -1.233251
vn 0.0980 -0.0000 -0.9952
vn -0.0000 -1.0000 -0.0000
vn -0.0000 1.0000 -0.0000
vn -0.9808 -0.0000 0.1951
vn 0.9808 -0.0000 -0.1951
vn 0.0980 -0.0000 0.9952
vn -0.0980 -0.0000 0.9952
vn -0.0980 -0.0000 -0.9952
vn 0.2903 -0.0000 -0.9569
vn 0.4714 -0.0000 -0.8819
vn -0.7730 -0.0000 -0.6344
vn 0.7730 -0.0000 -0.6344
vn 0.8819 -0.0000 -0.4714
vn 0.9569 -0.0000 -0.2903
vn 0.8819 -0.0000 0.4714
vn 0.7730 -0.0000 0.6344
vn -0.8315 -0.0000 0.5556
vn 0.2903 -0.0000 0.9569
vn -0.2903 -0.0000 0.9569
vn -0.4714 -0.0000 0.8819
vn -0.9569 -0.0000 0.2903
vn -0.9952 -0.0000 0.0980
vn -0.9569 -0.0000 -0.2903
vn 0.5556 -0.0000 -0.8315
vn -0.6344 -0.0000 -0.7730
vn -0.4714 -0.0000 -0.8819
vn -0.2903 -0.0000 -0.9569
vn 0.9808 -0.0000 0.1951
vn -0.9808 -0.0000 -0.1951
vn 0.9952 -0.0000 -0.0980
vn 0.9952 -0.0000 0.0980
vn 0.9569 -0.0000 0.2903
vn -0.8819 -0.0000 -0.4714
vn -0.5556 -0.0000 0.8315
vn -0.9952 -0.0000 -0.0980
vn -0.6344 -0.0000 0.7730
vn -0.7730 -0.0000 0.6344
vn -0.8819 -0.0000 0.4714
vn 0.6344 -0.0000 0.7730
vn 0.4714 -0.0000 0.8819
vn 0.8315 -0.0000 -0.5556
vn 0.6344 -0.0000 -0.7730
vt 1.000000 0.500000
vt 0.000000 0.500000
vt 0.750000 0.490000
vt 1.000000 1.000000
vt 0.250000 0.490000
vt 0.000000 1.000000
vt 0.968750 0.500000
vt 0.796822 0.485388
vt 0.968750 1.000000
vt 0.296822 0.485388
vt 0.841844 0.471731
vt 0.341844 0.471731
vt 0.883337 0.449553
vt 0.383337 0.449553
vt 0.919706 0.419706
vt 0.419706 0.419706
vt 0.949553 0.383337
vt 0.449553 0.383337
vt 0.971731 0.341844
vt 0.471731 0.341844
vt 0.985388 0.296822
vt 0.485388 0.296822
vt 0.990000 0.250000
vt 0.490000 0.250000
vt 0.985388 0.203178
vt 0.485388 0.203178
vt 0.971731 0.158156
vt 0.471731 0.158156
vt 0.949553 0.116663
vt 0.449553 0.116663
vt 0.919706 0.080294
vt 0.419706 0.080294
vt 0.883337 0.050447
vt 0.383337 0.050447
vt 0.841844 0.028269
vt 0.341844 0.028269
vt 0.531250 0.500000
vt 0.796822 0.014612
vt 0.531250 1.000000
vt 0.296822 0.014612
vt 0.500000 0.500000
vt 0.750000 0.010000
vt 0.500000 1.000000
vt 0.250000 0.010000
vt 0.468750 0.500000
vt 0.703178 0.014612
vt 0.468750 1.000000
vt 0.203178 0.014612
vt 0.658156 0.028269
vt 0.158156 0.028269
vt 0.616663 0.050447
vt 0.116663 0.050447
vt 0.580294 0.080294
vt 0.080294 0.080294
vt 0.550447 0.116663
vt 0.050447 0.116663
vt 0.528269 0.158156
vt 0.028269 0.158156
vt 0.514612 0.203178
vt 0.014612 0.203178
vt 0.510000 0.250000
vt 0.010000 0.250000
vt 0.514612 0.296822
vt 0.014612 0.296822
vt 0.528269 0.341844
vt 0.028269 0.341844
vt 0.550447 0.383337
vt 0.050447 0.383337
vt 0.580294 0.419706
vt 0.080294 0.419706
vt 0.616663 0.449553
vt 0.116663 0.449553
vt 0.658156 0.471731
vt 0.158156 0.471731
vt 0.031250 0.500000
vt 0.703178 0.485388
vt 0.203178 0.485388
vt 0.031250 1.000000
vt 0.968750 1.000000
vt 0.296822 0.485388
vt 0.968750 0.500000
vt 0.796822 0.485388
vt 0.937500 0.500000
vt 0.841844 0.471731
vt 0.937500 1.000000
vt 0.341844 0.471731
vt 0.906250 0.500000
vt 0.883337 0.449553
vt 0.906250 1.000000
vt 0.383337 0.449553
vt 0.875000 0.500000
vt 0.919706 0.419706
vt 0.875000 1.000000
vt 0.419706 0.419706
vt 0.949553 0.383337
vt 0.843750 0.500000
vt 0.449553 0.383337
vt 0.843750 1.000000
vt 0.971731 0.341844
vt 0.812500 0.500000
vt 0.471731 0.341844
vt 0.812500 1.000000
vt 0.985388 0.296822
vt 0.781250 0.500000
vt 0.485388 0.296822
vt 0.781250 1.000000
vt 0.990000 0.250000
vt 0.490000 0.250000
vt 0.985388 0.203178
vt 0.485388 0.203178
vt 0.687500 0.500000
vt 0.971731 0.158156
vt 0.471731 0.158156
vt 0.687500 1.000000
vt 0.656250 0.500000
vt 0.949553 0.116663
vt 0.656250 1.000000
vt 0.449553 0.116663
vt 0.625000 0.500000
vt 0.919706 0.080294
vt 0.419706 0.080294
vt 0.625000 1.000000
vt 0.883337 0.050447
vt 0.383337 0.050447
vt 0.841844 0.028269
vt 0.562500 0.500000
vt 0.562500 1.000000
vt 0.341844 0.028269
vt 0.796822 0.014612
vt 0.531250 0.500000
vt 0.296822 0.014612
vt 0.531250 1.000000
vt 0.468750 1.000000
vt 0.203178 0.014612
vt 0.468750 0.500000
vt 0.703178 0.014612
vt 0.437500 0.500000
vt 0.658156 0.028269
vt 0.437500 1.000000
vt 0.158156 0.028269
vt 0.616663 0.050447
vt 0.406250 0.500000
vt 0.116663 0.050447
vt 0.406250 1.000000
vt 0.580294 0.080294
vt 0.080294 0.080294
vt 0.550447 0.116663
vt 0.050447 0.116663
vt 0.312500 0.500000
vt 0.528269 0.158156
vt 0.028269 0.158156
vt 0.312500 1.000000
vt 0.514612 0.203178
vt 0.281250 0.500000
vt 0.014612 0.203178
vt 0.281250 1.000000
vt 0.250000 0.500000
vt 0.510000 0.250000
vt 0.010000 0.250000
vt 0.250000 1.000000
vt 0.218750 0.500000
vt 0.514612 0.296822
vt 0.014612 0.296822
vt 0.218750 1.000000
vt 0.187500 0.500000
vt 0.528269 0.341844
vt 0.028269 0.341844
vt 0.187500 1.000000
vt 0.550447 0.383337
vt 0.050447 0.383337
vt 0.125000 0.500000
vt 0.580294 0.419706
vt 0.125000 1.000000
vt 0.080294 0.419706
vt 0.093750 0.500000
vt 0.616663 0.449553
vt 0.093750 1.000000
vt 0.116663 0.449553
vt 0.658156 0.471731
vt 0.062500 0.500000
vt 0.158156 0.471731
vt 0.062500 1.000000
vt 0.703178 0.485388
vt 0.031250 0.500000
vt 0.203178 0.485388
vt 0.031250 1.000000
vt 0.485388 0.296822
vt 0.781250 1.000000
vt 0.985388 0.296822
vt 0.781250 0.500000
vt 0.750000 0.500000
vt 0.990000 0.250000
vt 0.750000 1.000000
vt 0.490000 0.250000
vt 0.718750 0.500000
vt 0.985388 0.203178
vt 0.485388 0.203178
vt 0.718750 1.000000
vt 0.687500 0.500000
vt 0.971731 0.158156
vt 0.471731 0.158156
vt 0.687500 1.000000
vt 0.028269 0.341844
vt 0.187500 1.000000
vt 0.187500 0.500000
vt 0.528269 0.341844
vt 0.156250 0.500000
vt 0.550447 0.383337
vt 0.156250 1.000000
vt 0.050447 0.383337
vt 0.580294 0.419706
vt 0.125000 0.500000
vt 0.125000 1.000000
vt 0.080294 0.419706
vt 0.010000 0.250000
vt 0.250000 1.000000
vt 0.250000 0.500000
vt 0.510000 0.250000
vt 0.218750 0.500000
vt 0.514612 0.296822
vt 0.014612 0.296822
vt 0.218750 1.000000
vt 0.116663 0.050447
vt 0.406250 1.000000
vt 0.616663 0.050447
vt 0.406250 0.500000
vt 0.580294 0.080294
vt 0.375000 0.500000
vt 0.375000 1.000000
vt 0.080294 0.080294
vt 0.343750 0.500000
vt 0.550447 0.116663
vt 0.343750 1.000000
vt 0.050447 0.116663
vt 0.312500 0.500000
vt 0.528269 0.158156
vt 0.028269 0.158156
vt 0.312500 1.000000
vt 0.419706 0.080294
vt 0.625000 1.000000
vt 0.625000 0.500000
vt 0.919706 0.080294
vt 0.593750 0.500000
vt 0.883337 0.050447
vt 0.593750 1.000000
vt 0.383337 0.050447
vt 0.841844 0.028269
vt 0.562500 0.500000
vt 0.562500 1.000000
vt 0.341844 0.028269
vt 0.906250 1.000000
vt 0.383337 0.449553
vt 0.906250 0.500000
vt 0.883337 0.449553
vt 0.875000 0.500000
vt 0.919706 0.419706
vt 0.875000 1.000000
vt 0.419706 0.419706
s 0
f 1/1/1 2/4/1 4/9/1 3/7/1
f 51/63/2 49/61/2 109/158/2 111/162/2
f 14/20/3 16/22/3 78/105/3 76/101/3
f 15/21/2 13/19/2 75/99/2 77/103/2
f 32/39/4 31/37/4 93/130/4 94/132/4
f 48/60/3 50/62/3 110/159/3 108/155/3
f 30/36/3 32/40/3 94/131/3 92/128/3
f 49/61/2 47/59/2 107/153/2 109/158/2
f 12/18/3 14/20/3 76/101/3 74/97/3
f 31/38/2 29/35/2 91/125/2 93/129/2
f 13/19/2 11/17/2 73/95/2 75/99/2
f 46/58/3 48/60/3 108/155/3 106/151/3
f 28/34/3 30/36/3 92/128/3 90/124/3
f 47/59/2 45/57/2 105/150/2 107/153/2
f 64/78/5 63/75/5 123/184/5 124/186/5
f 31/37/6 32/39/6 34/43/6 33/41/6
f 33/41/7 34/43/7 36/47/7 35/45/7
f 10/16/3 12/18/3 74/97/3 72/94/3
f 29/35/2 27/33/2 89/123/2 91/125/2
f 62/74/3 64/77/3 124/185/3 122/181/3
f 11/17/2 9/15/2 71/92/2 73/95/2
f 44/56/3 46/58/3 106/151/3 104/148/3
f 63/76/2 61/73/2 121/179/2 123/183/2
f 26/32/3 28/34/3 90/124/3 88/121/3
f 45/57/2 43/55/2 103/147/2 105/150/2
f 8/14/3 10/16/3 72/94/3 70/90/3
f 27/33/2 25/31/2 87/120/2 89/123/2
f 60/72/3 62/74/3 122/181/3 120/178/3
f 9/15/2 7/13/2 69/88/2 71/92/2
f 42/54/3 44/56/3 104/148/3 102/146/3
f 4/10/3 2/5/3 64/77/3 62/74/3 60/72/3 58/70/3 56/68/3 54/66/3 52/64/3 50/62/3 48/60/3 46/58/3 44/56/3 42/54/3 40/52/3 38/50/3 36/48/3 34/44/3 32/40/3 30/36/3 28/34/3 26/32/3 24/30/3 22/28/3 20/26/3 18/24/3 16/22/3 14/20/3 12/18/3 10/16/3 8/14/3 6/12/3
f 61/73/2 59/71/2 119/176/2 121/179/2
f 63/75/8 64/78/8 2/6/8 1/2/8
f 1/3/2 3/8/2 5/11/2 7/13/2 9/15/2 11/17/2 13/19/2 15/21/2 17/23/2 19/25/2 21/27/2 23/29/2 25/31/2 27/33/2 29/35/2 31/38/2 33/42/2 35/46/2 37/49/2 39/51/2 41/53/2 43/55/2 45/57/2 47/59/2 49/61/2 51/63/2 53/65/2 55/67/2 57/69/2 59/71/2 61/73/2 63/76/2
f 66/81/9 65/79/9 68/85/9 67/83/9
f 67/83/10 68/85/10 70/89/10 69/87/10
f 69/87/11 70/89/11 157/251/11 158/253/11
f 71/91/12 72/93/12 74/98/12 73/96/12
f 73/96/13 74/98/13 76/102/13 75/100/13
f 75/100/14 76/102/14 78/106/14 77/104/14
f 82/110/3 84/113/3 132/201/3 130/197/3
f 79/107/2 77/103/2 126/189/2 127/192/2
f 80/108/3 82/110/3 130/197/3 128/194/3
f 83/111/15 84/114/15 86/117/15 85/115/15
f 85/115/16 86/117/16 88/122/16 87/119/16
f 91/125/2 89/123/2 153/244/2 155/247/2
f 92/127/17 91/126/17 155/248/17 156/249/17
f 91/126/18 92/127/18 94/132/18 93/130/18
f 96/135/19 95/133/19 98/139/19 97/137/19
f 97/137/20 98/139/20 100/144/20 99/142/20
f 103/147/2 101/145/2 145/227/2 147/232/2
f 104/148/3 106/151/3 150/237/3 148/234/3
f 101/145/2 99/141/2 144/225/2 145/227/2
f 105/149/21 106/152/21 108/156/21 107/154/21
f 107/154/22 108/156/22 110/160/22 109/157/22
f 110/159/3 112/163/3 142/221/3 139/215/3
f 111/161/23 112/164/23 114/168/23 113/165/23
f 117/172/2 115/169/2 135/208/2 137/211/2
f 118/173/24 117/171/24 137/212/24 138/213/24
f 117/171/25 118/173/25 120/177/25 119/175/25
f 119/175/26 120/177/26 122/182/26 121/180/26
f 121/180/27 122/182/27 124/186/27 123/184/27
f 50/62/3 52/64/3 112/163/3 110/159/3
f 17/23/2 15/21/2 77/103/2 79/107/2
f 16/22/3 18/24/3 80/108/3 78/105/3
f 53/65/2 51/63/2 111/162/2 113/166/2
f 52/64/3 54/66/3 114/167/3 112/163/3
f 35/45/28 36/47/28 95/133/28 96/135/28
f 19/25/2 17/23/2 79/107/2 81/109/2
f 37/49/2 35/46/2 96/136/2 97/138/2
f 18/24/3 20/26/3 82/110/3 80/108/3
f 55/67/2 53/65/2 113/166/2 115/169/2
f 36/48/3 38/50/3 98/140/3 95/134/3
f 54/66/3 56/68/3 116/170/3 114/167/3
f 21/27/2 19/25/2 81/109/2 83/112/2
f 39/51/2 37/49/2 97/138/2 99/141/2
f 20/26/3 22/28/3 84/113/3 82/110/3
f 3/7/29 4/9/29 65/79/29 66/81/29
f 57/69/2 55/67/2 115/169/2 117/172/2
f 38/50/3 40/52/3 100/143/3 98/140/3
f 5/11/2 3/8/2 66/82/2 67/84/2
f 56/68/3 58/70/3 118/174/3 116/170/3
f 23/29/2 21/27/2 83/112/2 85/116/2
f 4/10/3 6/12/3 68/86/3 65/80/3
f 41/53/2 39/51/2 99/141/2 101/145/2
f 22/28/3 24/30/3 86/118/3 84/113/3
f 59/71/2 57/69/2 117/172/2 119/176/2
f 40/52/3 42/54/3 102/146/3 100/143/3
f 7/13/2 5/11/2 67/84/2 69/88/2
f 58/70/3 60/72/3 120/178/3 118/174/3
f 25/31/2 23/29/2 85/116/2 87/120/2
f 6/12/3 8/14/3 70/90/3 68/86/3
f 43/55/2 41/53/2 101/145/2 103/147/2
f 24/30/3 26/32/3 88/121/3 86/118/3
f 126/190/30 125/188/30 128/193/30 127/191/30
f 127/191/31 128/193/31 130/198/31 129/195/31
f 129/195/32 130/198/32 132/202/32 131/199/32
f 81/109/2 79/107/2 127/192/2 129/196/2
f 78/105/3 80/108/3 128/194/3 125/187/3
f 77/104/1 78/106/1 125/188/1 126/190/1
f 84/114/7 83/111/7 131/199/7 132/202/7
f 83/112/2 81/109/2 129/196/2 131/200/2
f 134/205/33 133/204/33 136/209/33 135/207/33
f 135/207/11 136/209/11 138/213/11 137/212/11
f 114/167/3 116/170/3 136/210/3 133/203/3
f 113/165/34 114/168/34 133/204/34 134/205/34
f 116/170/3 118/174/3 138/214/3 136/210/3
f 115/169/2 113/166/2 134/206/2 135/208/2
f 140/217/35 139/216/35 142/222/35 141/219/35
f 109/157/7 110/160/7 139/216/7 140/217/7
f 112/164/1 111/161/1 141/219/1 142/222/1
f 111/162/2 109/158/2 140/218/2 141/220/2
f 144/226/36 143/224/36 146/229/36 145/228/36
f 145/228/37 146/229/37 148/233/37 147/231/37
f 147/231/38 148/233/38 150/238/38 149/235/38
f 100/143/3 102/146/3 146/230/3 143/223/3
f 99/142/39 100/144/39 143/224/39 144/226/39
f 106/152/25 105/149/25 149/235/25 150/238/25
f 105/150/2 103/147/2 147/232/2 149/236/2
f 102/146/3 104/148/3 148/234/3 146/230/3
f 152/241/39 151/240/39 154/245/39 153/243/39
f 153/243/40 154/245/40 156/249/40 155/248/40
f 88/121/3 90/124/3 154/246/3 151/239/3
f 87/119/41 88/122/41 151/240/41 152/241/41
f 90/124/3 92/128/3 156/250/3 154/246/3
f 89/123/2 87/120/2 152/242/2 153/244/2
f 158/253/42 157/251/42 160/257/42 159/255/42
f 72/93/16 71/91/16 159/255/16 160/257/16
f 71/92/2 69/88/2 158/254/2 159/256/2
f 70/90/3 72/94/3 160/258/3 157/252/3
