# Blender v2.92.0 OBJ File: ''
# www.blender.org
mtllib hemisphere.mtl
o Sphere_Sphere.001
v 0.181636 0.951057 -0.250000
v 0.345492 0.809017 -0.475528
v 0.475528 0.587785 -0.654508
v 0.559017 0.309017 -0.769421
v 0.587785 -0.000000 -0.809017
v 0.293893 0.951057 -0.095491
v 0.559017 0.809017 -0.181635
v 0.769421 0.587785 -0.250000
v 0.904509 0.309017 -0.293892
v 0.951057 -0.000000 -0.309017
v 0.293893 0.951057 0.095492
v 0.559017 0.809017 0.181636
v 0.769421 0.587785 0.250000
v 0.904509 0.309017 0.293893
v 0.951057 -0.000000 0.309017
v 0.181636 0.951057 0.250001
v 0.345492 0.809017 0.475529
v 0.475528 0.587785 0.654509
v 0.559017 0.309017 0.769421
v 0.587785 -0.000000 0.809017
v 0.000000 0.951057 0.309018
v 0.000000 0.809017 0.587786
v -0.000000 0.587785 0.809018
v 0.000000 0.309017 0.951057
v 0.000000 -0.000000 1.000001
v -0.000000 1.000000 0.000001
v -0.181636 0.951057 0.250001
v -0.345492 0.809017 0.475529
v -0.475529 0.587785 0.654509
v -0.559017 0.309017 0.769422
v -0.587785 -0.000000 0.809018
v -0.293893 0.951057 0.095492
v -0.559017 0.809017 0.181636
v -0.769421 0.587785 0.250000
v -0.904509 0.309017 0.293893
v -0.951057 -0.000000 0.309018
v -0.293893 0.951057 -0.095491
v -0.559017 0.809017 -0.181635
v -0.769421 0.587785 -0.250000
v -0.904509 0.309017 -0.293892
v -0.951057 -0.000000 -0.309017
v -0.181636 0.951057 -0.250000
v -0.345492 0.809017 -0.475528
v -0.475529 0.587785 -0.654509
v -0.559017 0.309017 -0.769421
v -0.587786 -0.000000 -0.809017
v -0.000000 0.951057 -0.309017
v -0.000000 0.809017 -0.587785
v -0.000000 0.587785 -0.809017
v -0.000000 0.309017 -0.951057
v -0.000000 -0.000000 -1.000000
vt 0.700000 0.700000
vt 0.700000 0.800000
vt 0.600000 0.800000
vt 0.600000 0.700000
vt 0.700000 0.600000
vt 0.600000 0.600000
vt 0.700000 0.900000
vt 0.650000 1.000000
vt 0.600000 0.900000
vt 0.700000 0.500000
vt 0.600000 0.500000
vt 0.500000 0.800000
vt 0.500000 0.700000
vt 0.500000 0.600000
vt 0.550000 1.000000
vt 0.500000 0.900000
vt 0.500000 0.500000
vt 0.400000 0.800000
vt 0.400000 0.700000
vt 0.400000 0.600000
vt 0.450000 1.000000
vt 0.400000 0.900000
vt 0.400000 0.500000
vt 0.300000 0.900000
vt 0.300000 0.800000
vt 0.300000 0.700000
vt 0.300000 0.600000
vt 0.350000 1.000000
vt 0.300000 0.500000
vt 0.200000 0.600000
vt 0.200000 0.500000
vt 0.200000 0.900000
vt 0.200000 0.800000
vt 0.200000 0.700000
vt 0.250000 1.000000
vt 0.100000 0.700000
vt 0.100000 0.600000
vt 0.150000 1.000000
vt 0.100000 0.900000
vt 0.100000 0.500000
vt 0.100000 0.800000
vt 0.000000 0.700000
vt 0.000000 0.600000
vt 0.050000 1.000000
vt 0.000000 0.900000
vt 0.000000 0.500000
vt 0.000000 0.800000
vt 1.000000 0.700000
vt 1.000000 0.800000
vt 0.900000 0.800000
vt 0.900000 0.700000
vt 1.000000 0.600000
vt 0.900000 0.600000
vt 1.000000 0.900000
vt 0.950000 1.000000
vt 0.900000 0.900000
vt 1.000000 0.500000
vt 0.900000 0.500000
vt 0.800000 0.800000
vt 0.800000 0.700000
vt 0.800000 0.600000
vt 0.850000 1.000000
vt 0.800000 0.900000
vt 0.800000 0.500000
vt 0.750000 1.000000
vt 0.000000 0.000000
vt 0.000000 0.000000
vt 0.000000 0.000000
vt 0.000000 0.000000
vt 0.000000 0.000000
vt 0.000000 0.000000
vt 0.000000 0.000000
vt 0.000000 0.000000
vt 0.000000 0.000000
vt 0.000000 0.000000
vn 0.2239 0.6892 -0.6892
vn 0.2781 0.4361 -0.8559
vn 0.0508 0.9864 -0.1562
vn 0.3056 0.1490 -0.9404
vn 0.1459 0.8815 -0.4491
vn 0.5862 0.6892 -0.4259
vn 0.7280 0.4361 -0.5290
vn 0.1329 0.9864 -0.0966
vn 0.8000 0.1490 -0.5812
vn 0.3821 0.8815 -0.2776
vn 0.7246 0.6892 0.0000
vn 0.8999 0.4361 0.0000
vn 0.1643 0.9864 0.0000
vn 0.9888 0.1490 0.0000
vn 0.4722 0.8815 0.0000
vn 0.3821 0.8815 0.2776
vn 0.5862 0.6892 0.4259
vn 0.7280 0.4361 0.5290
vn 0.1329 0.9864 0.0966
vn 0.8000 0.1490 0.5812
vn 0.3056 0.1490 0.9404
vn 0.1459 0.8815 0.4491
vn 0.2239 0.6892 0.6892
vn 0.2781 0.4361 0.8559
vn 0.0508 0.9864 0.1562
vn -0.2781 0.4361 0.8559
vn -0.0508 0.9864 0.1562
vn -0.3056 0.1490 0.9404
vn -0.1459 0.8815 0.4491
vn -0.2239 0.6892 0.6892
vn -0.7280 0.4361 0.5290
vn -0.1329 0.9864 0.0966
vn -0.8000 0.1490 0.5812
vn -0.3821 0.8815 0.2776
vn -0.5862 0.6892 0.4259
vn -0.7246 0.6892 0.0000
vn -0.8999 0.4361 0.0000
vn -0.1643 0.9864 0.0000
vn -0.9888 0.1490 0.0000
vn -0.4722 0.8815 0.0000
vn -0.5862 0.6892 -0.4259
vn -0.7280 0.4361 -0.5290
vn -0.1329 0.9864 -0.0966
vn -0.8000 0.1490 -0.5812
vn -0.3821 0.8815 -0.2776
vn -0.3056 0.1490 -0.9404
vn -0.1459 0.8815 -0.4491
vn -0.2239 0.6892 -0.6892
vn -0.2781 0.4361 -0.8559
vn -0.0508 0.9864 -0.1562
vn 0.0000 -1.0000 0.0000
usemtl None
s off
f 49/1/1 48/2/1 2/3/1 3/4/1
f 50/5/2 49/1/2 3/4/2 4/6/2
f 47/7/3 26/8/3 1/9/3
f 51/10/4 50/5/4 4/6/4 5/11/4
f 48/2/5 47/7/5 1/9/5 2/3/5
f 3/4/6 2/3/6 7/12/6 8/13/6
f 4/6/7 3/4/7 8/13/7 9/14/7
f 1/9/8 26/15/8 6/16/8
f 5/11/9 4/6/9 9/14/9 10/17/9
f 2/3/10 1/9/10 6/16/10 7/12/10
f 8/13/11 7/12/11 12/18/11 13/19/11
f 9/14/12 8/13/12 13/19/12 14/20/12
f 6/16/13 26/21/13 11/22/13
f 10/17/14 9/14/14 14/20/14 15/23/14
f 7/12/15 6/16/15 11/22/15 12/18/15
f 12/18/16 11/22/16 16/24/16 17/25/16
f 13/19/17 12/18/17 17/25/17 18/26/17
f 14/20/18 13/19/18 18/26/18 19/27/18
f 11/22/19 26/28/19 16/24/19
f 15/23/20 14/20/20 19/27/20 20/29/20
f 20/29/21 19/27/21 24/30/21 25/31/21
f 17/25/22 16/24/22 21/32/22 22/33/22
f 18/26/23 17/25/23 22/33/23 23/34/23
f 19/27/24 18/26/24 23/34/24 24/30/24
f 16/24/25 26/35/25 21/32/25
f 24/30/26 23/34/26 29/36/26 30/37/26
f 21/32/27 26/38/27 27/39/27
f 25/31/28 24/30/28 30/37/28 31/40/28
f 22/33/29 21/32/29 27/39/29 28/41/29
f 23/34/30 22/33/30 28/41/30 29/36/30
f 30/37/31 29/36/31 34/42/31 35/43/31
f 27/39/32 26/44/32 32/45/32
f 31/40/33 30/37/33 35/43/33 36/46/33
f 28/41/34 27/39/34 32/45/34 33/47/34
f 29/36/35 28/41/35 33/47/35 34/42/35
f 34/48/36 33/49/36 38/50/36 39/51/36
f 35/52/37 34/48/37 39/51/37 40/53/37
f 32/54/38 26/55/38 37/56/38
f 36/57/39 35/52/39 40/53/39 41/58/39
f 33/49/40 32/54/40 37/56/40 38/50/40
f 39/51/41 38/50/41 43/59/41 44/60/41
f 40/53/42 39/51/42 44/60/42 45/61/42
f 37/56/43 26/62/43 42/63/43
f 41/58/44 40/53/44 45/61/44 46/64/44
f 38/50/45 37/56/45 42/63/45 43/59/45
f 46/64/46 45/61/46 50/5/46 51/10/46
f 43/59/47 42/63/47 47/7/47 48/2/47
f 44/60/48 43/59/48 48/2/48 49/1/48
f 45/61/49 44/60/49 49/1/49 50/5/49
f 42/63/50 26/65/50 47/7/50
f 46/66/51 51/67/51 5/68/51
f 46/66/51 5/68/51 10/69/51
f 41/70/51 46/66/51 10/69/51
f 15/71/51 20/72/51 10/69/51
f 20/72/51 41/70/51 10/69/51
f 31/73/51 36/74/51 20/72/51
f 31/73/51 20/72/51 25/75/51
f 20/72/51 36/74/51 41/70/51
