# Blender v2.92.0 OBJ File: 'stationv2.blend'
# www.blender.org
mtllib interloper_detail.mtl
o InterloperStruts_Cylinder.016
v 3.796067 0.707494 -3.174837
v 2.026432 -2.047869 -1.694805
v 3.753930 0.614106 -3.414104
v 1.952559 -2.211592 -2.114273
v 3.955933 0.463001 -3.478196
v 2.306698 -2.476501 -2.226635
v 4.122915 0.463001 -3.278540
v 2.599441 -2.476501 -1.876610
v 4.024113 0.614106 -3.091054
v 2.426227 -2.211592 -1.547920
v 3.777099 0.879428 -3.117249
v 3.721781 0.896804 -3.370988
v 3.946561 0.903278 -3.502053
v 4.140800 0.889904 -3.329315
v 4.036066 0.875164 -3.091493
v 4.724936 2.779975 -3.418261
v 4.725310 2.908814 -3.533527
v 4.879342 2.909834 -3.612009
v 4.974163 2.781625 -3.545247
v 4.878736 2.701368 -3.425505
v -1.846401 0.707494 -4.591352
v -0.985654 -2.047869 -2.450974
v -2.086979 0.614106 -4.625214
v -1.407421 -2.211592 -2.510339
v -2.085512 0.463001 -4.837136
v -1.404848 -2.476501 -2.881866
v -1.844027 0.463001 -4.934248
v -0.981491 -2.476501 -3.052118
v -1.696249 0.614106 -4.782345
v -0.722415 -2.211592 -2.785811
v -1.841726 0.759868 -4.579726
v -2.083474 0.849038 -4.616498
v -2.083901 0.993317 -4.833129
v -1.842416 0.993317 -4.930242
v -1.692744 0.849038 -4.773630
v -2.511882 5.281923 -2.778842
v -2.672449 5.341148 -2.803266
v -2.672732 5.436977 -2.947150
v -2.512341 5.436977 -3.011651
v -2.412930 5.341148 -2.907631
v -4.937205 0.707494 0.337228
v -2.635599 -2.047869 0.180022
v -5.043753 0.614106 0.555567
v -2.822392 -2.211592 0.562801
v -5.244849 0.463001 0.488684
v -3.174941 -2.476501 0.445546
v -5.262585 0.463001 0.229009
v -3.206035 -2.476501 -0.009701
v -5.072451 0.614106 0.135404
v -2.872704 -2.211592 -0.173804
v -4.924704 0.759868 0.336375
v -5.034381 0.849038 0.554927
v -5.240541 0.993317 0.488390
v -5.258277 0.993317 0.228715
v -5.063079 0.849038 0.134764
v -5.182832 3.161116 1.442112
v -5.255679 3.220342 1.587273
v -5.392608 3.316171 1.543079
v -5.404388 3.316171 1.370606
v -5.274740 3.220342 1.308205
v -1.204959 0.707494 4.799772
v -0.643235 -2.047869 2.562235
v -1.030230 0.614106 4.968576
v -0.336913 -2.211592 2.858171
v -1.155982 0.463001 5.139162
v -0.557372 -2.476501 3.157231
v -1.408428 0.463001 5.075785
v -0.999946 -2.476501 3.046125
v -1.438697 0.614106 4.866032
v -1.053012 -2.211592 2.678397
v -1.201907 0.759868 4.787619
v -1.027943 0.849038 4.959464
v -1.154930 0.993317 5.134973
v -1.407377 0.993317 5.071598
v -1.436410 0.849038 4.856921
v -3.023285 2.091840 5.482818
v -2.878951 2.126793 5.571315
v -2.922343 2.150931 5.736906
v -3.093494 2.130894 5.750750
v -3.155880 2.094374 5.593714
v 4.192501 0.707494 2.629196
v 2.238059 -2.047869 1.403529
v 4.407037 0.614106 2.515184
v 2.614170 -2.211592 1.203648
v 4.530414 0.463001 2.687494
v 2.830467 -2.476501 1.505732
v 4.392129 0.463001 2.908001
v 2.588036 -2.476501 1.892312
v 4.183289 0.614106 2.871971
v 2.221907 -2.211592 1.829146
v 4.181886 0.759868 2.622539
v 4.399078 0.849038 2.510192
v 4.526756 0.993317 2.685200
v 4.388472 0.993317 2.905706
v 4.175331 0.849038 2.866980
v 3.950931 2.974696 1.806813
v 4.095189 3.033922 1.732193
v 4.179990 3.129751 1.848431
v 4.088143 3.129751 1.994889
v 3.946577 3.033922 1.969168
vt 1.000000 0.500000
vt 0.800000 0.500000
vt 0.800000 1.000000
vt 1.000000 1.000000
vt 0.600000 0.500000
vt 0.600000 1.000000
vt 0.400000 0.500000
vt 0.400000 1.000000
vt 0.478254 0.324164
vt 0.391068 0.055836
vt 0.108932 0.055836
vt 0.021746 0.324164
vt 0.250000 0.490000
vt 0.200000 0.500000
vt 0.200000 1.000000
vt 0.000000 0.500000
vt 0.000000 1.000000
vt 0.800000 0.500000
vt 0.600000 0.500000
vt 0.600000 0.500000
vt 0.400000 0.500000
vt 0.400000 0.500000
vt 0.200000 0.500000
vt 0.000000 0.500000
vt 1.000000 0.500000
vt 0.750000 0.490000
vt 0.521746 0.324164
vt 0.608932 0.055836
vt 0.891068 0.055836
vt 0.978254 0.324164
vt 1.000000 0.500000
vt 0.800000 0.500000
vt 0.200000 0.500000
vt 0.000000 0.500000
vt 1.000000 0.500000
vt 0.800000 0.500000
vt 0.800000 1.000000
vt 1.000000 1.000000
vt 0.600000 0.500000
vt 0.600000 1.000000
vt 0.400000 0.500000
vt 0.400000 1.000000
vt 0.478254 0.324164
vt 0.391068 0.055836
vt 0.108932 0.055836
vt 0.021746 0.324164
vt 0.250000 0.490000
vt 0.200000 0.500000
vt 0.200000 1.000000
vt 0.000000 0.500000
vt 0.000000 1.000000
vt 0.800000 0.500000
vt 0.600000 0.500000
vt 0.600000 0.500000
vt 0.400000 0.500000
vt 0.400000 0.500000
vt 0.200000 0.500000
vt 0.000000 0.500000
vt 1.000000 0.500000
vt 0.750000 0.490000
vt 0.521746 0.324164
vt 0.608932 0.055836
vt 0.891068 0.055836
vt 0.978254 0.324164
vt 1.000000 0.500000
vt 0.800000 0.500000
vt 0.200000 0.500000
vt 0.000000 0.500000
vt 1.000000 0.500000
vt 0.800000 0.500000
vt 0.800000 1.000000
vt 1.000000 1.000000
vt 0.600000 0.500000
vt 0.600000 1.000000
vt 0.400000 0.500000
vt 0.400000 1.000000
vt 0.478254 0.324164
vt 0.391068 0.055836
vt 0.108932 0.055836
vt 0.021746 0.324164
vt 0.250000 0.490000
vt 0.200000 0.500000
vt 0.200000 1.000000
vt 0.000000 0.500000
vt 0.000000 1.000000
vt 0.800000 0.500000
vt 0.600000 0.500000
vt 0.600000 0.500000
vt 0.400000 0.500000
vt 0.400000 0.500000
vt 0.200000 0.500000
vt 0.000000 0.500000
vt 1.000000 0.500000
vt 0.750000 0.490000
vt 0.521746 0.324164
vt 0.608932 0.055836
vt 0.891068 0.055836
vt 0.978254 0.324164
vt 1.000000 0.500000
vt 0.800000 0.500000
vt 0.200000 0.500000
vt 0.000000 0.500000
vt 1.000000 0.500000
vt 0.800000 0.500000
vt 0.800000 1.000000
vt 1.000000 1.000000
vt 0.600000 0.500000
vt 0.600000 1.000000
vt 0.400000 0.500000
vt 0.400000 1.000000
vt 0.478254 0.324164
vt 0.391068 0.055836
vt 0.108932 0.055836
vt 0.021746 0.324164
vt 0.250000 0.490000
vt 0.200000 0.500000
vt 0.200000 1.000000
vt 0.000000 0.500000
vt 0.000000 1.000000
vt 0.800000 0.500000
vt 0.600000 0.500000
vt 0.600000 0.500000
vt 0.400000 0.500000
vt 0.400000 0.500000
vt 0.200000 0.500000
vt 0.000000 0.500000
vt 1.000000 0.500000
vt 0.750000 0.490000
vt 0.521746 0.324164
vt 0.608932 0.055836
vt 0.891068 0.055836
vt 0.978254 0.324164
vt 1.000000 0.500000
vt 0.800000 0.500000
vt 0.200000 0.500000
vt 0.000000 0.500000
vt 1.000000 0.500000
vt 0.800000 0.500000
vt 0.800000 1.000000
vt 1.000000 1.000000
vt 0.600000 0.500000
vt 0.600000 1.000000
vt 0.400000 0.500000
vt 0.400000 1.000000
vt 0.478254 0.324164
vt 0.391068 0.055836
vt 0.108932 0.055836
vt 0.021746 0.324164
vt 0.250000 0.490000
vt 0.200000 0.500000
vt 0.200000 1.000000
vt 0.000000 0.500000
vt 0.000000 1.000000
vt 0.800000 0.500000
vt 0.600000 0.500000
vt 0.600000 0.500000
vt 0.400000 0.500000
vt 0.400000 0.500000
vt 0.200000 0.500000
vt 0.000000 0.500000
vt 1.000000 0.500000
vt 0.750000 0.490000
vt 0.521746 0.324164
vt 0.608932 0.055836
vt 0.891068 0.055836
vt 0.978254 0.324164
vt 1.000000 0.500000
vt 0.800000 0.500000
vt 0.200000 0.500000
vt 0.000000 0.500000
vn -0.8528 0.5195 -0.0526
vn -0.4036 -0.1573 -0.9013
vn 0.6274 -0.5754 -0.5247
vn -0.4682 -0.7921 0.3916
vn 0.8157 -0.1573 0.5566
vn -0.0991 0.5195 0.8487
vn -0.4158 0.0004 -0.9095
vn 0.5166 -0.3011 -0.8015
vn -0.2424 -0.1308 0.9613
vn -0.9642 -0.1559 0.2146
vn 0.7150 -0.0669 -0.6959
vn 0.9012 -0.0068 0.4334
vn 0.3516 0.6236 0.6982
vn -0.8375 0.4538 0.3045
vn 0.8586 -0.3289 0.3933
vn -0.4794 0.1726 -0.8605
vn -0.0096 0.1724 0.9850
vn -0.3135 0.5195 0.7949
vn -0.9819 -0.1573 0.1054
vn -0.3052 -0.5754 -0.7588
vn 0.2278 -0.7921 0.5663
vn 0.7815 -0.1573 -0.6038
vn 0.7766 0.5195 0.3565
vn -1.0000 0.0067 -0.0025
vn -0.3528 0.3256 -0.8772
vn 0.7875 -0.0658 0.6128
vn -0.1440 -0.0658 0.9874
vn -0.3731 0.0081 -0.9278
vn 0.7198 0.0067 -0.6941
vn 0.2175 0.8126 0.5408
vn -0.2776 -0.3907 0.8777
vn 0.8154 0.3287 -0.4765
vn -0.9924 -0.1032 -0.0668
vn 0.8117 -0.1083 0.5739
vn 0.6591 0.5195 0.5438
vn -0.2032 -0.1573 0.9664
vn -0.8160 -0.5754 0.0557
vn 0.6090 -0.7921 -0.0416
vn -0.3327 -0.1573 -0.9298
vn 0.5790 0.5195 -0.6284
vn -0.3114 0.0067 0.9502
vn -0.9931 -0.0958 0.0678
vn 0.8261 -0.0658 -0.5596
vn 0.8946 -0.0658 0.4421
vn -0.9976 0.0081 0.0681
vn -0.4377 0.0067 -0.8991
vn 0.5815 0.8126 -0.0397
vn 0.8635 -0.1314 0.4869
vn -0.1107 0.4328 -0.8947
vn -0.5150 -0.3821 0.7673
vn 0.8435 0.2968 -0.4477
vn 0.7209 0.5195 -0.4588
vn 0.8563 -0.1573 0.4919
vn -0.1991 -0.5754 0.7933
vn 0.1486 -0.7921 -0.5921
vn -0.9871 -0.1573 0.0291
vn -0.4187 0.5195 -0.7448
vn 0.8075 0.0067 0.5898
vn -0.0695 -0.5639 0.8229
vn -0.2769 -0.0658 -0.9586
vn 0.6969 -0.0658 -0.7142
vn -0.2435 0.0081 0.9699
vn -0.9903 0.0067 0.1385
vn -0.1285 0.9760 -0.1759
vn 0.2651 0.7034 -0.6595
vn -0.3613 -0.8005 0.4782
vn 0.5138 0.8429 -0.1595
vn -0.4666 -0.1574 -0.8704
vn -0.2135 0.5195 -0.8274
vn 0.7325 -0.1573 -0.6624
vn 0.6929 -0.5754 0.4345
vn -0.5171 -0.7921 -0.3243
vn -0.2773 -0.1573 0.9478
vn -0.8378 0.5195 0.1680
vn 0.8105 0.0067 -0.5857
vn 0.8007 0.3266 0.5021
vn -0.9973 -0.0658 -0.0328
vn -0.4639 -0.0658 -0.8835
vn 0.8472 0.0081 0.5313
vn -0.1743 0.0067 0.9847
vn -0.4938 0.8126 -0.3097
vn -0.3094 -0.3569 -0.8814
vn -0.3740 0.3187 0.8709
vn 0.8349 -0.0779 -0.5449
vn -0.9949 -0.1001 0.0098
usemtl Metal
s off
f 1/1/1 3/2/1 4/3/1 2/4/1
f 3/2/2 5/5/2 6/6/2 4/3/2
f 5/5/3 7/7/3 8/8/3 6/6/3
f 4/9/4 6/10/4 8/11/4 10/12/4 2/13/4
f 7/7/5 9/14/5 10/15/5 8/8/5
f 9/14/6 1/16/6 2/17/6 10/15/6
f 3/2/7 12/18/7 13/19/7 5/5/7
f 13/19/8 18/20/8 19/21/8 14/22/8
f 9/14/9 15/23/9 11/24/9 1/16/9
f 1/1/10 11/25/10 12/18/10 3/2/10
f 5/5/11 13/19/11 14/22/11 7/7/11
f 7/7/12 14/22/12 15/23/12 9/14/12
f 16/26/13 20/27/13 19/28/13 18/29/13 17/30/13
f 11/25/14 16/31/14 17/32/14 12/18/14
f 14/22/15 19/21/15 20/33/15 15/23/15
f 12/18/16 17/32/16 18/20/16 13/19/16
f 15/23/17 20/33/17 16/34/17 11/24/17
f 21/35/18 23/36/18 24/37/18 22/38/18
f 23/36/19 25/39/19 26/40/19 24/37/19
f 25/39/20 27/41/20 28/42/20 26/40/20
f 24/43/21 26/44/21 28/45/21 30/46/21 22/47/21
f 27/41/22 29/48/22 30/49/22 28/42/22
f 29/48/23 21/50/23 22/51/23 30/49/23
f 23/36/24 32/52/24 33/53/24 25/39/24
f 33/53/25 38/54/25 39/55/25 34/56/25
f 29/48/26 35/57/26 31/58/26 21/50/26
f 21/35/27 31/59/27 32/52/27 23/36/27
f 25/39/28 33/53/28 34/56/28 27/41/28
f 27/41/29 34/56/29 35/57/29 29/48/29
f 36/60/30 40/61/30 39/62/30 38/63/30 37/64/30
f 31/59/31 36/65/31 37/66/31 32/52/31
f 34/56/32 39/55/32 40/67/32 35/57/32
f 32/52/33 37/66/33 38/54/33 33/53/33
f 35/57/34 40/67/34 36/68/34 31/58/34
f 41/69/35 43/70/35 44/71/35 42/72/35
f 43/70/36 45/73/36 46/74/36 44/71/36
f 45/73/37 47/75/37 48/76/37 46/74/37
f 44/77/38 46/78/38 48/79/38 50/80/38 42/81/38
f 47/75/39 49/82/39 50/83/39 48/76/39
f 49/82/40 41/84/40 42/85/40 50/83/40
f 43/70/41 52/86/41 53/87/41 45/73/41
f 53/87/42 58/88/42 59/89/42 54/90/42
f 49/82/43 55/91/43 51/92/43 41/84/43
f 41/69/44 51/93/44 52/86/44 43/70/44
f 45/73/45 53/87/45 54/90/45 47/75/45
f 47/75/46 54/90/46 55/91/46 49/82/46
f 56/94/47 60/95/47 59/96/47 58/97/47 57/98/47
f 51/93/48 56/99/48 57/100/48 52/86/48
f 54/90/49 59/89/49 60/101/49 55/91/49
f 52/86/50 57/100/50 58/88/50 53/87/50
f 55/91/51 60/101/51 56/102/51 51/92/51
f 61/103/52 63/104/52 64/105/52 62/106/52
f 63/104/53 65/107/53 66/108/53 64/105/53
f 65/107/54 67/109/54 68/110/54 66/108/54
f 64/111/55 66/112/55 68/113/55 70/114/55 62/115/55
f 67/109/56 69/116/56 70/117/56 68/110/56
f 69/116/57 61/118/57 62/119/57 70/117/57
f 63/104/58 72/120/58 73/121/58 65/107/58
f 73/121/59 78/122/59 79/123/59 74/124/59
f 69/116/60 75/125/60 71/126/60 61/118/60
f 61/103/61 71/127/61 72/120/61 63/104/61
f 65/107/62 73/121/62 74/124/62 67/109/62
f 67/109/63 74/124/63 75/125/63 69/116/63
f 76/128/64 80/129/64 79/130/64 78/131/64 77/132/64
f 71/127/65 76/133/65 77/134/65 72/120/65
f 74/124/66 79/123/66 80/135/66 75/125/66
f 72/120/67 77/134/67 78/122/67 73/121/67
f 75/125/68 80/135/68 76/136/68 71/126/68
f 81/137/69 83/138/69 84/139/69 82/140/69
f 83/138/70 85/141/70 86/142/70 84/139/70
f 85/141/71 87/143/71 88/144/71 86/142/71
f 84/145/72 86/146/72 88/147/72 90/148/72 82/149/72
f 87/143/73 89/150/73 90/151/73 88/144/73
f 89/150/74 81/152/74 82/153/74 90/151/74
f 83/138/75 92/154/75 93/155/75 85/141/75
f 93/155/76 98/156/76 99/157/76 94/158/76
f 89/150/77 95/159/77 91/160/77 81/152/77
f 81/137/78 91/161/78 92/154/78 83/138/78
f 85/141/79 93/155/79 94/158/79 87/143/79
f 87/143/80 94/158/80 95/159/80 89/150/80
f 96/162/81 100/163/81 99/164/81 98/165/81 97/166/81
f 91/161/82 96/167/82 97/168/82 92/154/82
f 94/158/83 99/157/83 100/169/83 95/159/83
f 92/154/84 97/168/84 98/156/84 93/155/84
f 95/159/85 100/169/85 96/170/85 91/160/85
