# Blender v2.92.0 OBJ File: 'stationv2.blend'
# www.blender.org
mtllib monolith.mtl
o Monolith_Cube.003
v -12.221767 -8.489015 1.797117
v -12.420864 -1.829045 2.372574
v -12.221767 -8.489015 -1.797117
v -12.420864 -1.829045 -2.372574
v -10.978233 -8.489015 1.797117
v -10.779137 -1.829045 2.372574
v -10.978233 -8.489015 -1.797117
v -10.779137 -1.829045 -2.372574
v -10.829888 -0.498934 -2.225885
v -12.370112 -0.498934 -2.225885
v -12.370112 -0.498934 2.225885
v -11.600000 -10.490524 0.000000
v -10.829888 -0.498934 2.225885
v -11.944149 -1.829045 -1.460300
v -12.419082 -1.782334 -1.475478
v -11.256599 -1.782334 -1.475478
v -11.255852 -1.829045 -1.460300
v -11.930083 -2.649597 -1.193686
v -10.812685 -2.649597 -1.193686
v -11.920896 -3.185596 -0.455948
v -10.834600 -3.185596 -0.455948
v -11.920896 -3.185596 0.455948
v -10.834600 -3.185596 0.455948
v -11.930083 -2.649597 1.193686
v -10.812685 -2.649597 1.193686
v -11.944149 -1.829045 1.460300
v -11.943401 -1.782334 1.475478
v -11.255852 -1.829045 1.460300
v -10.780919 -1.782334 1.475478
v -11.929528 -0.915070 1.193686
v -10.814010 -0.915070 1.193686
v -11.922872 -0.498934 0.620926
v -11.277129 -0.498934 0.620926
v -11.922872 -0.498934 -0.620926
v -11.929528 -0.915070 -1.193687
v -11.277129 -0.498934 -0.620926
v -10.814010 -0.915070 -1.193687
v -10.779137 -1.829045 -1.460300
v -10.780919 -1.782334 -1.475478
v -11.943401 -1.782334 -1.475478
v -12.420864 -1.829045 -1.460300
v -12.387316 -2.649597 -1.193686
v -11.269917 -2.649597 -1.193686
v -12.365400 -3.185596 -0.455948
v -11.279105 -3.185596 -0.455948
v -12.365400 -3.185596 0.455948
v -11.279105 -3.185596 0.455948
v -12.387316 -2.649597 1.193686
v -11.269917 -2.649597 1.193686
v -12.420864 -1.829045 1.460300
v -12.419082 -1.782334 1.475478
v -11.256599 -1.782334 1.475478
v -10.779137 -1.829045 1.460300
v -12.385991 -0.915070 1.193686
v -11.270473 -0.915070 1.193686
v -12.370112 -0.498934 0.620926
v -10.829888 -0.498934 0.620926
v -10.829888 -0.498934 -0.620926
v -12.370112 -0.498934 -0.620926
v -12.385991 -0.915070 -1.193687
v -11.270473 -0.915070 -1.193687
v -11.277376 -1.784013 -1.386204
v -11.922625 -1.784013 -1.386204
v -11.910112 -2.598804 -1.121463
v -11.289889 -2.598804 -1.121463
v -11.901480 -3.102371 -0.428361
v -11.298521 -3.102371 -0.428361
v -11.901480 -3.102371 0.428361
v -11.298521 -3.102371 0.428361
v -11.910112 -2.598804 1.121463
v -11.289889 -2.598804 1.121463
v -11.922625 -1.784013 1.386204
v -11.277376 -1.784013 1.386204
v -11.909591 -0.969223 1.121463
v -11.290411 -0.969223 1.121463
v -11.909591 -0.969223 -1.121463
v -11.290411 -0.969223 -1.121463
v -11.276674 -1.827899 -1.371945
v -11.923326 -1.827899 -1.371945
v -11.923326 -1.827899 1.371945
v -11.276674 -1.827899 1.371945
v -11.903337 -0.578266 0.583357
v -11.296665 -0.578266 0.583357
v -11.296665 -0.578266 -0.583357
v -11.903337 -0.578266 -0.583357
v -11.922872 -0.419533 0.620926
v -11.277129 -0.419533 0.620926
v -11.277129 -0.419533 -0.620926
v -11.922872 -0.419533 -0.620926
v -11.903337 -0.498865 0.583357
v -11.296665 -0.498865 0.583357
v -11.296665 -0.498865 -0.583357
v -11.903337 -0.498865 -0.583357
vt 0.994614 0.657991
vt 0.900000 0.663675
vt 0.900000 0.663675
vt 0.994614 0.657991
vt 0.600000 0.930475
vt 0.700000 0.926762
vt 0.700000 0.926762
vt 0.600000 0.930475
vt 0.400000 0.663900
vt 0.322363 0.666590
vt 0.322363 0.666590
vt 0.400000 0.663900
vt 1.000000 0.658293
vt 1.000000 0.658293
vt -0.000000 0.935858
vt 0.100000 0.930251
vt 0.100000 0.930251
vt -0.000000 0.935858
vt 0.700000 0.667388
vt 0.600000 0.663675
vt 0.600000 0.663675
vt 0.700000 0.667388
vt 0.400000 0.930251
vt 0.500000 0.935858
vt 0.500000 0.935858
vt 0.400000 0.930251
vt 0.994614 0.936160
vt 1.000000 0.935858
vt 1.000000 0.935858
vt 0.994614 0.936160
vt 0.100000 0.663900
vt -0.000000 0.658293
vt -0.000000 0.658293
vt 0.100000 0.663900
vt 0.900000 0.930475
vt 0.800000 0.667388
vt 0.800000 0.926762
vt 0.505386 0.657991
vt 0.500000 0.658293
vt 0.505386 0.936160
vt 0.322363 0.927561
vt 0.177637 0.927561
vt 0.177637 0.666590
vt 0.505386 0.657991
vt 0.900000 0.930475
vt 0.322363 0.927561
vt 0.500000 0.658293
vt 0.800000 0.667388
vt 0.322363 0.927561
vt 0.322363 0.927561
vt 0.505386 0.936160
vt 0.800000 0.926762
vt 0.177637 0.666590
vt 0.177637 0.927561
vt 0.322363 0.666590
vt 0.322363 0.666590
vt 0.177637 0.927561
vt 0.177637 0.666590
vt 0.177637 0.666590
vt 0.177637 0.927561
vt 0.375000 0.250000
vt 0.625000 0.250000
vt 0.625000 0.500000
vt 0.375000 0.500000
vt 0.375000 0.750000
vt 0.625000 0.750000
vt 0.625000 1.000000
vt 0.375000 1.000000
vt 0.375000 0.000000
vt 0.250000 0.500000
vt 0.625000 0.750000
vt 0.625000 1.000000
vt 0.625000 0.250000
vt 0.625000 0.500000
vt 0.625000 0.201936
vt 0.625000 0.000000
vt 0.625000 0.048064
vt 0.582874 0.059979
vt 0.555356 0.099428
vt 0.555356 0.150572
vt 0.582873 0.190021
vt 0.625000 0.701936
vt 0.625000 0.548064
vt 0.582873 0.559979
vt 0.555356 0.599428
vt 0.555356 0.650572
vt 0.582874 0.690021
vt 0.625000 0.047148
vt 0.625000 0.000000
vt 0.625000 0.090130
vt 0.625000 0.059174
vt 0.625000 0.159870
vt 0.625000 0.202853
vt 0.625000 0.190826
vt 0.625000 0.590130
vt 0.875000 0.500000
vt 0.875000 0.590130
vt 0.875000 0.659870
vt 0.875000 0.750000
vt 0.625000 0.659870
vt 0.625000 0.547148
vt 0.625000 0.559174
vt 0.625000 0.702852
vt 0.625000 0.690826
vt 0.994614 0.936160
vt 1.000000 0.935858
vt 1.000000 0.658293
vt 0.994614 0.657991
vt 0.900000 0.663675
vt 0.900000 0.930475
vt 0.800000 0.667388
vt 0.800000 0.926762
vt 0.700000 0.667388
vt 0.700000 0.926762
vt 0.600000 0.663675
vt 0.600000 0.930475
vt 0.505386 0.657991
vt 0.500000 0.658293
vt 0.500000 0.935858
vt 0.505386 0.936160
vt 0.400000 0.663900
vt 0.400000 0.930251
vt 0.322363 0.666590
vt 0.322363 0.927561
vt 0.177637 0.927561
vt 0.177637 0.666590
vt 0.100000 0.663900
vt 0.100000 0.930251
vt -0.000000 0.658293
vt -0.000000 0.935858
vn -0.9719 0.0575 0.2283
vn 0.9733 0.1798 -0.1427
vn -0.9749 -0.1746 -0.1382
vn -0.9697 0.0894 0.2274
vn 0.9726 -0.0576 0.2253
vn -0.9733 0.1798 -0.1427
vn 0.9726 -0.0576 -0.2253
vn 0.9697 0.0894 0.2274
vn -0.9726 -0.0576 0.2253
vn 0.0000 0.3090 0.9511
vn 0.0000 0.8090 0.5878
vn 0.0000 1.0000 0.0000
vn 0.0000 0.8090 -0.5878
vn 0.0000 0.3090 -0.9511
vn 0.0000 -0.3090 -0.9511
vn 0.0000 -0.8090 -0.5878
vn 0.0000 -0.8090 0.5878
vn 0.0000 -0.3090 0.9511
vn -0.9719 0.0575 -0.2283
vn 0.9719 0.0575 0.2283
vn 0.9749 -0.1746 -0.1382
vn -0.9697 0.0894 -0.2274
vn -0.9733 0.1798 0.1427
vn 0.8872 0.0000 -0.4614
vn 0.9697 0.0894 -0.2274
vn 0.9733 0.1797 0.1427
vn -0.9749 -0.1746 0.1382
vn 0.9719 0.0575 -0.2283
vn -0.9739 0.2272 0.0000
vn 0.9749 -0.1746 0.1382
vn -0.9726 -0.0576 -0.2253
vn 0.9738 0.2272 0.0000
vn 0.0000 0.4280 -0.9038
vn 0.0000 0.4280 0.9038
vn -0.8872 0.0000 0.4613
vn 0.0000 0.0000 1.0000
vn 0.0000 0.0000 -1.0000
vn 0.8872 0.0000 0.4614
vn -0.8872 0.0000 -0.4613
vn 0.0000 -0.0861 -0.9963
vn 0.0000 -0.0861 0.9963
vn -0.9550 -0.2967 0.0000
vn 0.0000 0.1096 0.9940
vn 0.9550 -0.2967 0.0000
vn 0.0000 -0.6681 0.7441
vn 0.0000 -0.6681 -0.7441
vn 0.0000 0.1096 -0.9940
vn -0.9996 -0.0285 -0.0000
vn 0.9996 -0.0285 0.0000
vn -0.9993 0.0381 0.0000
vn 0.9993 0.0381 -0.0000
usemtl Red_Light
s off
f 14/1/1 18/2/1 64/3/1 79/4/1
f 49/5/2 47/6/2 69/7/2 71/8/2
f 30/9/3 32/10/3 82/11/3 74/12/3
f 40/13/4 14/1/4 79/4/4 63/14/4
f 16/15/5 61/16/5 77/17/5 62/18/5
f 22/19/6 24/20/6 70/21/6 68/22/6
f 55/23/7 52/24/7 73/25/7 75/26/7
f 17/27/8 16/28/8 62/29/8 78/30/8
f 35/31/9 40/32/9 63/33/9 76/34/9
f 78/30/10 62/29/10 63/14/10 79/4/10 64/3/10 65/35/10
f 65/35/11 64/3/11 66/36/11 67/37/11
f 66/36/12 68/22/12 69/7/12 67/37/12
f 68/22/13 70/21/13 71/8/13 69/7/13
f 70/21/14 80/38/14 72/39/14 73/25/14 81/40/14 71/8/14
f 73/25/15 72/39/15 74/12/15 75/26/15
f 75/26/16 74/12/16 82/11/16 83/41/16
f 84/42/17 85/43/17 76/34/17 77/17/17
f 77/17/18 76/34/18 63/33/18 62/18/18
f 24/20/19 26/44/19 80/38/19 70/21/19
f 43/45/20 17/27/20 78/30/20 65/35/20
f 33/46/21 55/23/21 75/26/21 83/41/21
f 26/44/22 27/47/22 72/39/22 80/38/22
f 18/2/23 20/48/23 66/36/23 64/3/23
f 33/46/24 83/41/24 91/49/24 87/50/24
f 52/24/25 28/51/25 81/40/25 73/25/25
f 45/52/26 43/45/26 65/35/26 67/37/26
f 34/53/27 35/31/27 76/34/27 85/43/27
f 28/51/28 49/5/28 71/8/28 81/40/28
f 20/48/29 22/19/29 68/22/29 66/36/29
f 61/16/30 36/54/30 84/42/30 77/17/30
f 27/47/31 30/9/31 74/12/31 72/39/31
f 47/6/32 45/52/32 67/37/32 69/7/32
f 86/55/33 87/50/33 91/49/33 90/56/33
f 88/57/34 89/58/34 93/59/34 92/60/34
f 34/53/35 85/43/35 93/59/35 89/58/35
f 85/43/36 84/42/36 92/60/36 93/59/36
f 83/41/37 82/11/37 90/56/37 91/49/37
f 84/42/38 36/54/38 88/57/38 92/60/38
f 82/11/39 32/10/39 86/55/39 90/56/39
usemtl Metal
f 3/61/40 4/62/40 8/63/40 7/64/40
f 5/65/41 6/66/41 2/67/41 1/68/41
f 1/69/42 3/61/42 12/70/42
f 2/67/43 6/66/43 13/71/43 11/72/43
f 7/64/44 5/65/44 12/70/44
f 5/65/45 1/68/45 12/70/45
f 3/61/46 7/64/46 12/70/46
f 8/63/47 4/62/47 10/73/47 9/74/47
f 41/75/48 4/62/48 3/61/48 1/69/48 2/76/48 50/77/48 48/78/48 46/79/48 44/80/48 42/81/48
f 53/82/49 6/66/49 5/65/49 7/64/49 8/63/49 38/83/49 19/84/49 21/85/49 23/86/49 25/87/49
f 51/88/50 50/77/50 2/76/50 11/89/50 56/90/50 54/91/50
f 59/92/50 10/73/50 4/62/50 41/75/50 15/93/50 60/94/50
f 58/95/12 9/74/12 10/96/12 59/97/12
f 56/98/12 11/99/12 13/71/12 57/100/12
f 39/101/51 38/83/51 8/63/51 9/74/51 58/95/51 37/102/51
f 13/71/51 6/66/51 53/82/51 29/103/51 31/104/51 57/100/51
f 16/28/10 17/27/10 38/105/10 39/106/10
f 14/1/10 40/13/10 15/107/10 41/108/10
f 18/2/10 14/1/10 41/108/10 42/109/10
f 17/27/10 43/45/10 19/110/10 38/105/10
f 20/48/11 18/2/11 42/109/11 44/111/11
f 43/45/11 45/52/11 21/112/11 19/110/11
f 22/19/12 20/48/12 44/111/12 46/113/12
f 45/52/12 47/6/12 23/114/12 21/112/12
f 24/20/13 22/19/13 46/113/13 48/115/13
f 47/6/13 49/5/13 25/116/13 23/114/13
f 26/44/14 24/20/14 48/115/14 50/117/14
f 27/47/14 26/44/14 50/117/14 51/118/14
f 28/51/14 52/24/14 29/119/14 53/120/14
f 49/5/14 28/51/14 53/120/14 25/116/14
f 30/9/15 27/47/15 51/118/15 54/121/15
f 52/24/15 55/23/15 31/122/15 29/119/15
f 32/10/16 30/9/16 54/121/16 56/123/16
f 33/46/36 32/10/36 56/123/36 57/124/36
f 55/23/16 33/46/16 57/124/16 31/122/16
f 34/53/37 36/54/37 58/125/37 59/126/37
f 35/31/17 34/53/17 59/126/17 60/127/17
f 36/54/17 61/16/17 37/128/17 58/125/17
f 40/32/18 35/31/18 60/127/18 15/129/18
f 61/16/18 16/15/18 39/130/18 37/128/18
f 36/54/37 34/53/37 89/58/37 88/57/37
f 32/10/36 33/46/36 87/50/36 86/55/36
