# Blender 3.3.1
# www.blender.org
mtllib monolith.mtl
o Monolith
v -12.257939 -8.378857 1.814654
v -12.603712 -1.690060 2.355862
v -12.257939 -8.378857 -1.814654
v -12.603712 -1.690060 -2.355862
v -10.949485 -8.378857 1.814654
v -10.603712 -1.690060 2.355862
v -10.949485 -8.378857 -1.814654
v -10.603712 -1.690060 -2.355862
v -10.913704 -0.420837 -2.035208
v -12.293720 -0.420837 -2.035208
v -12.293720 -0.420837 2.035208
v -11.603712 -10.454428 0.000000
v -10.913704 -0.420837 2.035208
v -12.560045 -2.534781 1.484537
v -12.525585 -3.201379 0.567042
v -12.603712 -1.690060 1.759003
v -12.525585 -3.201379 -0.567042
v -12.560045 -2.534781 -1.484537
v -12.603712 -1.690060 -1.759003
v -10.603712 -1.690060 1.759003
v -10.681839 -3.201379 0.567042
v -10.647379 -2.534781 1.484537
v -10.603712 -1.690060 -1.759003
v -10.681839 -3.201379 -0.567042
v -10.647379 -2.534781 -1.484537
v -10.660830 -1.456202 -1.834988
v -10.660830 -1.456202 1.834988
v -10.913704 -0.420837 -1.498578
v -10.913704 -0.420837 1.498578
v -12.546595 -1.456202 1.834988
v -12.293720 -0.420837 -1.498578
v -12.293720 -0.420837 1.498578
v -12.546595 -1.456202 -1.834988
v -11.223640 -3.201660 0.567042
v -11.209433 -2.535062 1.484537
v -11.992447 -1.456483 1.834988
v -11.888191 -0.421119 1.498578
v -11.997993 -2.535062 1.484537
v -11.983786 -3.201660 0.567042
v -11.983786 -3.201660 -0.567042
v -11.997993 -2.535062 -1.484537
v -11.191430 -1.690341 1.759003
v -11.223640 -3.201660 -0.567042
v -11.191430 -1.690341 -1.759003
v -11.209433 -2.535062 -1.484537
v -11.214978 -1.456483 -1.834988
v -11.214978 -1.456483 1.834988
v -11.319234 -0.421119 1.498578
v -12.015995 -1.690341 1.759003
v -11.888191 -0.421119 -1.498578
v -11.992447 -1.456483 -1.834988
v -12.015995 -1.690341 -1.759003
v -11.319234 -0.421119 -1.498578
v -11.269930 -3.038370 0.497981
v -11.257453 -2.452958 1.303732
v -11.945103 -1.505742 1.611501
v -11.853544 -0.391045 1.316063
v -11.949972 -2.452958 1.303732
v -11.937495 -3.038370 0.497981
v -11.937495 -3.038370 -0.497981
v -11.949972 -2.452958 -1.303732
v -11.241643 -1.711118 1.544770
v -11.269930 -3.038370 -0.497981
v -11.241643 -1.711118 -1.544770
v -11.257453 -2.452958 -1.303732
v -11.262323 -1.505742 -1.611501
v -11.262323 -1.505742 1.611501
v -11.353881 -0.391045 1.316063
v -11.965783 -1.711118 1.544770
v -11.853544 -0.391045 -1.316063
v -11.945103 -1.505742 -1.611501
v -11.965783 -1.711118 -1.544770
v -11.353881 -0.391045 -1.316063
vn -0.9987 -0.0516 -0.0000
vn -0.0000 -0.0806 -0.9967
vn 0.9987 -0.0516 -0.0000
vn -0.0000 -0.0806 0.9967
vn -0.0000 -0.6582 0.7528
vn 0.9714 0.2373 -0.0000
vn -0.9714 0.2373 -0.0000
vn -0.0000 -0.6582 -0.7528
vn -0.9537 -0.3006 -0.0000
vn 0.9537 -0.3006 -0.0000
vn -0.0000 1.0000 -0.0000
vn -0.0000 0.2449 0.9695
vn -0.0000 0.2449 -0.9695
vn 0.0005 1.0000 -0.0000
vn -0.0005 1.0000 -0.0000
vn -0.0000 -0.0004 1.0000
vn 0.0002 0.3090 -0.9511
vn 0.0004 0.8090 -0.5878
vn -0.0002 0.3090 -0.9511
vn 0.9709 0.0550 -0.2329
vn -0.9795 0.0306 0.1993
vn -0.9548 0.1744 -0.2407
vn -0.9651 0.2045 0.1635
vn 0.9795 0.0306 -0.1993
vn 0.9795 0.0306 0.1993
vn -0.9621 0.2727 -0.0000
vn -0.0002 0.3090 0.9511
vn -0.0000 -0.0002 -1.0000
vn 0.0004 0.8090 0.5878
vn -0.0002 -0.3090 0.9511
vn 0.0002 0.3090 0.9511
vn -0.0004 0.8090 -0.5878
vn -0.0004 0.8090 0.5878
vn -0.0002 -0.3090 -0.9511
vn 0.0002 -0.3090 -0.9511
vn 0.0002 -0.3090 0.9511
vn -0.0000 0.3090 0.9511
vn -0.0000 0.8090 0.5878
vn -0.0000 0.8090 -0.5878
vn -0.0000 0.3090 -0.9511
vn -0.0000 -0.2562 -0.9666
vn -0.0000 -0.2562 0.9666
vn -0.9709 0.0550 0.2329
vn 0.9651 0.2045 0.1635
vn 0.9621 0.2727 -0.0000
vn 0.9651 0.2045 -0.1635
vn -0.9548 0.1744 0.2407
vn 0.9709 0.0550 0.2329
vn -0.0000 0.9867 -0.1626
vn -0.9795 0.0306 -0.1993
vn 0.9548 0.1744 0.2407
vn -0.9651 0.2045 -0.1635
vn -0.9709 0.0550 -0.2329
vn 0.9548 0.1744 -0.2407
vn -0.0000 0.9867 0.1626
vt 0.375000 1.000000
vt 0.375000 0.000000
vt 0.625000 0.000000
vt 0.625000 1.000000
vt 0.375000 0.250000
vt 0.625000 0.250000
vt 0.375000 0.750000
vt 0.625000 0.750000
vt 0.375000 0.500000
vt 0.625000 0.500000
vt 0.625000 0.500000
vt 0.875000 0.500000
vt 0.625000 0.250000
vt 0.625000 0.000000
vt 0.875000 0.750000
vt 0.625000 1.000000
vt 0.250000 0.500000
vt 0.625000 0.750000
vt 0.593428 0.044537
vt 0.568513 0.093594
vt 0.625000 0.031669
vt 0.568513 0.156406
vt 0.593428 0.205463
vt 0.625000 0.218331
vt 0.625000 0.718331
vt 0.568513 0.656406
vt 0.593428 0.705463
vt 0.625000 0.531669
vt 0.568513 0.593594
vt 0.593428 0.544537
vt 0.625000 0.525238
vt 0.625000 0.724762
vt 0.625000 0.532959
vt 0.625000 0.717041
vt 0.625000 0.025238
vt 0.875000 0.532959
vt 0.625000 0.217041
vt 0.875000 0.717041
vt 0.625000 0.032959
vt 0.625000 0.224762
vt 0.568513 0.656406
vt 0.593428 0.705463
vt 0.625000 0.025238
vt 0.625000 0.032959
vt 0.875000 0.717041
vt 0.593428 0.044537
vt 0.568513 0.093594
vt 0.568513 0.156406
vt 0.593428 0.205463
vt 0.625000 0.718331
vt 0.568513 0.593594
vt 0.625000 0.531669
vt 0.593428 0.544537
vt 0.625000 0.525238
vt 0.625000 0.724762
vt 0.625000 0.717041
vt 0.625000 0.031669
vt 0.625000 0.217041
vt 0.875000 0.532959
vt 0.625000 0.224762
vt 0.625000 0.218331
vt 0.625000 0.532959
vt 0.700000 0.500000
vt 0.700000 0.875597
vt 0.568513 0.656406
vt 0.600000 0.880291
vt 0.593428 0.705463
vt 0.500000 0.621541
vt 0.625000 0.025238
vt 0.404007 0.655993
vt 0.625000 0.032959
vt 0.875000 0.717041
vt 0.600000 0.619709
vt 0.593428 0.044537
vt 0.700000 0.500000
vt 0.700000 0.624403
vt 0.568513 0.093594
vt 0.568513 0.156406
vt 0.800000 0.624403
vt 0.800000 0.500000
vt 0.900000 0.619709
vt 0.593428 0.205463
vt 0.521682 0.886241
vt 0.625000 0.718331
vt 0.800000 0.875597
vt 0.800000 0.500000
vt 0.568513 0.593594
vt 0.978318 0.886241
vt 0.625000 0.531669
vt 0.900000 0.880291
vt 0.593428 0.544537
vt 1.000000 0.878459
vt -0.000000 0.878459
vt 0.625000 0.525238
vt 0.500000 0.878459
vt 0.625000 0.724762
vt 0.404007 0.844007
vt 0.625000 0.717041
vt 0.521682 0.613759
vt 0.625000 0.031669
vt 0.625000 0.217041
vt 0.095993 0.655993
vt 0.875000 0.532959
vt 1.000000 0.621541
vt -0.000000 0.621541
vt 0.625000 0.224762
vt 0.978318 0.613759
vt 0.625000 0.218331
vt 0.095993 0.844007
vt 0.625000 0.532959
s 0
usemtl Red_Light
f 42/50/20 35/42/20 55/67/20 62/84/20
f 50/58/21 51/60/21 71/106/21 70/101/21
f 49/57/22 36/43/22 56/69/22 69/100/22
f 41/49/23 40/48/23 60/78/23 61/82/23
f 48/56/24 47/55/24 67/96/24 68/98/24
f 46/54/25 53/62/25 73/110/25 66/94/25
f 40/48/26 39/47/26 59/77/26 60/78/26
f 61/81/37 65/90/37 64/88/37 66/92/37 71/104/37 72/107/37
f 61/81/38 60/79/38 63/85/38 65/90/38
f 60/80/11 59/75/11 54/63/11 63/86/11
f 59/76/39 58/73/39 55/66/39 54/64/39
f 55/66/40 58/73/40 69/99/40 56/68/40 67/95/40 62/83/40
f 67/95/41 56/68/41 57/70/41 68/97/41
f 70/102/42 71/105/42 66/93/42 73/109/42
f 52/61/43 41/49/43 61/82/43 72/108/43
f 43/51/44 45/53/44 65/91/44 63/87/44
f 34/41/45 43/51/45 63/87/45 54/65/45
f 35/42/46 34/41/46 54/65/46 55/67/46
f 51/60/47 52/61/47 72/108/47 71/106/47
f 45/53/48 44/52/48 64/89/48 65/91/48
f 53/62/49 50/59/49 70/103/49 73/110/49
f 36/43/50 37/44/50 57/71/50 56/69/50
f 44/52/51 46/54/51 66/94/51 64/89/51
f 39/47/52 38/46/52 58/74/52 59/77/52
f 38/46/53 49/57/53 69/100/53 58/74/53
f 47/55/54 42/50/54 62/84/54 67/96/54
f 37/45/55 48/56/55 68/98/55 57/72/55
usemtl Metal
f 4/6/1 3/5/1 1/2/1 2/3/1 16/21/1 14/19/1 15/20/1 17/22/1 18/23/1 19/24/1
f 3/5/2 4/6/2 8/10/2 7/9/2
f 20/25/3 6/8/3 5/7/3 7/9/3 8/10/3 23/28/3 25/30/3 24/29/3 21/26/3 22/27/3
f 5/7/4 6/8/4 2/4/4 1/1/4
f 5/7/5 1/1/5 12/17/5
f 8/10/6 9/11/6 28/33/6 26/31/6 23/28/6
f 29/34/6 13/18/6 6/8/6 20/25/6 27/32/6
f 16/21/7 2/3/7 11/14/7 32/39/7 30/35/7
f 31/37/7 10/13/7 4/6/7 19/24/7 33/40/7
f 3/5/8 7/9/8 12/17/8
f 1/2/9 3/5/9 12/17/9
f 7/9/10 5/7/10 12/17/10
f 32/38/11 11/15/11 13/18/11 29/34/11
f 28/33/11 9/11/11 10/12/11 31/36/11
f 2/4/12 6/8/12 13/18/12 11/16/12
f 8/10/13 4/6/13 10/13/13 9/11/13
f 17/22/14 15/20/14 39/47/14 40/48/14
f 21/26/15 24/29/15 43/51/15 34/41/15
f 28/33/16 31/36/16 50/59/16 53/62/16
f 14/19/17 16/21/17 49/57/17 38/46/17
f 16/21/17 30/35/17 36/43/17 49/57/17
f 15/20/18 14/19/18 38/46/18 39/47/18
f 20/25/19 22/27/19 35/42/19 42/50/19
f 25/30/27 23/28/27 44/52/27 45/53/27
f 32/38/28 29/34/28 48/56/28 37/45/28
f 18/23/29 17/22/29 40/48/29 41/49/29
f 31/37/30 33/40/30 51/60/30 50/58/30
f 19/24/31 18/23/31 41/49/31 52/61/31
f 22/27/32 21/26/32 34/41/32 35/42/32
f 23/28/27 26/31/27 46/54/27 44/52/27
f 27/32/19 20/25/19 42/50/19 47/55/19
f 24/29/33 25/30/33 45/53/33 43/51/33
f 33/40/31 19/24/31 52/61/31 51/60/31
f 30/35/34 32/39/34 37/44/34 36/43/34
f 29/34/35 27/32/35 47/55/35 48/56/35
f 26/31/36 28/33/36 53/62/36 46/54/36
