# Blender v2.92.0 OBJ File: ''
# www.blender.org
mtllib population_bar.mtl
o Cube_Cube.001
v -1.000000 -1.000000 0.500000
v -1.000000 1.000000 0.500000
v -1.000000 -1.000000 -0.500000
v -1.000000 1.000000 -0.500000
v 1.000000 -1.000000 0.500000
v 1.000000 1.000000 0.500000
v 1.000000 -1.000000 -0.500000
v 1.000000 1.000000 -0.500000
v -1.000000 1.000000 -0.500000
v -1.000000 -1.000000 -0.500000
v 1.000000 -1.000000 -0.500000
v 1.000000 1.000000 -0.500000
v -1.000000 1.000000 -1.500000
v -1.000000 -1.000000 -1.500000
v 1.000000 -1.000000 -1.500000
v 1.000000 1.000000 -1.500000
v -1.000000 1.000000 -2.500000
v -1.000000 -1.000000 -2.500000
v 1.000000 -1.000000 -2.500000
v 1.000000 1.000000 -2.500000
v -1.000000 1.000000 -3.500000
v -1.000000 -1.000000 -3.500000
v 1.000000 -1.000000 -3.500000
v 1.000000 1.000000 -3.500000
v -1.000000 1.000000 -4.500000
v -1.000000 -1.000000 -4.500000
v 1.000000 -1.000000 -4.500000
v 1.000000 1.000000 -4.500000
v -1.000000 1.000000 -5.500000
v -1.000000 -1.000000 -5.500000
v 1.000000 -1.000000 -5.500000
v 1.000000 1.000000 -5.500000
v -1.000000 1.000000 -6.500000
v -1.000000 -1.000000 -6.500000
v 1.000000 -1.000000 -6.500000
v 1.000000 1.000000 -6.500000
v -1.000000 1.000000 -7.500000
v -1.000000 -1.000000 -7.500000
v 1.000000 -1.000000 -7.500000
v 1.000000 1.000000 -7.500000
v -1.000000 1.000000 -7.500000
v -1.000000 -1.000000 -7.500000
v 1.000000 -1.000000 -7.500000
v 1.000000 1.000000 -7.500000
v -1.000000 1.000000 -8.500000
v -1.000000 -1.000000 -8.500000
v 1.000000 -1.000000 -8.500000
v 1.000000 1.000000 -8.500000
v -1.000000 1.000000 -9.500000
v -1.000000 -1.000000 -9.500000
v 1.000000 -1.000000 -9.500000
v 1.000000 1.000000 -9.500000
v -1.000000 1.000000 -10.500000
v -1.000000 -1.000000 -10.500000
v 1.000000 -1.000000 -10.500000
v 1.000000 1.000000 -10.500000
v -1.000000 1.000000 -11.500000
v -1.000000 -1.000000 -11.500000
v 1.000000 -1.000000 -11.500000
v 1.000000 1.000000 -11.500000
v -1.000000 1.000000 -12.500000
v -1.000000 -1.000000 -12.500000
v 1.000000 -1.000000 -12.500000
v 1.000000 1.000000 -12.500000
v -1.000000 1.000000 -13.500000
v -1.000000 -1.000000 -13.500000
v 1.000000 -1.000000 -13.500000
v 1.000000 1.000000 -13.500000
v -1.000000 1.000000 -14.500000
v -1.000000 -1.000000 -14.500000
v 1.000000 -1.000000 -14.500000
v 1.000000 1.000000 -14.500000
v -1.000000 1.000000 -15.500000
v -1.000000 -1.000000 -15.500000
v 1.000000 -1.000000 -15.500000
v 1.000000 1.000000 -15.500000
v -1.000000 1.000000 -15.660000
v -1.000000 -1.000000 -15.660000
v 1.000000 -1.000000 -15.660000
v 1.000000 1.000000 -15.660000
v 1.500000 1.000000 -0.500000
v 1.500000 -1.000000 -0.500000
v 1.500000 1.000000 -1.500000
v 1.500000 -1.000000 -1.500000
v 1.500000 1.000000 -2.500000
v 1.500000 -1.000000 -2.500000
v 1.500000 1.000000 -3.500000
v 1.500000 -1.000000 -3.500000
v 1.500000 1.000000 -4.500000
v 1.500000 -1.000000 -4.500000
v 1.500000 1.000000 -5.500000
v 1.500000 -1.000000 -5.500000
v 1.500000 1.000000 -6.500000
v 1.500000 -1.000000 -6.500000
v 1.500000 1.000000 -7.500000
v 1.500000 -1.000000 -7.500000
v 1.500000 1.000000 -8.500000
v 1.500000 -1.000000 -8.500000
v 1.500000 1.000000 -9.500000
v 1.500000 -1.000000 -9.500000
v 1.500000 1.000000 -10.500000
v 1.500000 -1.000000 -10.500000
v 1.500000 1.000000 -11.500000
v 1.500000 -1.000000 -11.500000
v 1.500000 1.000000 -12.500000
v 1.500000 -1.000000 -12.500000
v 1.500000 1.000000 -13.500000
v 1.500000 -1.000000 -13.500000
v 1.500000 1.000000 -14.500000
v 1.500000 -1.000000 -14.500000
v 1.500000 1.000000 -15.500000
v 1.500000 -1.000000 -15.500000
vt 0.375000 0.000000
vt 0.625000 0.000000
vt 0.625000 0.250000
vt 0.375000 0.250000
vt 0.875000 0.500000
vt 0.625000 0.500000
vt 0.625000 0.500000
vt 0.875000 0.500000
vt 0.375000 0.500000
vt 0.625000 0.750000
vt 0.375000 0.750000
vt 0.625000 1.000000
vt 0.375000 1.000000
vt 0.125000 0.500000
vt 0.125000 0.750000
vt 0.875000 0.750000
vt 0.375000 0.500000
vt 0.375000 0.500000
vt 0.375000 0.500000
vt 0.375000 0.500000
vt 0.625000 0.250000
vt 0.375000 0.250000
vt 0.375000 0.500000
vt 0.125000 0.500000
vt 0.875000 0.500000
vt 0.625000 0.500000
vt 0.625000 0.500000
vt 0.875000 0.500000
vt 0.125000 0.500000
vt 0.375000 0.500000
vt 0.625000 0.250000
vt 0.375000 0.250000
vt 0.375000 0.500000
vt 0.625000 0.500000
vt 0.625000 0.500000
vt 0.375000 0.500000
vt 0.625000 0.250000
vt 0.375000 0.250000
vt 0.375000 0.500000
vt 0.125000 0.500000
vt 0.125000 0.500000
vt 0.125000 0.500000
vt 0.375000 0.500000
vt 0.875000 0.500000
vt 0.625000 0.250000
vt 0.375000 0.250000
vt 0.875000 0.500000
vt 0.625000 0.500000
vt 0.625000 0.500000
vt 0.875000 0.500000
vt 0.625000 0.250000
vt 0.375000 0.250000
vt 0.375000 0.500000
vt 0.375000 0.500000
vt 0.625000 0.500000
vt 0.625000 0.250000
vt 0.375000 0.250000
vt 0.625000 0.500000
vt 0.375000 0.500000
vt 0.375000 0.500000
vt 0.625000 0.500000
vt 0.125000 0.500000
vt 0.875000 0.500000
vt 0.625000 0.500000
vt 0.875000 0.500000
vt 0.125000 0.500000
vt 0.625000 0.250000
vt 0.375000 0.250000
vt 0.625000 0.500000
vt 0.875000 0.500000
vt 0.625000 0.250000
vt 0.375000 0.250000
vt 0.625000 0.500000
vt 0.625000 0.500000
vt 0.125000 0.500000
vt 0.375000 0.500000
vt 0.375000 0.500000
vt 0.375000 0.500000
vt 0.625000 0.500000
vt 0.625000 0.250000
vt 0.375000 0.250000
vt 0.125000 0.500000
vt 0.875000 0.500000
vt 0.625000 0.500000
vt 0.875000 0.500000
vt 0.125000 0.500000
vt 0.625000 0.250000
vt 0.375000 0.250000
vt 0.375000 0.250000
vt 0.625000 0.250000
vt 0.625000 0.250000
vt 0.375000 0.250000
vt 0.375000 0.500000
vt 0.375000 0.500000
vt 0.125000 0.500000
vt 0.375000 0.500000
vt 0.625000 0.500000
vt 0.625000 0.500000
vt 0.625000 0.500000
vt 0.625000 0.500000
vt 0.375000 0.500000
vt 0.625000 0.500000
vt 0.125000 0.500000
vt 0.875000 0.500000
vt 0.875000 0.500000
vt 0.625000 0.500000
vt 0.875000 0.500000
vt 0.125000 0.500000
vt 0.375000 0.500000
vt 0.625000 0.250000
vt 0.375000 0.250000
vt 0.625000 0.250000
vt 0.375000 0.250000
vt 0.125000 0.500000
vt 0.375000 0.500000
vt 0.125000 0.500000
vt 0.125000 0.500000
vt 0.625000 0.500000
vt 0.875000 0.500000
vt 0.625000 0.250000
vt 0.375000 0.250000
vt 0.875000 0.500000
vt 0.875000 0.500000
vt 0.625000 0.250000
vt 0.375000 0.250000
vt 0.375000 0.500000
vt 0.625000 0.500000
vt 0.625000 0.250000
vt 0.375000 0.250000
vt 0.375000 0.500000
vt 0.625000 0.500000
vt 0.125000 0.500000
vt 0.375000 0.250000
vt 0.625000 0.250000
vt 0.125000 0.500000
vt 0.875000 0.500000
vt 0.625000 0.500000
vt 0.375000 0.500000
vt 0.625000 0.500000
vt 0.375000 0.500000
vt 0.375000 0.500000
vt 0.625000 0.500000
vt 0.375000 0.500000
vt 0.625000 0.500000
vt 0.625000 0.500000
vt 0.375000 0.500000
vt 0.375000 0.500000
vt 0.625000 0.500000
vt 0.625000 0.500000
vt 0.375000 0.500000
vt 0.375000 0.500000
vt 0.625000 0.500000
vt 0.375000 0.500000
vt 0.625000 0.500000
vn -1.0000 0.0000 0.0000
vn 0.0000 0.0000 1.0000
vn 1.0000 0.0000 0.0000
vn 0.0000 -1.0000 0.0000
vn 0.0000 1.0000 0.0000
vn 0.0000 0.0000 -1.0000
usemtl None
s off
f 1/1/1 2/2/1 4/3/1 3/4/1
f 4/5/2 8/6/2 12/7/2 9/8/2
f 7/9/3 8/6/3 6/10/3 5/11/3
f 5/11/2 6/10/2 2/12/2 1/13/2
f 3/14/4 7/9/4 5/11/4 1/15/4
f 8/6/5 4/5/5 2/16/5 6/10/5
f 71/17/4 75/18/4 112/19/4 110/20/4
f 3/4/2 4/3/2 9/21/2 10/22/2
f 8/6/2 7/9/2 11/23/2 12/7/2
f 7/9/2 3/14/2 10/24/2 11/23/2
f 13/25/5 16/26/5 20/27/5 17/28/5
f 11/23/4 10/24/4 14/29/4 15/30/4
f 9/8/5 12/7/5 16/26/5 13/25/5
f 10/22/1 9/21/1 13/31/1 14/32/1
f 23/33/6 24/34/6 87/35/6 88/36/6
f 14/32/1 13/31/1 17/37/1 18/38/1
f 16/26/3 15/30/3 19/39/3 20/27/3
f 15/30/4 14/29/4 18/40/4 19/39/4
f 23/33/4 22/41/4 26/42/4 27/43/4
f 19/39/4 18/40/4 22/41/4 23/33/4
f 17/28/5 20/27/5 24/34/5 21/44/5
f 18/38/1 17/37/1 21/45/1 22/46/1
f 25/47/5 28/48/5 32/49/5 29/50/5
f 21/44/5 24/34/5 28/48/5 25/47/5
f 22/46/1 21/45/1 25/51/1 26/52/1
f 24/34/3 23/33/3 27/43/3 28/48/3
f 32/49/3 31/53/3 35/54/3 36/55/3
f 26/52/1 25/51/1 29/56/1 30/57/1
f 64/58/2 63/59/2 106/60/2 105/61/2
f 27/43/4 26/42/4 30/62/4 31/53/4
f 33/63/5 36/55/5 40/64/5 37/65/5
f 31/53/4 30/62/4 34/66/4 35/54/4
f 29/50/5 32/49/5 36/55/5 33/63/5
f 30/57/1 29/56/1 33/67/1 34/68/1
f 37/65/2 40/64/2 44/69/2 41/70/2
f 34/68/1 33/67/1 37/71/1 38/72/1
f 16/26/5 12/7/5 81/73/5 83/74/5
f 35/54/4 34/66/4 38/75/4 39/76/4
f 44/69/3 43/77/3 47/78/3 48/79/3
f 38/72/2 37/71/2 41/80/2 42/81/2
f 40/64/2 39/76/2 43/77/2 44/69/2
f 39/76/2 38/75/2 42/82/2 43/77/2
f 45/83/5 48/79/5 52/84/5 49/85/5
f 43/77/4 42/82/4 46/86/4 47/78/4
f 41/70/5 44/69/5 48/79/5 45/83/5
f 42/81/1 41/80/1 45/87/1 46/88/1
f 50/89/1 49/90/1 53/91/1 54/92/1
f 46/88/1 45/87/1 49/90/1 50/89/1
f 11/23/4 15/30/4 84/93/4 82/94/4
f 47/78/4 46/86/4 50/95/4 51/96/4
f 76/97/5 72/98/5 109/99/5 111/100/5
f 52/84/3 51/96/3 55/101/3 56/102/3
f 51/96/4 50/95/4 54/103/4 55/101/4
f 49/85/5 52/84/5 56/102/5 53/104/5
f 57/105/5 60/106/5 64/58/5 61/107/5
f 55/101/4 54/103/4 58/108/4 59/109/4
f 53/104/5 56/102/5 60/106/5 57/105/5
f 54/92/1 53/91/1 57/110/1 58/111/1
f 15/30/6 16/26/6 83/74/6 84/93/6
f 58/111/1 57/110/1 61/112/1 62/113/1
f 60/106/3 59/109/3 63/59/3 64/58/3
f 59/109/4 58/108/4 62/114/4 63/59/4
f 67/115/4 66/116/4 70/117/4 71/17/4
f 63/59/4 62/114/4 66/116/4 67/115/4
f 61/107/5 64/58/5 68/118/5 65/119/5
f 62/113/1 61/112/1 65/120/1 66/121/1
f 69/122/5 72/98/5 76/97/5 73/123/5
f 65/119/5 68/118/5 72/98/5 69/122/5
f 66/121/1 65/120/1 69/124/1 70/125/1
f 68/118/3 67/115/3 71/17/3 72/98/3
f 76/97/3 75/18/3 79/126/3 80/127/3
f 70/125/1 69/124/1 73/128/1 74/129/1
f 36/55/2 35/54/2 94/130/2 93/131/2
f 71/17/4 70/117/4 74/132/4 75/18/4
f 78/133/6 77/134/6 80/127/6 79/126/6
f 75/18/4 74/132/4 78/135/4 79/126/4
f 73/123/5 76/97/5 80/127/5 77/136/5
f 74/129/1 73/128/1 77/134/1 78/133/1
f 81/73/3 82/94/3 84/93/3 83/74/3
f 85/137/3 86/138/3 88/36/3 87/35/3
f 89/139/3 90/140/3 92/141/3 91/142/3
f 93/131/3 94/130/3 96/143/3 95/144/3
f 97/145/3 98/146/3 100/147/3 99/148/3
f 101/149/3 102/150/3 104/151/3 103/152/3
f 105/61/3 106/60/3 108/153/3 107/154/3
f 109/99/3 110/20/3 112/19/3 111/100/3
f 19/39/4 23/33/4 88/36/4 86/138/4
f 24/34/5 20/27/5 85/137/5 87/35/5
f 72/98/2 71/17/2 110/20/2 109/99/2
f 51/96/6 52/84/6 99/148/6 100/147/6
f 31/53/6 32/49/6 91/142/6 92/141/6
f 12/7/2 11/23/2 82/94/2 81/73/2
f 52/84/5 48/79/5 97/145/5 99/148/5
f 32/49/5 28/48/5 89/139/5 91/142/5
f 59/109/6 60/106/6 103/152/6 104/151/6
f 39/76/6 40/64/6 95/144/6 96/143/6
f 20/27/2 19/39/2 86/138/2 85/137/2
f 55/101/4 59/109/4 104/151/4 102/150/4
f 40/64/5 36/55/5 93/131/5 95/144/5
f 47/78/4 51/96/4 100/147/4 98/146/4
f 27/43/4 31/53/4 92/141/4 90/140/4
f 60/106/5 56/102/5 101/149/5 103/152/5
f 67/115/6 68/118/6 107/154/6 108/153/6
f 48/79/2 47/78/2 98/146/2 97/145/2
f 28/48/2 27/43/2 90/140/2 89/139/2
f 63/59/4 67/115/4 108/153/4 106/60/4
f 35/54/4 39/76/4 96/143/4 94/130/4
f 68/118/5 64/58/5 105/61/5 107/154/5
f 75/18/6 76/97/6 111/100/6 112/19/6
f 56/102/2 55/101/2 102/150/2 101/149/2
