# Blender 3.3.1
# www.blender.org
mtllib precursor.mtl
o Icosphere
v 0.000000 -1.000000 0.000000
v -0.894425 -0.447215 0.000000
v -0.276385 -0.447215 -0.850640
v 0.723600 -0.447215 -0.525720
v -0.723600 0.447215 -0.525720
v 0.479493 0.763168 -0.390537
v 0.584306 0.763168 -0.246277
v 0.405562 0.818632 -0.246277
v 0.435944 0.672952 -0.850640
v 1.053984 0.672952 0.000000
v 0.000000 1.000000 0.000000
v -0.723600 0.447215 0.000000
v 0.723600 -0.447215 0.006368
v 0.031744 1.602734 -0.665486
v 0.226045 1.602734 -0.398060
v -0.105308 1.705552 -0.398060
v 0.186082 1.246307 -0.342696
v 0.260013 1.190843 -0.486956
v 0.364827 1.190843 -0.342696
v 0.076342 1.460145 -0.390906
v 0.255087 1.404681 -0.390906
v 0.150273 1.404681 -0.535166
v 0.369753 0.977006 -0.438747
v 0.295822 1.032470 -0.294487
v 0.474566 0.977006 -0.294487
v 0.240952 1.139389 -0.318592
v 0.419697 1.083925 -0.318592
v 0.314883 1.083925 -0.462852
v 0.205143 1.297762 -0.511061
v 0.131212 1.353226 -0.366801
v 0.309956 1.297762 -0.366801
v 0.183565 1.419380 -0.183799
v 0.161061 1.463231 -0.193685
v 0.256873 1.396633 -0.183799
v 0.234370 1.440483 -0.193685
v 0.465611 1.393436 -0.552059
v 0.438588 1.446091 -0.563930
v 0.386970 1.446091 -0.634974
v 0.413992 1.393436 -0.623103
v 0.419697 1.083925 -0.318592
v 0.364827 1.190843 -0.342696
v 0.260013 1.190843 -0.486956
v 0.314883 1.083925 -0.462852
v 0.293578 1.199856 -0.160877
v 0.273147 1.239668 -0.169852
v 0.360135 1.179204 -0.160877
v 0.339704 1.219015 -0.169852
v 0.133258 1.090572 -0.407866
v 0.115016 1.126119 -0.415881
v 0.139596 1.107679 -0.463843
v 0.157838 1.072132 -0.455829
v 0.424623 0.870087 -0.414642
v 0.350692 0.925551 -0.270382
v 0.529436 0.870087 -0.270382
v 0.589442 0.937785 -0.395658
v 0.566090 0.983287 -0.405917
v 0.521485 0.983287 -0.467310
v 0.544836 0.937785 -0.457051
v 0.257269 0.885937 -0.359586
v 0.241594 0.916481 -0.366473
v 0.262715 0.900636 -0.407684
v 0.278390 0.870092 -0.400798
v -0.276385 -0.447215 0.850640
v 0.723600 -0.447215 0.525720
v -0.723600 0.447215 0.525720
v 0.479493 0.763168 0.390537
v 0.584306 0.763168 0.246277
v 0.405562 0.818632 0.246277
v 0.435944 0.672952 0.850640
v 0.723600 -0.447215 -0.006368
v 0.031744 1.602734 0.665486
v 0.226045 1.602734 0.398060
v -0.105308 1.705552 0.398060
v 0.186082 1.246307 0.342696
v 0.260013 1.190843 0.486956
v 0.364827 1.190843 0.342696
v 0.076342 1.460145 0.390906
v 0.255087 1.404681 0.390906
v 0.150273 1.404681 0.535166
v 0.369753 0.977006 0.438747
v 0.295822 1.032470 0.294487
v 0.474566 0.977006 0.294487
v 0.240952 1.139389 0.318592
v 0.419697 1.083925 0.318592
v 0.314883 1.083925 0.462852
v 0.205143 1.297762 0.511061
v 0.131212 1.353226 0.366801
v 0.309956 1.297762 0.366801
v 0.183565 1.419380 0.183799
v 0.161061 1.463231 0.193685
v 0.256873 1.396633 0.183799
v 0.234370 1.440483 0.193685
v 0.465611 1.393436 0.552059
v 0.438588 1.446091 0.563930
v 0.386970 1.446091 0.634974
v 0.413992 1.393436 0.623103
v 0.419697 1.083925 0.318592
v 0.364827 1.190843 0.342696
v 0.260013 1.190843 0.486956
v 0.314883 1.083925 0.462852
v 0.293578 1.199856 0.160877
v 0.273147 1.239668 0.169852
v 0.360135 1.179204 0.160877
v 0.339704 1.219015 0.169852
v 0.133258 1.090572 0.407866
v 0.115016 1.126119 0.415881
v 0.139596 1.107679 0.463843
v 0.157838 1.072132 0.455829
v 0.424623 0.870087 0.414642
v 0.350692 0.925551 0.270382
v 0.529436 0.870087 0.270382
v 0.589442 0.937785 0.395658
v 0.566090 0.983287 0.405917
v 0.521485 0.983287 0.467310
v 0.544836 0.937785 0.457051
v 0.257269 0.885937 0.359586
v 0.241594 0.916481 0.366473
v 0.262715 0.900636 0.407684
v 0.278390 0.870092 0.400798
vn -0.4911 -0.7947 -0.3568
vn 0.1876 -0.7947 -0.5774
vn -0.7946 -0.1876 -0.5774
vn 0.3032 -0.1928 -0.9332
vn -0.9822 0.1876 -0.0000
vn -0.2990 0.1902 -0.9351
vn 0.8084 0.0372 -0.5874
vn -0.6071 0.7947 -0.0000
vn -0.2938 0.8321 -0.4705
vn -0.7885 -0.5888 -0.1777
vn 0.2897 0.9337 -0.2105
vn 0.6071 -0.7947 -0.0000
vn 0.9592 -0.2829 -0.0000
vn 0.0117 0.0378 0.9992
vn 0.8052 0.0969 -0.5850
vn -0.0000 1.0000 -0.0000
vn 0.2945 0.9491 -0.1119
vn -0.5485 0.6469 -0.5298
vn 0.5593 0.4447 0.6996
vn 0.8887 0.4584 0.0101
vn -0.8395 -0.4857 -0.2435
vn -0.5881 0.6068 -0.5347
vn 0.0801 0.2582 0.9628
vn 0.6678 0.4724 0.5752
vn 0.7785 0.2720 -0.5656
vn 0.2934 0.9456 -0.1408
vn -0.8568 -0.3555 0.3736
vn -0.2723 -0.8774 0.3951
vn 0.3053 -0.9261 -0.2218
vn -0.3091 -0.3573 -0.8813
vn -0.1321 0.9866 0.0960
vn 0.8836 0.4653 0.0526
vn -0.8449 -0.3406 0.4125
vn -0.2687 -0.8660 0.4217
vn 0.0864 -0.9143 0.3958
vn -0.5978 -0.1284 0.7913
vn -0.0260 -0.2325 -0.9722
vn -0.0364 0.9990 0.0264
vn -0.1648 -0.2966 -0.9407
vn 0.3921 -0.8747 -0.2849
vn -0.0909 -0.2632 -0.9604
vn -0.6446 -0.1623 0.7471
vn 0.0354 -0.9266 0.3744
vn -0.4911 -0.7947 0.3568
vn 0.1876 -0.7947 0.5774
vn -0.7946 -0.1876 0.5774
vn 0.3032 -0.1928 0.9332
vn -0.2990 0.1902 0.9351
vn 0.8084 0.0372 0.5874
vn -0.2938 0.8321 0.4705
vn -0.7885 -0.5888 0.1777
vn 0.2897 0.9337 0.2105
vn 0.0117 0.0378 -0.9992
vn 0.8052 0.0969 0.5850
vn 0.2945 0.9491 0.1119
vn -0.5485 0.6469 0.5298
vn 0.5593 0.4447 -0.6996
vn 0.8887 0.4584 -0.0101
vn -0.8395 -0.4857 0.2435
vn -0.5881 0.6068 0.5347
vn 0.0801 0.2582 -0.9628
vn 0.6678 0.4724 -0.5752
vn 0.7785 0.2720 0.5656
vn 0.2934 0.9456 0.1408
vn -0.8568 -0.3555 -0.3736
vn -0.2723 -0.8774 -0.3951
vn 0.3053 -0.9261 0.2218
vn -0.3091 -0.3573 0.8813
vn -0.1321 0.9866 -0.0960
vn 0.8836 0.4653 -0.0526
vn -0.8449 -0.3406 -0.4125
vn -0.2687 -0.8660 -0.4217
vn 0.0864 -0.9143 -0.3958
vn -0.5978 -0.1284 -0.7913
vn -0.0260 -0.2325 0.9722
vn -0.0364 0.9990 -0.0264
vn -0.1648 -0.2966 0.9407
vn 0.3921 -0.8747 0.2849
vn -0.0909 -0.2632 0.9604
vn -0.6446 -0.1623 -0.7471
vn 0.0354 -0.9266 -0.3744
vt 0.727273 0.000000
vt 0.545455 0.000000
vt 0.363637 0.000000
vt 0.818182 0.157461
vt 0.636364 0.157461
vt 0.454546 0.157461
vt 0.727273 0.314921
vt 0.472189 0.358357
vt 0.441354 0.358357
vt 0.456771 0.385061
vt 0.545455 0.314921
vt 0.363637 0.314921
vt 0.818182 0.472382
vt 0.636364 0.472382
vt 0.454546 0.472382
vt 0.817408 0.314921
vt 0.362536 0.157461
vt 0.472189 0.358357
vt 0.441354 0.358357
vt 0.456771 0.385061
vt 0.456771 0.385061
vt 0.472189 0.358357
vt 0.441354 0.358357
vt 0.456771 0.385061
vt 0.441354 0.358357
vt 0.472189 0.358357
vt 0.472189 0.358357
vt 0.456771 0.385061
vt 0.441354 0.358357
vt 0.456771 0.385060
vt 0.441354 0.358357
vt 0.472189 0.358357
vt 0.472189 0.358357
vt 0.456771 0.385060
vt 0.441354 0.358357
vt 0.456771 0.385060
vt 0.456771 0.385061
vt 0.441354 0.358357
vt 0.441354 0.358357
vt 0.441354 0.358357
vt 0.441354 0.358357
vt 0.472189 0.358357
vt 0.472189 0.358357
vt 0.441354 0.358357
vt 0.441354 0.358357
vt 0.472189 0.358357
vt 0.472189 0.358357
vt 0.456771 0.385060
vt 0.456771 0.385061
vt 0.441354 0.358357
vt 0.441354 0.358357
vt 0.456771 0.385060
vt 0.456771 0.385061
vt 0.472189 0.358357
vt 0.472189 0.358357
vt 0.472189 0.358357
vt 0.456771 0.385061
vt 0.441354 0.358357
vt 0.441354 0.358357
vt 0.441354 0.358357
vt 0.472189 0.358357
vt 0.472189 0.358357
vt 0.456771 0.385061
vt 0.456771 0.385061
vt 0.472189 0.358357
vt 0.472189 0.358357
vt 0.636364 0.157461
vt 0.454546 0.157461
vt 0.727273 0.314921
vt 0.472189 0.358357
vt 0.441354 0.358357
vt 0.456771 0.385061
vt 0.545455 0.314921
vt 0.362536 0.157461
vt 0.472189 0.358357
vt 0.441354 0.358357
vt 0.456771 0.385061
vt 0.456771 0.385061
vt 0.472189 0.358357
vt 0.441354 0.358357
vt 0.456771 0.385061
vt 0.441354 0.358357
vt 0.472189 0.358357
vt 0.472189 0.358357
vt 0.456771 0.385061
vt 0.441354 0.358357
vt 0.456771 0.385060
vt 0.441354 0.358357
vt 0.472189 0.358357
vt 0.472189 0.358357
vt 0.456771 0.385060
vt 0.441354 0.358357
vt 0.456771 0.385060
vt 0.456771 0.385061
vt 0.441354 0.358357
vt 0.441354 0.358357
vt 0.441354 0.358357
vt 0.441354 0.358357
vt 0.472189 0.358357
vt 0.472189 0.358357
vt 0.441354 0.358357
vt 0.441354 0.358357
vt 0.472189 0.358357
vt 0.472189 0.358357
vt 0.456771 0.385060
vt 0.456771 0.385061
vt 0.441354 0.358357
vt 0.441354 0.358357
vt 0.456771 0.385060
vt 0.456771 0.385061
vt 0.472189 0.358357
vt 0.472189 0.358357
vt 0.472189 0.358357
vt 0.456771 0.385061
vt 0.441354 0.358357
vt 0.441354 0.358357
vt 0.441354 0.358357
vt 0.472189 0.358357
vt 0.472189 0.358357
vt 0.456771 0.385061
vt 0.456771 0.385061
vt 0.472189 0.358357
vt 0.472189 0.358357
s 0
f 1/1/1 2/4/1 3/5/1
f 1/2/2 3/5/2 4/6/2
f 3/5/3 2/4/3 5/7/3
f 4/6/4 3/5/4 9/11/4
f 2/4/5 12/16/5 5/7/5
f 3/5/6 5/7/6 9/11/6
f 4/6/7 9/11/7 10/12/7
f 5/7/8 12/16/8 11/13/8
f 9/11/9 5/7/9 11/14/9
f 22/26/10 20/24/10 16/20/10 14/18/10
f 6/8/11 7/9/11 10/12/11 9/11/11
f 7/9/11 8/10/11 11/15/11 10/12/11
f 8/10/11 6/8/11 9/11/11 11/15/11
f 13/17/12 1/3/12 4/6/12
f 10/12/13 13/17/13 4/6/13
f 15/19/11 14/18/11 16/20/11
f 20/24/14 21/25/14 15/19/14 16/20/14
f 21/25/15 22/26/15 14/18/15 15/19/15
f 18/22/16 19/23/16 41/45/16 42/46/16
f 19/23/17 17/21/17 45/49/17 47/51/17
f 17/21/18 18/22/18 50/54/18 49/53/18
f 21/25/19 31/35/19 36/40/19 37/41/19
f 31/35/20 21/25/20 35/39/20 34/38/20
f 29/33/21 30/34/21 20/24/21 22/26/21
f 24/28/22 23/27/22 61/65/22 60/64/22
f 53/57/23 54/58/23 25/29/23 24/28/23
f 25/29/24 54/58/24 55/59/24 56/60/24
f 23/27/21 24/28/21 26/30/21 28/32/21
f 24/28/23 25/29/23 27/31/23 26/30/23
f 25/29/25 23/27/25 28/32/25 27/31/25
f 18/22/21 17/21/21 30/34/21 29/33/21
f 17/21/23 19/23/23 31/35/23 30/34/23
f 19/23/25 18/22/25 29/33/25 31/35/25
f 32/36/23 34/38/23 35/39/23 33/37/23
f 21/25/26 20/24/26 33/37/26 35/39/26
f 20/24/27 30/34/27 32/36/27 33/37/27
f 30/34/28 31/35/28 34/38/28 32/36/28
f 36/40/25 39/43/25 38/42/25 37/41/25
f 31/35/29 29/33/29 39/43/29 36/40/29
f 29/33/30 22/26/30 38/42/30 39/43/30
f 22/26/31 21/25/31 37/41/31 38/42/31
f 40/44/25 43/47/25 42/46/25 41/45/25
f 27/31/16 28/32/16 43/47/16 40/44/16
f 19/23/16 27/31/16 40/44/16 41/45/16
f 28/32/16 18/22/16 42/46/16 43/47/16
f 44/48/23 46/50/23 47/51/23 45/49/23
f 27/31/32 19/23/32 47/51/32 46/50/32
f 17/21/33 26/30/33 44/48/33 45/49/33
f 26/30/34 27/31/34 46/50/34 44/48/34
f 51/55/21 48/52/21 49/53/21 50/54/21
f 28/32/35 26/30/35 48/52/35 51/55/35
f 26/30/36 17/21/36 49/53/36 48/52/36
f 18/22/37 28/32/37 51/55/37 50/54/37
f 7/9/25 6/8/25 52/56/25 54/58/25
f 8/10/23 7/9/23 54/58/23 53/57/23
f 6/8/21 8/10/21 53/57/21 52/56/21
f 55/59/25 58/62/25 57/61/25 56/60/25
f 23/27/38 25/29/38 56/60/38 57/61/38
f 52/56/39 23/27/39 57/61/39 58/62/39
f 54/58/40 52/56/40 58/62/40 55/59/40
f 62/66/21 59/63/21 60/64/21 61/65/21
f 23/27/41 52/56/41 62/66/41 61/65/41
f 53/57/42 24/28/42 60/64/42 59/63/42
f 52/56/43 53/57/43 59/63/43 62/66/43
f 1/1/44 63/67/44 2/4/44
f 1/2/45 64/68/45 63/67/45
f 63/67/46 65/69/46 2/4/46
f 64/68/47 69/73/47 63/67/47
f 2/4/5 65/69/5 12/16/5
f 63/67/48 69/73/48 65/69/48
f 64/68/49 10/12/49 69/73/49
f 65/69/8 11/13/8 12/16/8
f 69/73/50 11/14/50 65/69/50
f 79/83/51 71/75/51 73/77/51 77/81/51
f 66/70/52 69/73/52 10/12/52 67/71/52
f 67/71/52 10/12/52 11/15/52 68/72/52
f 68/72/52 11/15/52 69/73/52 66/70/52
f 70/74/12 64/68/12 1/3/12
f 10/12/13 64/68/13 70/74/13
f 72/76/52 73/77/52 71/75/52
f 77/81/53 73/77/53 72/76/53 78/82/53
f 78/82/54 72/76/54 71/75/54 79/83/54
f 75/79/16 99/103/16 98/102/16 76/80/16
f 76/80/55 104/108/55 102/106/55 74/78/55
f 74/78/56 106/110/56 107/111/56 75/79/56
f 78/82/57 94/98/57 93/97/57 88/92/57
f 88/92/58 91/95/58 92/96/58 78/82/58
f 86/90/59 79/83/59 77/81/59 87/91/59
f 81/85/60 117/121/60 118/122/60 80/84/60
f 110/114/61 81/85/61 82/86/61 111/115/61
f 82/86/62 113/117/62 112/116/62 111/115/62
f 80/84/59 85/89/59 83/87/59 81/85/59
f 81/85/61 83/87/61 84/88/61 82/86/61
f 82/86/63 84/88/63 85/89/63 80/84/63
f 75/79/59 86/90/59 87/91/59 74/78/59
f 74/78/61 87/91/61 88/92/61 76/80/61
f 76/80/63 88/92/63 86/90/63 75/79/63
f 89/93/61 90/94/61 92/96/61 91/95/61
f 78/82/64 92/96/64 90/94/64 77/81/64
f 77/81/65 90/94/65 89/93/65 87/91/65
f 87/91/66 89/93/66 91/95/66 88/92/66
f 93/97/63 94/98/63 95/99/63 96/100/63
f 88/92/67 93/97/67 96/100/67 86/90/67
f 86/90/68 96/100/68 95/99/68 79/83/68
f 79/83/69 95/99/69 94/98/69 78/82/69
f 97/101/63 98/102/63 99/103/63 100/104/63
f 84/88/16 97/101/16 100/104/16 85/89/16
f 76/80/16 98/102/16 97/101/16 84/88/16
f 85/89/16 100/104/16 99/103/16 75/79/16
f 101/105/61 102/106/61 104/108/61 103/107/61
f 84/88/70 103/107/70 104/108/70 76/80/70
f 74/78/71 102/106/71 101/105/71 83/87/71
f 83/87/72 101/105/72 103/107/72 84/88/72
f 108/112/59 107/111/59 106/110/59 105/109/59
f 85/89/73 108/112/73 105/109/73 83/87/73
f 83/87/74 105/109/74 106/110/74 74/78/74
f 75/79/75 107/111/75 108/112/75 85/89/75
f 67/71/63 111/115/63 109/113/63 66/70/63
f 68/72/61 110/114/61 111/115/61 67/71/61
f 66/70/59 109/113/59 110/114/59 68/72/59
f 112/116/63 113/117/63 114/118/63 115/119/63
f 80/84/76 114/118/76 113/117/76 82/86/76
f 109/113/77 115/119/77 114/118/77 80/84/77
f 111/115/78 112/116/78 115/119/78 109/113/78
f 119/123/59 118/122/59 117/121/59 116/120/59
f 80/84/79 118/122/79 119/123/79 109/113/79
f 110/114/80 116/120/80 117/121/80 81/85/80
f 109/113/81 119/123/81 116/120/81 110/114/81
