# Blender v3.3.1 OBJ File: 'stationv2.blend'
# www.blender.org
mtllib scanner.mtl
o Icosphere.007_Icosphere.012
v 7.789702 4.323151 11.136566
v 8.001751 4.555145 11.038544
v 7.813543 4.605682 11.303907
v 7.517763 4.473378 11.245550
v 7.523175 4.341074 10.944117
v 7.822296 4.391610 10.816183
v 7.860867 4.848754 11.086946
v 7.561746 4.798218 11.214880
v 7.382290 4.634683 10.992519
v 7.570499 4.584146 10.727156
v 7.866279 4.716450 10.785513
v 7.594340 4.866677 10.894497
v 9.274309 3.979539 12.976121
v 7.676495 4.580861 10.996294
v 9.377049 4.061795 12.918188
v 7.779235 4.663116 10.938360
v 9.362226 4.194888 12.970574
v 7.764412 4.796209 10.990747
v 9.250325 4.194888 13.060884
v 7.652511 4.796209 11.081057
v 9.195990 4.061795 13.064312
v 7.598175 4.663116 11.084485
v 9.004042 2.578065 10.047480
v 7.680583 4.602052 11.040578
v 8.907776 2.567262 9.941207
v 7.584316 4.591249 10.934305
v 8.952375 2.649870 9.832283
v 7.628916 4.673857 10.825381
v 9.076206 2.711728 9.871237
v 7.752747 4.735715 10.864335
v 9.108137 2.667350 10.004235
v 7.784678 4.691337 10.997334
v 6.468764 2.578064 12.093569
v 7.718919 4.602051 11.009639
v 6.404516 2.667349 12.186187
v 7.654670 4.691336 11.102257
v 6.281258 2.711728 12.126893
v 7.531412 4.735714 11.042963
v 6.269329 2.649870 11.997629
v 7.519483 4.673857 10.913699
v 6.385214 2.567261 11.977034
v 7.635369 4.591248 10.893104
v 8.549077 1.533071 12.077494
v 8.331351 2.132079 11.807714
v 8.955217 1.657896 12.029993
v 8.737492 2.256905 11.760213
v 9.074040 1.859869 12.387590
v 8.856316 2.458878 12.117810
v 8.741338 1.859869 12.656097
v 8.523612 2.458878 12.386317
v 8.416892 1.657896 12.464447
v 8.199166 2.256905 12.194667
v 8.544939 1.512892 12.072366
v 8.971922 1.514566 12.050693
v 9.124472 1.517275 12.450078
v 8.791768 1.517275 12.718586
v 8.433598 1.514566 12.485147
v 8.549461 0.374282 12.077970
v 8.976444 0.375957 12.056295
v 9.128993 0.378666 12.455682
v 8.796290 0.378666 12.724189
v 8.438120 0.375957 12.490749
v 8.564784 2.166774 12.096958
v 10.357515 3.911868 11.363159
v 8.815863 4.325822 13.536808
v 6.393076 3.242100 13.058781
v 6.437399 2.158360 10.589691
v 8.887557 2.572315 9.541758
v 8.831379 3.179244 13.120190
v 9.777748 2.925132 11.785859
v 9.897642 4.345781 12.627308
v 9.941647 3.269359 10.174867
v 8.875390 2.102825 10.667761
v 7.344104 2.513984 12.826749
v 7.463982 3.934627 13.668202
v 7.371320 1.848711 11.311052
v 6.003918 2.604090 11.859060
v 7.535210 2.192929 9.700054
v 7.562562 2.296981 9.805107
v 6.543957 2.238100 10.650083
v 6.128462 2.682046 11.827078
v 7.485434 1.999709 11.363234
v 6.502447 3.253054 12.962456
v 7.495854 3.928132 13.521393
v 7.461722 2.579322 12.683772
v 8.838601 2.625781 9.668663
v 8.795844 2.221103 10.802771
v 9.816259 3.305089 10.249783
v 8.771458 4.267991 13.410143
v 9.775047 4.313190 12.546564
v 10.215260 3.880311 11.374458
v 9.582017 2.937531 11.776905
v 8.525230 2.276818 12.047948
v 8.757500 3.158925 12.939430
vt 0.181819 0.000000
vt 0.272728 0.157461
vt 0.090910 0.157461
vt 0.363637 0.000000
vt 0.454546 0.157461
vt 0.909091 0.000000
vt 1.000000 0.157461
vt 0.818182 0.157461
vt 0.727273 0.000000
vt 0.636364 0.157461
vt 0.545455 0.000000
vt 0.363637 0.314921
vt 0.181819 0.314921
vt 0.909091 0.314921
vt 0.727273 0.314921
vt 0.545455 0.314921
vt 0.000000 0.314921
vt 0.272728 0.472382
vt 0.090910 0.472382
vt 0.818182 0.472382
vt 0.636364 0.472382
vt 0.454546 0.472382
vt 1.000000 0.500000
vt 1.000000 1.000000
vt 0.800000 1.000000
vt 0.800000 0.500000
vt 0.600000 1.000000
vt 0.600000 0.500000
vt 0.400000 1.000000
vt 0.400000 0.500000
vt 0.478254 0.324164
vt 0.250000 0.490000
vt 0.021746 0.324164
vt 0.108932 0.055836
vt 0.391068 0.055836
vt 0.200000 1.000000
vt 0.200000 0.500000
vt 0.000000 1.000000
vt 0.000000 0.500000
vt 0.750000 0.490000
vt 0.978254 0.324164
vt 0.891068 0.055836
vt 0.608932 0.055836
vt 0.521746 0.324164
vt 1.000000 0.500000
vt 1.000000 1.000000
vt 0.800000 1.000000
vt 0.800000 0.500000
vt 0.600000 1.000000
vt 0.600000 0.500000
vt 0.400000 1.000000
vt 0.400000 0.500000
vt 0.478254 0.324164
vt 0.250000 0.490000
vt 0.021746 0.324164
vt 0.108932 0.055836
vt 0.391068 0.055836
vt 0.200000 1.000000
vt 0.200000 0.500000
vt 0.000000 1.000000
vt 0.000000 0.500000
vt 0.750000 0.490000
vt 0.978254 0.324164
vt 0.891068 0.055836
vt 0.608932 0.055836
vt 0.521746 0.324164
vt 1.000000 0.500000
vt 1.000000 1.000000
vt 0.800000 1.000000
vt 0.800000 0.500000
vt 0.600000 1.000000
vt 0.600000 0.500000
vt 0.400000 1.000000
vt 0.400000 0.500000
vt 0.478254 0.324164
vt 0.250000 0.490000
vt 0.021746 0.324164
vt 0.108932 0.055836
vt 0.391068 0.055836
vt 0.200000 1.000000
vt 0.200000 0.500000
vt 0.000000 1.000000
vt 0.000000 0.500000
vt 0.750000 0.490000
vt 0.978254 0.324164
vt 0.891068 0.055836
vt 0.608932 0.055836
vt 0.521746 0.324164
vt 1.000000 0.500000
vt 1.000000 1.000000
vt 0.800000 1.000000
vt 0.800000 0.500000
vt 0.600000 1.000000
vt 0.600000 0.500000
vt 0.400000 1.000000
vt 0.400000 0.500000
vt 0.478254 0.324164
vt 0.250000 0.490000
vt 0.021746 0.324164
vt 0.108932 0.055836
vt 0.391068 0.055836
vt 0.200000 1.000000
vt 0.200000 0.500000
vt 0.000000 1.000000
vt 0.000000 0.500000
vt 0.600000 0.500000
vt 0.800000 0.500000
vt 0.200000 0.500000
vt 0.000000 0.500000
vt 0.000000 0.500000
vt 0.200000 0.500000
vt 1.000000 0.500000
vt 0.400000 0.500000
vt 0.750000 0.490000
vt 0.978254 0.324164
vt 0.891068 0.055836
vt 0.608932 0.055836
vt 0.521746 0.324164
vt 0.400000 0.500000
vt 0.600000 0.500000
vt 0.800000 0.500000
vt 1.000000 0.500000
vt 0.181819 0.000000
vt 0.227273 0.078731
vt 0.136365 0.078731
vt 0.272728 0.157461
vt 0.318182 0.078731
vt 0.363637 0.157461
vt 0.909091 0.000000
vt 0.954545 0.078731
vt 0.863636 0.078731
vt 0.727273 0.000000
vt 0.772727 0.078731
vt 0.681818 0.078731
vt 0.545455 0.000000
vt 0.590909 0.078731
vt 0.500000 0.078731
vt 0.818182 0.157461
vt 0.818182 0.157461
vt 0.727273 0.157461
vt 0.727273 0.157461
vt 0.363637 0.157461
vt 0.272728 0.157461
vt 0.909091 0.157461
vt 0.909091 0.157461
vt 0.454546 0.157461
vt 0.454546 0.157461
vt 0.545455 0.157461
vt 0.545455 0.157461
vt 0.181819 0.157461
vt 0.181819 0.157461
vt 0.090910 0.157461
vt 0.090910 0.157461
vt 1.000000 0.157461
vt 1.000000 0.157461
vt 0.636364 0.157461
vt 0.636364 0.157461
vt 0.227273 0.078731
vt 0.136365 0.078731
vt 0.318182 0.078731
vt 0.409092 0.078731
vt 0.363637 0.000000
vt 0.954545 0.078731
vt 0.863636 0.078731
vt 0.772727 0.078731
vt 0.681818 0.078731
vt 0.590909 0.078731
vt 0.500000 0.078731
vt 0.545455 0.000000
vt 0.727273 0.000000
vt 0.909091 0.000000
vt 0.181819 0.000000
vt 0.409092 0.078731
vt 0.363637 0.000000
vn 0.7086 -0.4029 0.5793
vn 0.7203 -0.6897 -0.0741
vn 0.0602 -0.5124 0.8566
vn -0.3288 -0.8669 0.3746
vn 0.0792 -0.9765 -0.2006
vn 0.8229 -0.1628 -0.5444
vn 0.8039 0.3012 0.5128
vn -0.2452 0.1240 0.9615
vn -0.8746 -0.4496 0.1816
vn -0.2145 -0.6268 -0.7491
vn 0.8746 0.4496 -0.1816
vn 0.2145 0.6268 0.7491
vn -0.8229 0.1628 0.5444
vn -0.8039 -0.3012 -0.5128
vn 0.2452 -0.1240 -0.9615
vn 0.3288 0.8669 -0.3746
vn -0.0792 0.9765 0.2006
vn -0.7203 0.6897 0.0741
vn -0.7086 0.4029 -0.5793
vn -0.0602 0.5124 -0.8566
vn 0.3405 -0.7873 -0.5140
vn 0.7847 0.3007 -0.5420
vn 0.1445 0.9732 0.1790
vn -0.6112 0.2300 -0.7573
vn -0.6955 0.3007 0.6526
vn -0.5743 -0.7873 0.2243
vn 0.6112 -0.2300 0.7573
vn -0.5436 -0.6284 0.5563
vn -0.8047 -0.2657 -0.5310
vn 0.0463 0.4643 -0.8845
vn -0.5062 0.7742 0.3799
vn 0.8333 0.5526 -0.0157
vn 0.4687 -0.1228 0.8748
vn 0.5062 -0.7742 -0.3799
vn 0.7561 -0.1228 0.6428
vn -0.1913 0.5526 0.8112
vn -0.8743 0.4643 -0.1415
vn 0.4782 0.7742 -0.4146
vn -0.3491 -0.2656 -0.8987
vn 0.6586 -0.6285 -0.4139
vn -0.4782 -0.7742 0.4146
vn 0.0176 -0.4052 -0.9140
vn 0.9081 0.1548 -0.3892
vn 0.5436 0.5009 0.6735
vn -0.3120 0.8679 -0.3865
vn -0.5721 0.1548 0.8054
vn -0.8972 -0.4052 -0.1757
vn 0.9331 0.0685 -0.3530
vn -0.9655 -0.0051 -0.2604
vn -0.9561 -0.0997 -0.2754
vn -0.0673 -0.0997 -0.9927
vn 0.6115 0.2282 0.7577
vn -0.5421 0.0685 0.8375
vn 0.0042 -1.0000 0.0052
vn 0.6280 0.0063 0.7782
vn -0.0507 -0.0051 -0.9987
vn -0.5460 0.0020 0.8378
vn 0.9342 0.0020 -0.3568
vn 0.5458 -0.6624 0.5132
vn 0.8577 -0.5136 -0.0225
vn 0.1919 -0.7222 0.6646
vn -0.0204 -0.9156 0.4015
vn 0.2023 -0.9754 0.0876
vn -0.4712 0.8367 -0.2792
vn -0.1238 0.8954 -0.4278
vn -0.4387 0.8663 -0.2390
vn -0.2201 0.8076 -0.5471
vn -0.2737 0.7837 -0.5577
vn -0.2258 0.9464 -0.2308
vn -0.2800 0.9373 -0.2076
vn -0.4342 0.7565 -0.4890
vn -0.1248 0.9193 -0.3732
vn -0.4683 0.7657 -0.4410
vn -0.8205 0.3624 -0.4420
vn -0.7001 0.4209 -0.5767
vn -0.6280 0.3107 -0.7135
vn -0.5522 0.8189 -0.1566
vn -0.7116 0.7001 0.0594
vn -0.6450 0.7271 0.2351
vn -0.1817 0.3861 -0.9044
vn -0.0689 0.5276 -0.8467
vn 0.1209 0.5215 -0.8447
vn 0.3886 0.7654 -0.5129
vn 0.3098 0.8727 -0.3775
vn 0.3830 0.9008 -0.2046
vn 0.1023 0.9762 0.1913
vn -0.0874 0.9793 0.1825
vn -0.2038 0.9245 0.3222
vn -0.2023 0.9754 -0.0876
vn 0.0204 0.9156 -0.4015
vn -0.1919 0.7222 -0.6646
vn -0.8286 0.5598 0.0076
vn -0.5458 0.6624 -0.5132
vn 0.2096 -0.9033 -0.3744
vn -0.1488 -0.9638 -0.2211
vn -0.4244 -0.8898 0.1675
vn -0.4309 -0.7313 0.5287
vn -0.1681 -0.4918 0.8543
vn 0.0602 -0.5125 0.8566
vn 0.1863 -0.3333 0.9242
vn 0.6427 -0.7095 -0.2889
vn 0.5522 -0.8189 0.1566
vn 0.6243 -0.2593 0.7369
vn 0.8498 -0.3199 0.4189
usemtl Light
s off
f 1/1/1 2/2/1 3/3/1
f 2/2/2 1/4/2 6/5/2
f 1/6/3 3/7/3 4/8/3
f 1/9/4 4/8/4 5/10/4
f 1/11/5 5/10/5 6/5/5
f 2/2/6 6/5/6 11/12/6
f 3/3/7 2/2/7 7/13/7
f 4/8/8 3/7/8 8/14/8
f 5/10/9 4/8/9 9/15/9
f 6/5/10 5/10/10 10/16/10
f 2/2/11 11/12/11 7/13/11
f 3/3/12 7/13/12 8/17/12
f 4/8/13 8/14/13 9/15/13
f 5/10/14 9/15/14 10/16/14
f 6/5/15 10/16/15 11/12/15
f 7/13/16 11/12/16 12/18/16
f 8/17/17 7/13/17 12/19/17
f 9/15/18 8/14/18 12/20/18
f 10/16/19 9/15/19 12/21/19
f 11/12/20 10/16/20 12/22/20
usemtl Metal
f 13/23/21 14/24/21 16/25/21 15/26/21
f 15/26/22 16/25/22 18/27/22 17/28/22
f 17/28/23 18/27/23 20/29/23 19/30/23
f 16/31/24 14/32/24 22/33/24 20/34/24 18/35/24
f 19/30/25 20/29/25 22/36/25 21/37/25
f 21/37/26 22/36/26 14/38/26 13/39/26
f 13/40/27 15/41/27 17/42/27 19/43/27 21/44/27
f 23/45/28 24/46/28 26/47/28 25/48/28
f 25/48/29 26/47/29 28/49/29 27/50/29
f 27/50/30 28/49/30 30/51/30 29/52/30
f 26/53/31 24/54/31 32/55/31 30/56/31 28/57/31
f 29/52/32 30/51/32 32/58/32 31/59/32
f 31/59/33 32/58/33 24/60/33 23/61/33
f 23/62/34 25/63/34 27/64/34 29/65/34 31/66/34
f 33/67/35 34/68/35 36/69/35 35/70/35
f 35/70/36 36/69/36 38/71/36 37/72/36
f 37/72/37 38/71/37 40/73/37 39/74/37
f 36/75/38 34/76/38 42/77/38 40/78/38 38/79/38
f 39/74/39 40/73/39 42/80/39 41/81/39
f 41/81/40 42/80/40 34/82/40 33/83/40
f 33/84/41 35/85/41 37/86/41 39/87/41 41/88/41
f 43/89/42 44/90/42 46/91/42 45/92/42
f 45/92/43 46/91/43 48/93/43 47/94/43
f 47/94/44 48/93/44 50/95/44 49/96/44
f 46/97/45 44/98/45 52/99/45 50/100/45 48/101/45
f 49/96/46 50/95/46 52/102/46 51/103/46
f 51/103/47 52/102/47 44/104/47 43/105/47
f 45/92/48 47/94/48 55/106/48 54/107/48
f 57/108/49 53/109/49 58/110/49 62/111/49
f 51/103/50 43/105/50 53/109/50 57/108/50
f 43/89/51 45/92/51 54/107/51 53/112/51
f 47/94/52 49/96/52 56/113/52 55/106/52
f 49/96/53 51/103/53 57/108/53 56/113/53
f 58/114/54 59/115/54 60/116/54 61/117/54 62/118/54
f 55/106/55 56/113/55 61/119/55 60/120/55
f 53/112/56 54/107/56 59/121/56 58/122/56
f 56/113/57 57/108/57 62/111/57 61/119/57
f 54/107/58 55/106/58 60/120/58 59/121/58
usemtl Floor
f 63/123/59 70/124/59 69/125/59
f 64/126/60 70/127/60 72/128/60
f 63/129/61 69/130/61 74/131/61
f 63/132/62 74/133/62 76/134/62
f 63/135/63 76/136/63 73/137/63
f 66/138/64 83/139/64 81/140/64 77/141/64
f 72/128/65 88/142/65 91/143/65 64/126/65
f 75/144/66 84/145/66 83/139/66 66/138/66
f 68/146/67 86/147/67 88/142/67 72/128/67
f 78/148/68 79/149/68 86/147/68 68/146/68
f 71/150/69 90/151/69 89/152/69 65/153/69
f 65/154/70 89/155/70 84/145/70 75/144/70
f 67/156/71 80/157/71 79/149/71 78/148/71
f 64/126/72 91/143/72 90/151/72 71/150/72
f 77/141/73 81/140/73 80/157/73 67/156/73
f 92/158/74 90/151/74 91/143/74
f 94/159/75 90/151/75 92/158/75
f 94/159/76 89/152/76 90/151/76
f 92/160/77 87/161/77 93/162/77
f 88/142/78 87/161/78 92/160/78
f 88/142/79 86/147/79 87/161/79
f 94/163/80 84/145/80 89/155/80
f 85/164/81 84/145/81 94/163/81
f 85/164/82 83/139/82 84/145/82
f 85/165/83 81/140/83 83/139/83
f 82/166/84 81/140/84 85/165/84
f 82/166/85 80/157/85 81/140/85
f 82/167/86 79/149/86 80/157/86
f 87/168/87 79/149/87 82/167/87
f 87/168/88 86/147/88 79/149/88
f 93/169/89 87/168/89 82/167/89
f 93/170/90 82/166/90 85/165/90
f 93/171/91 85/164/91 94/163/91
f 91/143/92 88/142/92 92/160/92
f 93/172/93 94/159/93 92/158/93
f 73/137/94 78/148/94 68/146/94
f 73/137/5 76/136/5 78/148/5
f 76/136/95 67/156/95 78/148/95
f 76/134/96 77/141/96 67/156/96
f 76/134/4 74/133/4 77/141/4
f 74/133/97 66/138/97 77/141/97
f 74/131/98 75/144/98 66/138/98
f 74/131/99 69/130/99 75/144/99
f 69/130/100 65/154/100 75/144/100
f 72/128/101 73/173/101 68/146/101
f 72/128/2 70/127/2 73/173/2
f 70/127/102 63/174/102 73/173/102
f 69/125/103 71/150/103 65/153/103
f 69/125/1 70/124/1 71/150/1
f 70/124/104 64/126/104 71/150/104
