# Blender v2.92.0 OBJ File: 'planet_icons.blend'
# www.blender.org
mtllib solar_flare.mtl
o Cylinder.003_Cylinder
v 0.382683 -0.500000 -0.923880
v 0.382683 0.500000 -0.923880
v 0.555570 -0.500000 -0.831470
v 0.555570 0.500000 -0.831470
v 0.707107 -0.500000 -0.707107
v 0.707107 0.500000 -0.707107
v 0.831470 -0.500000 -0.555570
v 0.831470 0.500000 -0.555570
v 0.923880 -0.500000 -0.382683
v 0.923880 0.500000 -0.382683
v 0.980785 -0.500000 -0.195090
v 0.980785 0.500000 -0.195090
v 1.000000 -0.500000 -0.000000
v 1.000000 0.500000 -0.000000
v 0.980785 -0.500000 0.195090
v 0.980785 0.500000 0.195090
v 0.923880 -0.500000 0.382683
v 0.923880 0.500000 0.382683
v 0.831470 -0.500000 0.555570
v 0.831470 0.500000 0.555570
v 0.707107 -0.500000 0.707107
v 0.707107 0.500000 0.707107
v 0.555570 -0.500000 0.831470
v 0.555570 0.500000 0.831470
v 0.382683 -0.500000 0.923880
v 0.382683 0.500000 0.923880
v 0.195090 -0.500000 0.980785
v 0.195090 0.500000 0.980785
v -0.000000 -0.500000 1.000000
v -0.000000 0.500000 1.000000
v -0.195091 -0.500000 0.980785
v -0.195091 0.500000 0.980785
v -0.382684 -0.500000 0.923879
v -0.382684 0.500000 0.923879
v 0.292626 -0.500000 -0.511117
v 0.292626 0.500000 -0.511117
v 0.393626 -0.500000 -0.457132
v 0.393626 0.500000 -0.457132
v 0.482152 -0.500000 -0.384480
v 0.482152 0.500000 -0.384480
v 0.554804 -0.500000 -0.295953
v 0.554804 0.500000 -0.295953
v 0.608790 -0.500000 -0.194954
v 0.608790 0.500000 -0.194954
v 0.642033 -0.500000 -0.085363
v 0.642033 0.500000 -0.085363
v 0.653259 -0.500000 0.028608
v 0.653259 0.500000 0.028608
v 0.642033 -0.500000 0.142578
v 0.642033 0.500000 0.142578
v 0.608790 -0.500000 0.252169
v 0.608790 0.500000 0.252169
v 0.554804 -0.500000 0.353168
v 0.554804 0.500000 0.353168
v 0.292626 0.500000 0.568332
v 0.482152 -0.500000 0.441695
v 0.482152 0.500000 0.441695
v 0.393626 -0.500000 0.514347
v 0.393626 0.500000 0.514347
v 0.292626 -0.500000 0.568332
v 0.183035 -0.500000 0.601576
v 0.183035 0.500000 0.601576
v 0.069065 -0.500000 0.612801
v 0.069065 0.500000 0.612801
v -0.044906 -0.500000 0.601576
v -0.044906 0.500000 0.601576
v -0.154497 -0.500000 0.568332
v -0.154497 0.500000 0.568332
vt 0.937500 0.500000
vt 0.937500 1.000000
vt 0.906250 1.000000
vt 0.906250 0.500000
vt 0.875000 1.000000
vt 0.875000 0.500000
vt 0.843750 1.000000
vt 0.843750 0.500000
vt 0.812500 1.000000
vt 0.812500 0.500000
vt 0.781250 1.000000
vt 0.781250 0.500000
vt 0.750000 1.000000
vt 0.750000 0.500000
vt 0.718750 1.000000
vt 0.718750 0.500000
vt 0.687500 1.000000
vt 0.687500 0.500000
vt 0.656250 1.000000
vt 0.656250 0.500000
vt 0.625000 1.000000
vt 0.625000 0.500000
vt 0.593750 1.000000
vt 0.593750 0.500000
vt 0.562500 1.000000
vt 0.562500 0.500000
vt 0.531250 1.000000
vt 0.531250 0.500000
vt 0.500000 1.000000
vt 0.500000 0.500000
vt 0.468750 1.000000
vt 0.468750 0.500000
vt 0.437500 1.000000
vt 0.437500 0.500000
vt 0.937500 0.896404
vt 0.937500 0.603596
vt 0.906250 0.603596
vt 0.906250 0.896404
vt 0.875000 0.603596
vt 0.875000 0.896404
vt 0.843750 0.603596
vt 0.843750 0.896404
vt 0.812500 0.603596
vt 0.812500 0.896404
vt 0.781250 0.603596
vt 0.781250 0.896404
vt 0.750000 0.603596
vt 0.750000 0.896404
vt 0.718750 0.603596
vt 0.718750 0.896404
vt 0.687500 0.896404
vt 0.718750 0.603596
vt 0.687500 0.603596
vt 0.656250 0.603596
vt 0.656250 0.896404
vt 0.656250 0.896404
vt 0.656250 0.603596
vt 0.625000 0.603596
vt 0.625000 0.896404
vt 0.593750 0.603596
vt 0.593750 0.896404
vt 0.562500 0.896404
vt 0.562500 0.603596
vt 0.531250 0.603596
vt 0.531250 0.896404
vt 0.500000 0.603596
vt 0.500000 0.896404
vt 0.468750 0.603596
vt 0.468750 0.896404
vt 0.437500 0.603596
vt 0.437500 0.896404
vt 0.184849 0.092713
vt 0.158156 0.028269
vt 0.203178 0.014612
vt 0.250000 0.010000
vt 0.296822 0.014612
vt 0.341844 0.028269
vt 0.383337 0.050447
vt 0.419706 0.080294
vt 0.449553 0.116663
vt 0.471731 0.158156
vt 0.485388 0.203178
vt 0.490000 0.250000
vt 0.485388 0.296822
vt 0.471731 0.341844
vt 0.449553 0.383337
vt 0.419706 0.419706
vt 0.383337 0.449553
vt 0.341844 0.471731
vt 0.315151 0.407287
vt 0.344584 0.391555
vt 0.370383 0.370383
vt 0.391555 0.344584
vt 0.407287 0.315150
vt 0.416975 0.283213
vt 0.420247 0.250000
vt 0.416975 0.216787
vt 0.407287 0.184849
vt 0.391555 0.155416
vt 0.370382 0.129617
vt 0.344584 0.108445
vt 0.315150 0.092713
vt 0.283213 0.083025
vt 0.250000 0.079753
vt 0.216786 0.083025
vt 0.000000 0.000000
vt 0.000000 0.000000
vt 0.000000 0.000000
vt 0.815150 0.407287
vt 0.841844 0.471731
vt 0.883337 0.449553
vt 0.919706 0.419706
vt 0.949553 0.383337
vt 0.971731 0.341844
vt 0.985388 0.296822
vt 0.990000 0.250000
vt 0.985388 0.203178
vt 0.971731 0.158156
vt 0.949553 0.116663
vt 0.919706 0.080294
vt 0.883337 0.050447
vt 0.841844 0.028269
vt 0.796822 0.014612
vt 0.750000 0.010000
vt 0.703178 0.014612
vt 0.658156 0.028269
vt 0.684849 0.092713
vt 0.716786 0.083025
vt 0.750000 0.079753
vt 0.783213 0.083025
vt 0.815150 0.092713
vt 0.844584 0.108445
vt 0.870382 0.129618
vt 0.891555 0.155416
vt 0.907287 0.184850
vt 0.916975 0.216787
vt 0.920246 0.250000
vt 0.916975 0.283213
vt 0.907287 0.315151
vt 0.891555 0.344584
vt 0.870382 0.370382
vt 0.844584 0.391555
vt 0.000000 0.000000
vt 0.000000 0.000000
vt 0.000000 0.000000
vt 0.000000 0.000000
vt 0.000000 0.000000
vn 0.4714 0.0000 -0.8819
vn 0.6344 0.0000 -0.7730
vn 0.7730 0.0000 -0.6344
vn 0.8819 0.0000 -0.4714
vn 0.9569 0.0000 -0.2903
vn 0.9952 0.0000 -0.0980
vn 0.9952 0.0000 0.0980
vn 0.9569 0.0000 0.2903
vn 0.8819 0.0000 0.4714
vn 0.7730 0.0000 0.6344
vn 0.6344 0.0000 0.7730
vn 0.4714 0.0000 0.8819
vn 0.2903 0.0000 0.9569
vn 0.0980 0.0000 0.9952
vn -0.0980 0.0000 0.9952
vn -0.2903 0.0000 0.9569
vn -0.4714 0.0000 0.8819
vn -0.6344 0.0000 0.7730
vn -0.7730 0.0000 0.6344
vn -0.8819 0.0000 0.4714
vn -0.9569 0.0000 0.2903
vn -0.9952 0.0000 0.0980
vn -0.9952 0.0000 -0.0980
vn -0.9569 0.0000 -0.2903
vn -0.8819 0.0000 -0.4714
vn -0.7730 0.0000 -0.6344
vn -0.6344 0.0000 -0.7730
vn -0.4714 0.0000 -0.8819
vn -0.2903 0.0000 -0.9569
vn -0.0980 0.0000 -0.9952
vn 0.0980 0.0000 -0.9952
vn 0.2903 0.0000 -0.9569
vn 0.0000 1.0000 0.0000
vn -0.9770 0.0000 -0.2132
vn 0.0000 -1.0000 -0.0000
vn -0.8416 0.0000 -0.5401
usemtl None
s off
f 1/1/1 2/2/1 4/3/1 3/4/1
f 3/4/2 4/3/2 6/5/2 5/6/2
f 5/6/3 6/5/3 8/7/3 7/8/3
f 7/8/4 8/7/4 10/9/4 9/10/4
f 9/10/5 10/9/5 12/11/5 11/12/5
f 11/12/6 12/11/6 14/13/6 13/14/6
f 13/14/7 14/13/7 16/15/7 15/16/7
f 15/16/8 16/15/8 18/17/8 17/18/8
f 17/18/9 18/17/9 20/19/9 19/20/9
f 19/20/10 20/19/10 22/21/10 21/22/10
f 21/22/11 22/21/11 24/23/11 23/24/11
f 23/24/12 24/23/12 26/25/12 25/26/12
f 25/26/13 26/25/13 28/27/13 27/28/13
f 27/28/14 28/27/14 30/29/14 29/30/14
f 29/30/15 30/29/15 32/31/15 31/32/15
f 31/32/16 32/31/16 34/33/16 33/34/16
f 36/35/17 35/36/17 37/37/17 38/38/17
f 38/38/18 37/37/18 39/39/18 40/40/18
f 39/39/19 41/41/19 42/42/19 40/40/19
f 41/41/20 43/43/20 44/44/20 42/42/20
f 43/43/21 45/45/21 46/46/21 44/44/21
f 45/45/22 47/47/22 48/48/22 46/46/22
f 47/47/23 49/49/23 50/50/23 48/48/23
f 52/51/24 50/50/24 49/52/24 51/53/24
f 51/53/25 53/54/25 54/55/25 52/51/25
f 54/56/26 53/57/26 56/58/26 57/59/26
f 56/58/27 58/60/27 59/61/27 57/59/27
f 55/62/28 59/61/28 58/60/28 60/63/28
f 55/62/29 60/63/29 61/64/29 62/65/29
f 61/64/30 63/66/30 64/67/30 62/65/30
f 63/66/31 65/68/31 66/69/31 64/67/31
f 65/68/32 67/70/32 68/71/32 66/69/32
f 68/72/33 34/73/33 32/74/33 30/75/33 28/76/33 26/77/33 24/78/33 22/79/33 20/80/33 18/81/33 16/82/33 14/83/33 12/84/33 10/85/33 8/86/33 6/87/33 4/88/33 2/89/33 36/90/33 38/91/33 40/92/33 42/93/33 44/94/33 46/95/33 48/96/33 50/97/33 52/98/33 54/99/33 57/100/33 59/101/33 55/102/33 62/103/33 64/104/33 66/105/33
f 2/106/34 1/107/34 35/108/34
f 35/109/35 1/110/35 3/111/35 5/112/35 7/113/35 9/114/35 11/115/35 13/116/35 15/117/35 17/118/35 19/119/35 21/120/35 23/121/35 25/122/35 27/123/35 29/124/35 31/125/35 33/126/35 67/127/35 65/128/35 63/129/35 61/130/35 60/131/35 58/132/35 56/133/35 53/134/35 51/135/35 49/136/35 47/137/35 45/138/35 43/139/35 41/140/35 39/141/35 37/142/35
f 2/106/34 35/108/34 36/143/34
f 34/144/36 67/145/36 33/146/36
f 34/144/36 68/147/36 67/145/36
