# Blender v2.92.0 OBJ File: ''
# www.blender.org
mtllib timber_hearth.mtl
o Cylinder.002_Cylinder.006
v 0.000000 -0.500000 -1.000000
v 0.000000 0.500000 -1.000000
v 0.195090 -0.500000 -0.980785
v 0.195090 0.500000 -0.980785
v 0.382683 -0.500000 -0.923880
v 0.382683 0.500000 -0.923880
v 0.555570 -0.500000 -0.831470
v 0.555570 0.500000 -0.831470
v 0.707107 -0.500000 -0.707107
v 0.707107 0.500000 -0.707107
v 0.831470 -0.500000 -0.555570
v 0.831470 0.500000 -0.555570
v 0.923880 -0.500000 -0.382683
v 0.923880 0.500000 -0.382683
v 0.980785 -0.500000 -0.195090
v 0.980785 0.500000 -0.195090
v 1.000000 -0.500000 -0.000000
v 1.000000 0.500000 -0.000000
v 0.980785 -0.500000 0.195090
v 0.980785 0.500000 0.195090
v 0.756592 -0.500000 0.210908
v 0.756592 0.500000 0.210908
v 0.664182 -0.500000 0.383795
v 0.664182 0.500000 0.383795
v 0.539819 -0.500000 0.535331
v 0.539819 0.500000 0.535331
v 0.388283 -0.500000 0.659694
v 0.388283 0.500000 0.659694
v 0.215396 -0.500000 0.752104
v 0.215396 0.500000 0.752104
v 0.195090 -0.500000 0.980785
v 0.195090 0.500000 0.980785
v -0.000000 -0.500000 1.000000
v -0.000000 0.500000 1.000000
v -0.195091 -0.500000 0.980785
v -0.195091 0.500000 0.980785
v -0.382684 -0.500000 0.923879
v -0.382684 0.500000 0.923879
v -0.555571 -0.500000 0.831469
v -0.555571 0.500000 0.831469
v -0.707107 -0.500000 0.707106
v -0.707107 0.500000 0.707106
v -0.831470 -0.500000 0.555570
v -0.831470 0.500000 0.555570
v -0.923880 -0.500000 0.382683
v -0.923880 0.500000 0.382683
v -0.980785 -0.500000 0.195089
v -0.980785 0.500000 0.195089
v -1.000000 -0.500000 -0.000001
v -1.000000 0.500000 -0.000001
v -0.980785 -0.500000 -0.195091
v -0.980785 0.500000 -0.195091
v -0.923879 -0.500000 -0.382684
v -0.923879 0.500000 -0.382684
v -0.831469 -0.500000 -0.555571
v -0.831469 0.500000 -0.555571
v -0.707106 -0.500000 -0.707108
v -0.707106 0.500000 -0.707108
v -0.555569 -0.500000 -0.831470
v -0.555569 0.500000 -0.831470
v -0.382682 -0.500000 -0.923880
v -0.382682 0.500000 -0.923880
v -0.195089 -0.500000 -0.980786
v -0.195089 0.500000 -0.980786
v -0.997297 0.500000 0.555569
v -0.997297 -0.500000 0.555569
v -1.089707 -0.500000 0.382683
v -1.089707 0.500000 0.382683
v -1.146613 -0.500000 0.195089
v -1.146613 0.500000 0.195089
v -1.165827 -0.500000 -0.000001
v -1.165827 0.500000 -0.000001
v -1.146613 -0.500000 -0.195092
v -1.146613 0.500000 -0.195092
v -1.089707 -0.500000 -0.382685
v -1.089707 0.500000 -0.382685
v -0.997296 -0.500000 -0.555571
v -0.997296 0.500000 -0.555571
v -1.146613 0.500000 0.195089
v -1.146613 -0.500000 0.195089
v -1.165827 -0.500000 -0.000001
v -1.165827 0.500000 -0.000001
v -1.146613 -0.500000 -0.195092
v -1.146613 0.500000 -0.195092
v -1.089707 -0.500000 -0.382685
v -1.089707 0.500000 -0.382685
v -1.234459 0.500000 0.382682
v -1.234459 -0.500000 0.382682
v -1.291364 -0.500000 0.195089
v -1.291364 0.500000 0.195089
v -1.291364 0.500000 0.195089
v -1.291364 -0.500000 0.195089
v -1.310579 -0.500000 -0.000001
v -1.310579 0.500000 -0.000001
v -1.291364 -0.500000 -0.195092
v -1.291364 0.500000 -0.195092
v -1.234458 -0.500000 -0.382685
v -1.234458 0.500000 -0.382685
v -1.409670 0.500000 0.195089
v -1.409670 -0.500000 0.195089
v -1.428884 -0.500000 -0.000001
v -1.428884 0.500000 -0.000001
v -1.409669 -0.500000 -0.195092
v -1.409669 0.500000 -0.195092
v 0.446582 0.500000 -1.001740
v 0.446582 -0.500000 -1.001740
v 0.619468 -0.500000 -0.909330
v 0.619468 0.500000 -0.909330
v 0.771005 -0.500000 -0.784967
v 0.771005 0.500000 -0.784967
v 0.895368 -0.500000 -0.633430
v 0.895368 0.500000 -0.633430
v 0.666588 0.500000 -0.966745
v 0.666588 -0.500000 -0.966745
v 0.818125 -0.500000 -0.842382
v 0.818125 0.500000 -0.842382
v -0.007188 -0.500000 -1.072983
v 0.187902 -0.500000 -1.053768
v 0.187902 0.500000 -1.053768
v -0.007188 0.500000 -1.072983
v -0.389870 0.500000 -0.996863
v -0.389870 -0.500000 -0.996863
v -0.202277 -0.500000 -1.053769
v -0.202277 0.500000 -1.053769
v -0.018132 -0.500000 -1.184102
v -0.018132 0.500000 -1.184102
v -0.213221 0.500000 -1.164888
v -0.213221 -0.500000 -1.164888
vt 0.062500 0.500000
vt 0.062500 1.000000
vt 0.062500 1.000000
vt 0.062500 0.500000
vt 0.968750 0.500000
vt 0.968750 1.000000
vt 0.937500 1.000000
vt 0.937500 0.500000
vt 0.937500 1.000000
vt 0.937500 0.500000
vt 0.341844 0.471731
vt 0.383337 0.449553
vt 0.383337 0.449553
vt 0.341844 0.471731
vt 0.919706 0.419706
vt 0.883337 0.449553
vt 0.883337 0.449553
vt 0.919706 0.419706
vt 0.843750 0.500000
vt 0.843750 1.000000
vt 0.812500 1.000000
vt 0.812500 0.500000
vt 0.781250 1.000000
vt 0.781250 0.500000
vt 0.750000 1.000000
vt 0.750000 0.500000
vt 0.718750 1.000000
vt 0.718750 0.500000
vt 0.687500 1.000000
vt 0.687500 0.500000
vt 0.656250 1.000000
vt 0.656250 0.500000
vt 0.625000 1.000000
vt 0.625000 0.500000
vt 0.593750 1.000000
vt 0.593750 0.500000
vt 0.562500 1.000000
vt 0.562500 0.500000
vt 0.531250 1.000000
vt 0.531250 0.500000
vt 0.500000 1.000000
vt 0.500000 0.500000
vt 0.468750 1.000000
vt 0.468750 0.500000
vt 0.437500 1.000000
vt 0.437500 0.500000
vt 0.406250 1.000000
vt 0.406250 0.500000
vt 0.375000 1.000000
vt 0.375000 0.500000
vt 0.343750 1.000000
vt 0.343750 0.500000
vt 0.014612 0.296822
vt 0.028269 0.341844
vt 0.028269 0.341844
vt 0.014612 0.296822
vt 0.528269 0.341844
vt 0.514612 0.296822
vt 0.514612 0.296822
vt 0.528269 0.341844
vt 0.028269 0.158156
vt 0.014611 0.203179
vt 0.014611 0.203179
vt 0.028269 0.158156
vt 0.514611 0.203179
vt 0.528269 0.158156
vt 0.528269 0.158156
vt 0.514611 0.203179
vt 0.010000 0.250000
vt 0.010000 0.250000
vt 0.156250 1.000000
vt 0.156250 0.500000
vt 0.156250 0.500000
vt 0.156250 1.000000
vt 0.125000 1.000000
vt 0.125000 0.500000
vt 0.093750 1.000000
vt 0.093750 0.500000
vt 0.296822 0.485388
vt 0.250000 0.490000
vt 0.203179 0.485389
vt 0.158156 0.471731
vt 0.116663 0.449553
vt 0.080295 0.419706
vt 0.050447 0.383337
vt 0.050447 0.116663
vt 0.080294 0.080294
vt 0.116663 0.050447
vt 0.158156 0.028269
vt 0.203178 0.014612
vt 0.250000 0.010000
vt 0.296822 0.014612
vt 0.341844 0.028269
vt 0.383337 0.050447
vt 0.419706 0.080294
vt 0.449553 0.116663
vt 0.471731 0.158156
vt 0.485388 0.203178
vt 0.490000 0.250000
vt 0.485388 0.296822
vt 0.471731 0.341844
vt 0.449553 0.383337
vt 0.419706 0.419706
vt 0.203179 0.485389
vt 0.158156 0.471731
vt 0.750000 0.490000
vt 0.703179 0.485389
vt 0.703179 0.485389
vt 0.750000 0.490000
vt 0.796822 0.485388
vt 0.841844 0.471731
vt 0.949553 0.383337
vt 0.971731 0.341844
vt 0.985388 0.296822
vt 0.990000 0.250000
vt 0.985388 0.203178
vt 0.971731 0.158156
vt 0.949553 0.116663
vt 0.919706 0.080294
vt 0.883337 0.050447
vt 0.841844 0.028269
vt 0.796822 0.014612
vt 0.750000 0.010000
vt 0.703178 0.014612
vt 0.658156 0.028269
vt 0.616663 0.050447
vt 0.580294 0.080294
vt 0.550447 0.116663
vt 0.510000 0.250000
vt 0.550447 0.383337
vt 0.580295 0.419706
vt 0.616663 0.449553
vt 0.658156 0.471731
vt 0.343750 0.500000
vt 0.343750 1.000000
vt 0.312500 1.000000
vt 0.312500 0.500000
vt 0.514612 0.296822
vt 0.510000 0.250000
vt 0.510000 0.250000
vt 0.514612 0.296822
vt 0.510000 0.250000
vt 0.514611 0.203179
vt 0.014612 0.296822
vt 0.010000 0.250000
vt 0.528269 0.341844
vt 0.187500 0.500000
vt 0.187500 1.000000
vt 0.550447 0.116663
vt 0.550447 0.383337
vt 0.050447 0.116663
vt 0.050447 0.383337
vt 0.528269 0.341844
vt 0.281250 0.500000
vt 0.281250 1.000000
vt 0.281250 1.000000
vt 0.281250 0.500000
vt 0.528269 0.158156
vt 0.514611 0.203179
vt 0.028269 0.341844
vt 0.014611 0.203179
vt 0.281250 0.500000
vt 0.281250 1.000000
vt 0.187500 0.500000
vt 0.187500 1.000000
vt 0.312500 0.500000
vt 0.312500 1.000000
vt 0.281250 1.000000
vt 0.281250 0.500000
vt 0.514611 0.203179
vt 0.514611 0.203179
vt 0.510000 0.250000
vt 0.010000 0.250000
vt 0.014612 0.296822
vt 0.014612 0.296822
vt 0.010000 0.250000
vt 0.218750 0.500000
vt 0.218750 1.000000
vt 0.187500 1.000000
vt 0.187500 0.500000
vt 0.014611 0.203179
vt 0.028269 0.158156
vt 0.028269 0.341844
vt 0.014611 0.203179
vt 0.281250 0.500000
vt 0.281250 1.000000
vt 0.250000 1.000000
vt 0.250000 0.500000
vt 0.218750 1.000000
vt 0.218750 0.500000
vt 0.514612 0.296822
vt 0.014611 0.203179
vt 0.906250 1.000000
vt 0.906250 0.500000
vt 0.875000 1.000000
vt 0.875000 0.500000
vt 0.875000 0.500000
vt 0.875000 1.000000
vt 0.843750 1.000000
vt 0.843750 0.500000
vt 0.949553 0.383337
vt 0.419706 0.419706
vt 0.841844 0.471731
vt 0.449553 0.383337
vt 0.906250 0.500000
vt 0.906250 1.000000
vt 0.883337 0.449553
vt 0.919706 0.419706
vt 0.419706 0.419706
vt 0.383337 0.449553
vt 1.000000 0.500000
vt 1.000000 1.000000
vt 0.968750 1.000000
vt 0.968750 0.500000
vt 0.031250 1.000000
vt 0.031250 0.500000
vt 0.703179 0.485389
vt 0.750000 0.490000
vt 0.796822 0.485388
vt 0.250000 0.490000
vt 0.658156 0.471731
vt 0.296822 0.485388
vt 0.031250 0.500000
vt 0.031250 1.000000
vt 0.000000 1.000000
vt 0.000000 0.500000
vt 1.000000 0.500000
vt 1.000000 1.000000
vt 0.250000 0.490000
vt 0.203179 0.485389
vn -0.9952 0.0000 0.0980
vn 0.2903 0.0000 -0.9569
vn -0.7730 0.0000 -0.6344
vn 0.0000 1.0000 0.0000
vn 0.0000 -1.0000 0.0000
vn 0.8819 0.0000 -0.4714
vn 0.9569 0.0000 -0.2903
vn 0.9952 0.0000 -0.0980
vn 0.9952 0.0000 0.0980
vn 0.0704 0.0000 0.9975
vn 0.8819 0.0000 0.4714
vn 0.7730 0.0000 0.6344
vn 0.6344 0.0000 0.7730
vn 0.4714 0.0000 0.8819
vn 0.9961 0.0000 0.0884
vn 0.0980 0.0000 0.9952
vn -0.0980 0.0000 0.9952
vn -0.2903 0.0000 0.9569
vn -0.4714 0.0000 0.8819
vn -0.6344 0.0000 0.7730
vn -0.7730 0.0000 0.6344
vn 0.0000 0.0000 -1.0000
vn -0.6344 0.0000 -0.7730
vn -0.4714 0.0000 -0.8819
vn -0.8819 0.0000 0.4714
vn 0.0000 0.0000 1.0000
vn -0.8819 0.0000 -0.4714
vn -0.9569 0.0000 0.2903
vn -0.9569 0.0000 -0.2903
vn -0.9952 0.0000 -0.0980
vn 0.4714 0.0000 -0.8819
vn 0.7730 0.0000 -0.6344
vn 0.6344 0.0000 -0.7730
vn 0.0980 0.0000 -0.9952
vn -0.2903 0.0000 -0.9569
vn -0.0980 0.0000 -0.9952
usemtl None
s off
f 61/1/1 62/2/1 121/3/1 122/4/1
f 3/5/2 4/6/2 6/7/2 5/8/2
f 5/8/3 6/7/3 105/9/3 106/10/3
f 6/11/4 8/12/4 108/13/4 105/14/4
f 9/15/5 7/16/5 107/17/5 109/18/5
f 11/19/6 12/20/6 14/21/6 13/22/6
f 13/22/7 14/21/7 16/23/7 15/24/7
f 15/24/8 16/23/8 18/25/8 17/26/8
f 17/26/9 18/25/9 20/27/9 19/28/9
f 19/28/10 20/27/10 22/29/10 21/30/10
f 21/30/11 22/29/11 24/31/11 23/32/11
f 23/32/12 24/31/12 26/33/12 25/34/12
f 25/34/13 26/33/13 28/35/13 27/36/13
f 27/36/14 28/35/14 30/37/14 29/38/14
f 29/38/15 30/37/15 32/39/15 31/40/15
f 31/40/16 32/39/16 34/41/16 33/42/16
f 33/42/17 34/41/17 36/43/17 35/44/17
f 35/44/18 36/43/18 38/45/18 37/46/18
f 37/46/19 38/45/19 40/47/19 39/48/19
f 39/48/20 40/47/20 42/49/20 41/50/20
f 41/50/21 42/49/21 44/51/21 43/52/21
f 52/53/4 54/54/4 76/55/4 74/56/4
f 53/57/5 51/58/5 73/59/5 75/60/5
f 46/61/4 48/62/4 70/63/4 68/64/4
f 47/65/5 45/66/5 67/67/5 69/68/5
f 50/69/4 52/53/4 74/56/4 72/70/4
f 56/71/22 55/72/22 77/73/22 78/74/22
f 55/72/3 56/71/3 58/75/3 57/76/3
f 57/76/23 58/75/23 60/77/23 59/78/23
f 59/78/24 60/77/24 62/2/24 61/1/24
f 4/79/4 2/80/4 64/81/4 62/82/4 60/83/4 58/84/4 56/85/4 54/54/4 52/53/4 50/69/4 48/62/4 46/61/4 44/86/4 42/87/4 40/88/4 38/89/4 36/90/4 34/91/4 32/92/4 30/93/4 28/94/4 26/95/4 24/96/4 22/97/4 20/98/4 18/99/4 16/100/4 14/101/4 12/102/4 10/103/4 8/12/4 6/11/4
f 62/82/4 64/81/4 124/104/4 121/105/4
f 1/106/5 63/107/5 123/108/5 117/109/5
f 1/106/5 3/110/5 5/111/5 7/16/5 9/15/5 11/112/5 13/113/5 15/114/5 17/115/5 19/116/5 21/117/5 23/118/5 25/119/5 27/120/5 29/121/5 31/122/5 33/123/5 35/124/5 37/125/5 39/126/5 41/127/5 43/128/5 45/66/5 47/65/5 49/129/5 51/58/5 53/57/5 55/130/5 57/131/5 59/132/5 61/133/5 63/107/5
f 66/134/25 65/135/25 68/136/25 67/137/25
f 83/138/5 81/139/5 93/140/5 95/141/5
f 71/142/26 69/68/26 80/143/26 81/139/26
f 72/70/26 74/56/26 84/144/26 82/145/26
f 75/60/26 73/59/26 83/138/26 85/146/26
f 75/147/27 76/148/27 78/74/27 77/73/27
f 49/129/5 47/65/5 69/68/5 71/142/5
f 43/52/26 44/51/26 65/135/26 66/134/26
f 48/62/4 50/69/4 72/70/4 70/63/4
f 45/66/5 43/128/5 66/149/5 67/67/5
f 55/130/5 53/57/5 75/60/5 77/150/5
f 44/86/4 46/61/4 68/64/4 65/151/4
f 54/54/4 56/85/4 78/152/4 76/55/4
f 51/58/5 49/129/5 71/142/5 73/59/5
f 85/146/5 83/138/5 95/141/5 97/153/5
f 80/154/26 79/155/26 91/156/26 92/157/26
f 69/68/5 67/67/5 88/158/5 89/159/5
f 74/56/26 76/55/26 86/160/26 84/144/26
f 73/59/26 71/142/26 81/139/26 83/138/26
f 70/63/26 72/70/26 82/145/26 79/161/26
f 69/162/26 70/163/26 79/155/26 80/154/26
f 76/148/26 75/147/26 85/164/26 86/165/26
f 88/166/28 87/167/28 90/168/28 89/169/28
f 93/140/5 92/170/5 100/171/5 101/172/5
f 94/173/4 96/174/4 104/175/4 102/176/4
f 95/177/29 96/178/29 98/179/29 97/180/29
f 68/64/4 70/63/4 90/181/4 87/182/4
f 81/139/5 80/143/5 92/170/5 93/140/5
f 84/144/4 86/160/4 98/183/4 96/174/4
f 82/145/4 84/144/4 96/174/4 94/173/4
f 70/163/22 69/162/22 89/169/22 90/168/22
f 79/161/4 82/145/4 94/173/4 91/184/4
f 86/165/22 85/164/22 97/180/22 98/179/22
f 67/137/26 68/136/26 87/167/26 88/166/26
f 100/185/1 99/186/1 102/187/1 101/188/1
f 101/188/30 102/187/30 104/189/30 103/190/30
f 96/178/22 95/177/22 103/190/22 104/189/22
f 95/141/5 93/140/5 101/172/5 103/191/5
f 91/184/4 94/173/4 102/176/4 99/192/4
f 92/157/26 91/156/26 99/186/26 100/185/26
f 106/10/31 105/9/31 108/193/31 107/194/31
f 110/195/12 109/196/12 115/197/12 116/198/12
f 109/196/32 110/195/32 112/199/32 111/200/32
f 12/20/12 11/19/12 111/200/12 112/199/12
f 11/112/5 9/15/5 109/18/5 111/201/5
f 8/12/4 10/103/4 110/202/4 108/13/4
f 7/16/5 5/111/5 106/203/5 107/17/5
f 10/103/4 12/102/4 112/204/4 110/202/4
f 114/205/33 113/206/33 116/198/33 115/197/33
f 109/18/5 107/17/5 114/207/5 115/208/5
f 108/13/4 110/202/4 116/209/4 113/210/4
f 107/194/3 108/193/3 113/206/3 114/205/3
f 117/211/34 120/212/34 119/213/34 118/214/34
f 122/4/35 121/3/35 124/215/35 123/216/35
f 117/109/5 123/108/5 128/217/5 125/218/5
f 3/110/5 1/106/5 117/109/5 118/219/5
f 64/81/4 2/80/4 120/220/4 124/104/4
f 63/107/5 61/133/5 122/221/5 123/108/5
f 4/6/8 3/5/8 118/214/8 119/213/8
f 2/80/4 4/79/4 119/222/4 120/220/4
f 128/223/36 127/224/36 126/225/36 125/226/36
f 120/212/8 117/211/8 125/227/8 126/228/8
f 124/104/4 120/220/4 126/229/4 127/230/4
f 123/216/1 124/215/1 127/224/1 128/223/1
