# Blender 4.0.2
# www.blender.org
mtllib wind_chime.mtl
o Wind_Chime.007
v -0.468750 0.000000 0.000000
v -0.336223 -0.077038 -0.093669
v -0.308339 -0.067228 -0.086571
v -0.299155 0.055105 0.000000
v -0.403970 0.089162 0.000000
v -0.379227 0.000000 -0.275524
v -0.327067 -0.077038 -0.121847
v -0.300336 -0.067228 -0.111200
v -0.242021 0.055105 -0.175839
v -0.326819 0.089162 -0.237448
v -0.144852 0.000000 -0.445808
v -0.124834 -0.089162 -0.384199
v -0.092444 -0.055105 -0.284513
v -0.092444 0.055105 -0.284513
v -0.124834 0.089162 -0.384199
v 0.144852 -0.000000 -0.445808
v 0.124834 -0.089162 -0.384199
v 0.092444 -0.055105 -0.284513
v 0.092444 0.055105 -0.284513
v 0.124834 0.089162 -0.384199
v 0.379227 -0.000000 -0.275524
v 0.326819 -0.089162 -0.237448
v 0.242021 -0.055105 -0.175839
v 0.242021 0.055105 -0.175839
v 0.326819 0.089162 -0.237448
v 0.468750 -0.000000 -0.000000
v 0.336223 -0.077038 0.093669
v 0.308339 -0.067228 0.086571
v 0.299155 0.055105 -0.000000
v 0.403970 0.089162 -0.000000
v 0.379227 -0.000000 0.275524
v 0.327067 -0.077038 0.121847
v 0.300336 -0.067228 0.111200
v 0.242021 0.055105 0.175839
v 0.326819 0.089162 0.237448
v 0.144852 -0.000000 0.445808
v 0.124834 -0.089162 0.384199
v 0.092444 -0.055105 0.284513
v 0.092444 0.055105 0.284513
v 0.124834 0.089162 0.384199
v -0.144852 0.000000 0.445808
v -0.124834 -0.089162 0.384199
v -0.092444 -0.055105 0.284513
v -0.092444 0.055105 0.284513
v -0.124834 0.089162 0.384199
v -0.379227 0.000000 0.275525
v -0.326819 -0.089162 0.237448
v -0.242021 -0.055105 0.175839
v -0.242021 0.055105 0.175839
v -0.326819 0.089162 0.237448
v 0.057701 1.372651 -0.375341
v 0.105069 0.513846 -0.359950
v 0.057701 1.372651 -0.337573
v 0.105069 0.513846 -0.352964
v 0.079901 1.372651 -0.307018
v 0.109176 0.513846 -0.347312
v 0.115820 1.372651 -0.295348
v 0.115820 0.513846 -0.345153
v 0.151739 1.372651 -0.307018
v 0.122464 0.513846 -0.347312
v 0.173939 1.372651 -0.337573
v 0.126571 0.513846 -0.352964
v 0.173939 1.372651 -0.375341
v 0.126571 0.513846 -0.359950
v 0.151739 1.372651 -0.405896
v 0.122464 0.513846 -0.365602
v 0.115820 1.372651 -0.417567
v 0.115820 0.513846 -0.367761
v 0.079901 1.372651 -0.405896
v 0.109176 0.513846 -0.365602
v 0.057701 0.513846 -0.337573
v 0.057701 0.513846 -0.375341
v 0.079901 0.513846 -0.307018
v 0.115820 0.513846 -0.295348
v 0.151739 0.513846 -0.307018
v 0.173939 0.513846 -0.337573
v 0.173939 0.513846 -0.375341
v 0.151739 0.513846 -0.405896
v 0.115820 0.513846 -0.417567
v 0.079901 0.513846 -0.405896
v 0.105069 0.070682 -0.352964
v 0.105069 0.070682 -0.359950
v 0.109176 0.070682 -0.347312
v 0.115820 0.070682 -0.345153
v 0.122464 0.070682 -0.347312
v 0.126571 0.070682 -0.352964
v 0.126571 0.070682 -0.359950
v 0.122464 0.070682 -0.365602
v 0.115820 0.070682 -0.367761
v 0.109176 0.070682 -0.365602
v 0.374801 1.372651 -0.061110
v 0.374801 0.513846 -0.011304
v 0.338882 1.372651 -0.049439
v 0.368157 0.513846 -0.009145
v 0.316683 1.372651 -0.018884
v 0.364051 0.513846 -0.003493
v 0.316683 1.372651 0.018884
v 0.364051 0.513846 0.003493
v 0.338882 1.372651 0.049439
v 0.368157 0.513846 0.009145
v 0.374801 1.372651 0.061110
v 0.374801 0.513846 0.011304
v 0.410721 1.372651 0.049439
v 0.381446 0.513846 0.009145
v 0.432920 1.372651 0.018884
v 0.385552 0.513846 0.003493
v 0.432920 1.372651 -0.018884
v 0.385552 0.513846 -0.003493
v 0.410721 1.372651 -0.049439
v 0.381446 0.513846 -0.009145
v 0.338882 0.513846 -0.049439
v 0.374801 0.513846 -0.061110
v 0.316683 0.513846 -0.018884
v 0.316683 0.513846 0.018884
v 0.338882 0.513846 0.049439
v 0.374801 0.513846 0.061110
v 0.410721 0.513846 0.049439
v 0.432920 0.513846 0.018884
v 0.432920 0.513846 -0.018884
v 0.410721 0.513846 -0.049439
v 0.368157 0.070682 -0.009145
v 0.374801 0.070682 -0.011304
v 0.364051 0.070682 -0.003493
v 0.364051 0.070682 0.003493
v 0.368157 0.070682 0.009145
v 0.374801 0.070682 0.011304
v 0.381445 0.070682 0.009145
v 0.385552 0.070682 0.003493
v 0.385552 0.070682 -0.003493
v 0.381445 0.070682 -0.009145
v 0.173939 1.372651 0.337573
v 0.126571 0.513846 0.352964
v 0.151739 1.372651 0.307019
v 0.122464 0.513846 0.347312
v 0.115820 1.372651 0.295348
v 0.115820 0.513846 0.345153
v 0.079901 1.372651 0.307019
v 0.109176 0.513846 0.347312
v 0.057701 1.372651 0.337573
v 0.105069 0.513846 0.352964
v 0.057701 1.372651 0.375341
v 0.105069 0.513846 0.359950
v 0.079901 1.372651 0.405896
v 0.109176 0.513846 0.365602
v 0.115820 1.372651 0.417567
v 0.115820 0.513846 0.367761
v 0.151739 1.372651 0.405896
v 0.122464 0.513846 0.365602
v 0.173939 1.372651 0.375341
v 0.126571 0.513846 0.359950
v 0.151739 0.513846 0.307019
v 0.173939 0.513846 0.337573
v 0.115820 0.513846 0.295348
v 0.079901 0.513846 0.307019
v 0.057701 0.513846 0.337573
v 0.057701 0.513846 0.375341
v 0.079901 0.513846 0.405896
v 0.115820 0.513846 0.417567
v 0.151739 0.513846 0.405896
v 0.173939 0.513846 0.375341
v 0.122464 0.070682 0.347312
v 0.126571 0.070682 0.352964
v 0.115820 0.070682 0.345153
v 0.109176 0.070682 0.347312
v 0.105069 0.070682 0.352964
v 0.105069 0.070682 0.359950
v 0.109176 0.070682 0.365602
v 0.115820 0.070682 0.367761
v 0.122464 0.070682 0.365602
v 0.126571 0.070682 0.359950
v -0.267301 1.372651 0.269741
v -0.296576 0.513846 0.229448
v -0.245102 1.372651 0.239187
v -0.292470 0.513846 0.223796
v -0.245102 1.372651 0.201419
v -0.292470 0.513846 0.216810
v -0.267301 1.372651 0.170864
v -0.296576 0.513846 0.211158
v -0.303221 1.372651 0.159193
v -0.303221 0.513846 0.208999
v -0.339140 1.372651 0.170864
v -0.309865 0.513846 0.211158
v -0.361339 1.372651 0.201419
v -0.313971 0.513846 0.216810
v -0.361339 1.372651 0.239187
v -0.313971 0.513846 0.223796
v -0.339140 1.372651 0.269741
v -0.309865 0.513846 0.229448
v -0.303221 1.372651 0.281412
v -0.303221 0.513846 0.231606
v -0.245102 0.513846 0.239187
v -0.267301 0.513846 0.269741
v -0.245102 0.513846 0.201419
v -0.267301 0.513846 0.170864
v -0.303221 0.513846 0.159193
v -0.339140 0.513846 0.170864
v -0.361339 0.513846 0.201419
v -0.361339 0.513846 0.239187
v -0.339140 0.513846 0.269741
v -0.303221 0.513846 0.281412
v -0.292470 0.070682 0.223796
v -0.296576 0.070682 0.229448
v -0.292470 0.070682 0.216810
v -0.296576 0.070682 0.211158
v -0.303221 0.070682 0.208999
v -0.309865 0.070682 0.211158
v -0.313971 0.070682 0.216810
v -0.313971 0.070682 0.223796
v -0.309865 0.070682 0.229448
v -0.303221 0.070682 0.231606
v -0.339140 1.372651 -0.170864
v -0.309865 0.513846 -0.211158
v -0.303220 1.372651 -0.159193
v -0.303221 0.513846 -0.208999
v -0.267301 1.372651 -0.170864
v -0.296576 0.513846 -0.211158
v -0.245102 1.372651 -0.201419
v -0.292470 0.513846 -0.216810
v -0.245102 1.372651 -0.239187
v -0.292470 0.513846 -0.223796
v -0.267301 1.372651 -0.269741
v -0.296576 0.513846 -0.229448
v -0.303220 1.372651 -0.281412
v -0.303221 0.513846 -0.231607
v -0.339140 1.372651 -0.269741
v -0.309865 0.513846 -0.229448
v -0.361339 1.372651 -0.239187
v -0.313971 0.513846 -0.223796
v -0.361339 1.372651 -0.201419
v -0.313971 0.513846 -0.216810
v -0.303221 0.513846 -0.159193
v -0.339140 0.513846 -0.170864
v -0.267301 0.513846 -0.170864
v -0.245102 0.513846 -0.201419
v -0.245102 0.513846 -0.239187
v -0.267301 0.513846 -0.269741
v -0.303221 0.513846 -0.281412
v -0.339140 0.513846 -0.269741
v -0.361339 0.513846 -0.239187
v -0.361339 0.513846 -0.201419
v -0.303221 0.070682 -0.208999
v -0.309865 0.070682 -0.211158
v -0.296576 0.070682 -0.211158
v -0.292470 0.070682 -0.216810
v -0.292470 0.070682 -0.223796
v -0.296576 0.070682 -0.229448
v -0.303221 0.070682 -0.231607
v -0.309865 0.070682 -0.229448
v -0.313971 0.070682 -0.223796
v -0.313971 0.070682 -0.216810
v -0.403970 -0.089162 0.000000
v -0.299155 -0.055105 0.000000
v -0.326819 -0.089162 -0.237448
v -0.242021 -0.055105 -0.175839
v 0.403970 -0.089162 -0.000000
v 0.299155 -0.055105 -0.000000
v 0.326819 -0.089162 0.237448
v 0.242021 -0.055105 0.175839
v 0.024638 -0.431900 -0.007571
v 0.021529 -0.422090 -0.006619
v 0.015482 -0.431900 0.020607
v 0.013527 -0.422090 0.018010
v -0.024638 -0.431900 0.007571
v -0.021529 -0.422090 0.006619
v -0.015482 -0.431900 -0.020607
v -0.013527 -0.422090 -0.018010
vn -0.7824 -0.5685 -0.2542
vn -0.6988 -0.6783 -0.2270
vn 0.9511 -0.0000 0.3090
vn 0.3075 0.9463 0.0999
vn -0.7824 0.5685 -0.2542
vn -0.4836 -0.5685 -0.6656
vn 0.1900 -0.9463 0.2616
vn 0.5878 -0.0000 0.8090
vn 0.1900 0.9463 0.2616
vn -0.4836 0.5685 -0.6656
vn -0.0000 -0.5685 -0.8227
vn -0.0000 -0.9463 0.3233
vn -0.0000 -0.0000 1.0000
vn -0.0000 0.9463 0.3233
vn -0.0000 0.5685 -0.8227
vn 0.4836 -0.5685 -0.6656
vn -0.1900 -0.9463 0.2616
vn -0.5878 -0.0000 0.8090
vn -0.1900 0.9463 0.2616
vn 0.4836 0.5685 -0.6656
vn 0.7824 -0.5685 -0.2542
vn -0.3075 -0.9463 0.0999
vn -0.9511 -0.0000 0.3090
vn -0.3075 0.9463 0.0999
vn 0.7824 0.5685 -0.2542
vn 0.7824 -0.5685 0.2542
vn 0.2350 0.0675 -0.9696
vn -0.9511 -0.0000 -0.3090
vn -0.3075 0.9463 -0.0999
vn 0.7824 0.5685 0.2542
vn 0.4836 -0.5685 0.6656
vn -0.1900 -0.9463 -0.2616
vn -0.5878 -0.0000 -0.8090
vn -0.1900 0.9463 -0.2616
vn 0.4836 0.5685 0.6656
vn -0.0000 -0.5685 0.8227
vn -0.0000 -0.9463 -0.3233
vn -0.0000 -0.0000 -1.0000
vn -0.0000 0.9463 -0.3233
vn -0.0000 0.5685 0.8227
vn -0.4836 -0.5685 0.6656
vn 0.1900 -0.9463 -0.2616
vn 0.5878 -0.0000 -0.8090
vn 0.1900 0.9463 -0.2616
vn -0.4836 0.5685 0.6656
vn -0.7824 -0.5685 0.2542
vn 0.3075 -0.9463 -0.0999
vn 0.9511 -0.0000 -0.3090
vn 0.3075 0.9463 -0.0999
vn -0.7824 0.5685 0.2542
vn -1.0000 -0.0000 -0.0000
vn -0.8090 -0.0000 0.5878
vn -0.3090 -0.0000 0.9511
vn 0.3090 -0.0000 0.9511
vn 0.8090 -0.0000 0.5878
vn 1.0000 -0.0000 -0.0000
vn 0.8090 -0.0000 -0.5878
vn 0.3090 -0.0000 -0.9511
vn -0.8090 -0.0000 -0.5878
vn -0.3090 -0.0000 -0.9511
vn -0.0000 1.0000 -0.0000
vn -0.0000 -1.0000 -0.0000
vn 0.3075 -0.9463 0.0999
vn -0.3075 -0.9463 -0.0999
vn -0.9179 -0.2619 -0.2982
vn -0.7247 0.6476 -0.2355
vn -0.3798 0.0675 0.9226
vn 0.6988 -0.6783 0.2270
vn 0.9179 -0.2619 0.2982
vn -0.2350 0.0675 0.9696
vn 0.7247 0.6476 0.2355
vn 0.3798 0.0675 -0.9226
vt 0.600000 0.600000
vt 0.700000 0.600000
vt 0.700000 0.800000
vt 0.600000 0.800000
vt 0.617230 0.871196
vt 0.682770 0.871196
vt 0.600000 0.000000
vt 0.700000 0.000000
vt 0.700000 0.200000
vt 0.600000 0.200000
vt 0.700000 0.400000
vt 0.600000 0.400000
vt 0.800000 0.600000
vt 0.800000 0.800000
vt 0.800000 1.000000
vt 0.700000 1.000000
vt 0.800000 0.000000
vt 0.800000 0.200000
vt 0.800000 0.400000
vt 0.900000 0.600000
vt 0.900000 0.800000
vt 0.900000 1.000000
vt 0.900000 0.000000
vt 0.900000 0.200000
vt 0.900000 0.400000
vt 1.000000 0.600000
vt 1.000000 0.800000
vt 1.000000 1.000000
vt 1.000000 0.000000
vt 1.000000 0.200000
vt 1.000000 0.400000
vt -0.000000 0.600000
vt 0.100000 0.600000
vt 0.100000 0.800000
vt -0.000000 0.800000
vt 0.100000 1.000000
vt -0.000000 1.000000
vt -0.000000 0.000000
vt 0.100000 0.000000
vt 0.100000 0.200000
vt -0.000000 0.200000
vt 0.100000 0.400000
vt -0.000000 0.400000
vt 0.200000 0.600000
vt 0.200000 0.800000
vt 0.118382 0.928804
vt 0.117230 0.871196
vt 0.200000 0.000000
vt 0.200000 0.200000
vt 0.200000 0.400000
vt 0.300000 0.600000
vt 0.300000 0.800000
vt 0.300000 1.000000
vt 0.200000 1.000000
vt 0.300000 0.000000
vt 0.300000 0.200000
vt 0.300000 0.400000
vt 0.400000 0.600000
vt 0.400000 0.800000
vt 0.400000 1.000000
vt 0.400000 0.000000
vt 0.400000 0.200000
vt 0.400000 0.400000
vt 0.500000 0.600000
vt 0.500000 0.800000
vt 0.500000 1.000000
vt 0.500000 0.000000
vt 0.500000 0.200000
vt 0.500000 0.400000
vt 0.600000 1.000000
vt 1.000000 0.500000
vt 0.900000 0.500000
vt 0.800000 1.000000
vt 0.800000 0.500000
vt 0.700000 1.000000
vt 0.700000 0.500000
vt 0.600000 1.000000
vt 0.600000 0.500000
vt 0.500000 1.000000
vt 0.500000 0.500000
vt 0.400000 1.000000
vt 0.400000 0.500000
vt 0.300000 1.000000
vt 0.300000 0.500000
vt 0.200000 1.000000
vt 0.200000 0.500000
vt 0.250000 0.294394
vt 0.223906 0.285916
vt 0.100000 1.000000
vt 0.100000 0.500000
vt -0.000000 1.000000
vt -0.000000 0.500000
vt 0.750000 0.490000
vt 0.891068 0.444164
vt 0.978254 0.324164
vt 0.978254 0.175836
vt 0.891068 0.055836
vt 0.750000 0.010000
vt 0.608932 0.055836
vt 0.521746 0.175836
vt 0.521746 0.324164
vt 0.608932 0.444164
vt 0.276094 0.285916
vt 0.391068 0.444164
vt 0.250000 0.490000
vt 0.292222 0.263719
vt 0.478254 0.324164
vt 0.292222 0.236281
vt 0.478254 0.175836
vt 0.276094 0.214084
vt 0.391068 0.055836
vt 0.250000 0.205606
vt 0.250000 0.010000
vt 0.223906 0.214084
vt 0.108932 0.055836
vt 0.207778 0.236281
vt 0.021746 0.175836
vt 0.207778 0.263719
vt 0.021746 0.324164
vt 0.108932 0.444164
vt 0.618382 0.928804
vt 0.681618 0.928804
vt 0.181618 0.928804
vt 0.182770 0.871196
s 0
usemtl Metal
f 1/1/1 6/2/1 253/3/1 251/4/1
f 252/7/3 254/8/3 9/9/3 4/10/3
f 4/10/4 9/9/4 10/11/4 5/12/4
f 5/12/5 10/11/5 6/2/5 1/1/5
f 6/2/6 11/13/6 12/14/6 253/3/6
f 253/3/7 12/14/7 13/15/7 254/16/7
f 254/8/8 13/17/8 14/18/8 9/9/8
f 9/9/9 14/18/9 15/19/9 10/11/9
f 10/11/10 15/19/10 11/13/10 6/2/10
f 11/13/11 16/20/11 17/21/11 12/14/11
f 12/14/12 17/21/12 18/22/12 13/15/12
f 13/17/13 18/23/13 19/24/13 14/18/13
f 14/18/14 19/24/14 20/25/14 15/19/14
f 15/19/15 20/25/15 16/20/15 11/13/15
f 16/20/16 21/26/16 22/27/16 17/21/16
f 17/21/17 22/27/17 23/28/17 18/22/17
f 18/23/18 23/29/18 24/30/18 19/24/18
f 19/24/19 24/30/19 25/31/19 20/25/19
f 20/25/20 25/31/20 21/26/20 16/20/20
f 21/32/21 26/33/21 255/34/21 22/35/21
f 22/35/22 255/34/22 256/36/22 23/37/22
f 23/38/23 256/39/23 29/40/23 24/41/23
f 24/41/24 29/40/24 30/42/24 25/43/24
f 25/43/25 30/42/25 26/33/25 21/32/25
f 26/33/26 31/44/26 257/45/26 255/34/26
f 256/39/28 258/48/28 34/49/28 29/40/28
f 29/40/29 34/49/29 35/50/29 30/42/29
f 30/42/30 35/50/30 31/44/30 26/33/30
f 31/44/31 36/51/31 37/52/31 257/45/31
f 257/45/32 37/52/32 38/53/32 258/54/32
f 258/48/33 38/55/33 39/56/33 34/49/33
f 34/49/34 39/56/34 40/57/34 35/50/34
f 35/50/35 40/57/35 36/51/35 31/44/35
f 36/51/36 41/58/36 42/59/36 37/52/36
f 37/52/37 42/59/37 43/60/37 38/53/37
f 38/55/38 43/61/38 44/62/38 39/56/38
f 39/56/39 44/62/39 45/63/39 40/57/39
f 40/57/40 45/63/40 41/58/40 36/51/40
f 41/58/41 46/64/41 47/65/41 42/59/41
f 42/59/42 47/65/42 48/66/42 43/60/42
f 43/61/43 48/67/43 49/68/43 44/62/43
f 44/62/44 49/68/44 50/69/44 45/63/44
f 45/63/45 50/69/45 46/64/45 41/58/45
f 46/64/46 1/1/46 251/4/46 47/65/46
f 47/65/47 251/4/47 252/70/47 48/66/47
f 48/67/48 252/7/48 4/10/48 49/68/48
f 49/68/49 4/10/49 5/12/49 50/69/49
f 50/69/50 5/12/50 1/1/50 46/64/50
f 51/71/51 72/28/51 71/22/51 53/72/51
f 53/72/52 71/22/52 73/73/52 55/74/52
f 55/74/53 73/73/53 74/75/53 57/76/53
f 57/76/54 74/75/54 75/77/54 59/78/54
f 59/78/55 75/77/55 76/79/55 61/80/55
f 61/80/56 76/79/56 77/81/56 63/82/56
f 63/82/57 77/81/57 78/83/57 65/84/57
f 65/84/58 78/83/58 79/85/58 67/86/58
f 67/86/60 79/85/60 80/89/60 69/90/60
f 69/90/59 80/89/59 72/91/59 51/92/59
f 51/93/61 53/94/61 55/95/61 57/96/61 59/97/61 61/98/61 63/99/61 65/100/61 67/101/61 69/102/61
f 52/87/62 54/103/62 71/104/62 72/105/62
f 54/103/62 56/106/62 73/107/62 71/104/62
f 56/106/62 58/108/62 74/109/62 73/107/62
f 58/108/62 60/110/62 75/111/62 74/109/62
f 60/110/62 62/112/62 76/113/62 75/111/62
f 62/112/62 64/114/62 77/115/62 76/113/62
f 64/114/62 66/116/62 78/117/62 77/115/62
f 66/116/62 68/118/62 79/119/62 78/117/62
f 68/118/62 70/88/62 80/120/62 79/119/62
f 70/88/62 52/87/62 72/105/62 80/120/62
f 91/71/60 112/28/60 111/22/60 93/72/60
f 93/72/59 111/22/59 113/73/59 95/74/59
f 95/74/51 113/73/51 114/75/51 97/76/51
f 97/76/52 114/75/52 115/77/52 99/78/52
f 99/78/53 115/77/53 116/79/53 101/80/53
f 101/80/54 116/79/54 117/81/54 103/82/54
f 103/82/55 117/81/55 118/83/55 105/84/55
f 105/84/56 118/83/56 119/85/56 107/86/56
f 107/86/57 119/85/57 120/89/57 109/90/57
f 109/90/58 120/89/58 112/91/58 91/92/58
f 91/93/61 93/94/61 95/95/61 97/96/61 99/97/61 101/98/61 103/99/61 105/100/61 107/101/61 109/102/61
f 92/87/62 94/103/62 111/104/62 112/105/62
f 94/103/62 96/106/62 113/107/62 111/104/62
f 96/106/62 98/108/62 114/109/62 113/107/62
f 98/108/62 100/110/62 115/111/62 114/109/62
f 100/110/62 102/112/62 116/113/62 115/111/62
f 102/112/62 104/114/62 117/115/62 116/113/62
f 104/114/62 106/116/62 118/117/62 117/115/62
f 106/116/62 108/118/62 119/119/62 118/117/62
f 108/118/62 110/88/62 120/120/62 119/119/62
f 110/88/62 92/87/62 112/105/62 120/120/62
f 131/71/57 152/28/57 151/22/57 133/72/57
f 133/72/58 151/22/58 153/73/58 135/74/58
f 135/74/60 153/73/60 154/75/60 137/76/60
f 137/76/59 154/75/59 155/77/59 139/78/59
f 139/78/51 155/77/51 156/79/51 141/80/51
f 141/80/52 156/79/52 157/81/52 143/82/52
f 143/82/53 157/81/53 158/83/53 145/84/53
f 145/84/54 158/83/54 159/85/54 147/86/54
f 147/86/55 159/85/55 160/89/55 149/90/55
f 149/90/56 160/89/56 152/91/56 131/92/56
f 131/93/61 133/94/61 135/95/61 137/96/61 139/97/61 141/98/61 143/99/61 145/100/61 147/101/61 149/102/61
f 132/87/62 134/103/62 151/104/62 152/105/62
f 134/103/62 136/106/62 153/107/62 151/104/62
f 136/106/62 138/108/62 154/109/62 153/107/62
f 138/108/62 140/110/62 155/111/62 154/109/62
f 140/110/62 142/112/62 156/113/62 155/111/62
f 142/112/62 144/114/62 157/115/62 156/113/62
f 144/114/62 146/116/62 158/117/62 157/115/62
f 146/116/62 148/118/62 159/119/62 158/117/62
f 148/118/62 150/88/62 160/120/62 159/119/62
f 150/88/62 132/87/62 152/105/62 160/120/62
f 171/71/55 192/28/55 191/22/55 173/72/55
f 173/72/56 191/22/56 193/73/56 175/74/56
f 175/74/57 193/73/57 194/75/57 177/76/57
f 177/76/58 194/75/58 195/77/58 179/78/58
f 179/78/60 195/77/60 196/79/60 181/80/60
f 181/80/59 196/79/59 197/81/59 183/82/59
f 183/82/51 197/81/51 198/83/51 185/84/51
f 185/84/52 198/83/52 199/85/52 187/86/52
f 187/86/53 199/85/53 200/89/53 189/90/53
f 189/90/54 200/89/54 192/91/54 171/92/54
f 171/93/61 173/94/61 175/95/61 177/96/61 179/97/61 181/98/61 183/99/61 185/100/61 187/101/61 189/102/61
f 172/87/62 174/103/62 191/104/62 192/105/62
f 174/103/62 176/106/62 193/107/62 191/104/62
f 176/106/62 178/108/62 194/109/62 193/107/62
f 178/108/62 180/110/62 195/111/62 194/109/62
f 180/110/62 182/112/62 196/113/62 195/111/62
f 182/112/62 184/114/62 197/115/62 196/113/62
f 184/114/62 186/116/62 198/117/62 197/115/62
f 186/116/62 188/118/62 199/119/62 198/117/62
f 188/118/62 190/88/62 200/120/62 199/119/62
f 190/88/62 172/87/62 192/105/62 200/120/62
f 211/71/53 232/28/53 231/22/53 213/72/53
f 213/72/54 231/22/54 233/73/54 215/74/54
f 215/74/55 233/73/55 234/75/55 217/76/55
f 217/76/56 234/75/56 235/77/56 219/78/56
f 219/78/57 235/77/57 236/79/57 221/80/57
f 221/80/58 236/79/58 237/81/58 223/82/58
f 223/82/60 237/81/60 238/83/60 225/84/60
f 225/84/59 238/83/59 239/85/59 227/86/59
f 227/86/51 239/85/51 240/89/51 229/90/51
f 229/90/52 240/89/52 232/91/52 211/92/52
f 211/93/61 213/94/61 215/95/61 217/96/61 219/97/61 221/98/61 223/99/61 225/100/61 227/101/61 229/102/61
f 212/87/62 214/103/62 231/104/62 232/105/62
f 214/103/62 216/106/62 233/107/62 231/104/62
f 216/106/62 218/108/62 234/109/62 233/107/62
f 218/108/62 220/110/62 235/111/62 234/109/62
f 220/110/62 222/112/62 236/113/62 235/111/62
f 222/112/62 224/114/62 237/115/62 236/113/62
f 224/114/62 226/116/62 238/117/62 237/115/62
f 226/116/62 228/118/62 239/119/62 238/117/62
f 228/118/62 230/88/62 240/120/62 239/119/62
f 230/88/62 212/87/62 232/105/62 240/120/62
f 2/5/63 3/121/63 252/70/63 251/4/63
f 8/122/63 7/6/63 253/3/63 254/16/63
f 7/6/63 2/5/63 251/4/63 253/3/63
f 3/121/63 8/122/63 254/16/63 252/70/63
f 27/47/64 28/46/64 256/36/64 255/34/64
f 33/123/64 32/124/64 257/45/64 258/54/64
f 32/124/64 27/47/64 255/34/64 257/45/64
f 28/46/64 33/123/64 258/54/64 256/36/64
usemtl Floor
f 2/5/2 7/6/2 265/6/2 263/5/2
f 28/46/27 27/47/27 259/47/27 260/46/27
f 52/87/59 70/88/59 90/88/59 82/87/59
f 81/103/62 82/87/62 90/88/62 89/118/62 88/116/62 87/114/62 86/112/62 85/110/62 84/108/62 83/106/62
f 66/116/57 64/114/57 87/114/57 88/116/57
f 60/110/54 58/108/54 84/108/54 85/110/54
f 54/103/51 52/87/51 82/87/51 81/103/51
f 68/118/58 66/116/58 88/116/58 89/118/58
f 62/112/55 60/110/55 85/110/55 86/112/55
f 56/106/52 54/103/52 81/103/52 83/106/52
f 70/88/60 68/118/60 89/118/60 90/88/60
f 64/114/56 62/112/56 86/112/56 87/114/56
f 58/108/53 56/106/53 83/106/53 84/108/53
f 92/87/58 110/88/58 130/88/58 122/87/58
f 121/103/62 122/87/62 130/88/62 129/118/62 128/116/62 127/114/62 126/112/62 125/110/62 124/108/62 123/106/62
f 106/116/55 104/114/55 127/114/55 128/116/55
f 100/110/52 98/108/52 124/108/52 125/110/52
f 94/103/60 92/87/60 122/87/60 121/103/60
f 108/118/56 106/116/56 128/116/56 129/118/56
f 102/112/53 100/110/53 125/110/53 126/112/53
f 96/106/59 94/103/59 121/103/59 123/106/59
f 110/88/57 108/118/57 129/118/57 130/88/57
f 104/114/54 102/112/54 126/112/54 127/114/54
f 98/108/51 96/106/51 123/106/51 124/108/51
f 132/87/56 150/88/56 170/88/56 162/87/56
f 161/103/62 162/87/62 170/88/62 169/118/62 168/116/62 167/114/62 166/112/62 165/110/62 164/108/62 163/106/62
f 146/116/53 144/114/53 167/114/53 168/116/53
f 140/110/59 138/108/59 164/108/59 165/110/59
f 134/103/57 132/87/57 162/87/57 161/103/57
f 148/118/54 146/116/54 168/116/54 169/118/54
f 142/112/51 140/110/51 165/110/51 166/112/51
f 136/106/58 134/103/58 161/103/58 163/106/58
f 150/88/55 148/118/55 169/118/55 170/88/55
f 144/114/52 142/112/52 166/112/52 167/114/52
f 138/108/60 136/106/60 163/106/60 164/108/60
f 172/87/54 190/88/54 210/88/54 202/87/54
f 201/103/62 202/87/62 210/88/62 209/118/62 208/116/62 207/114/62 206/112/62 205/110/62 204/108/62 203/106/62
f 186/116/51 184/114/51 207/114/51 208/116/51
f 180/110/58 178/108/58 204/108/58 205/110/58
f 174/103/55 172/87/55 202/87/55 201/103/55
f 188/118/52 186/116/52 208/116/52 209/118/52
f 182/112/60 180/110/60 205/110/60 206/112/60
f 176/106/56 174/103/56 201/103/56 203/106/56
f 190/88/53 188/118/53 209/118/53 210/88/53
f 184/114/59 182/112/59 206/112/59 207/114/59
f 178/108/57 176/106/57 203/106/57 204/108/57
f 212/87/52 230/88/52 250/88/52 242/87/52
f 241/103/62 242/87/62 250/88/62 249/118/62 248/116/62 247/114/62 246/112/62 245/110/62 244/108/62 243/106/62
f 226/116/60 224/114/60 247/114/60 248/116/60
f 220/110/56 218/108/56 244/108/56 245/110/56
f 214/103/53 212/87/53 242/87/53 241/103/53
f 228/118/59 226/116/59 248/116/59 249/118/59
f 222/112/57 220/110/57 245/110/57 246/112/57
f 216/106/54 214/103/54 241/103/54 243/106/54
f 230/88/51 228/118/51 249/118/51 250/88/51
f 224/114/58 222/112/58 246/112/58 247/114/58
f 218/108/55 216/106/55 243/106/55 244/108/55
f 259/47/65 261/124/65 262/123/65 260/46/65
f 33/123/66 28/46/66 260/46/66 262/123/66
f 32/124/67 33/123/67 262/123/67 261/124/67
f 27/47/68 32/124/68 261/124/68 259/47/68
f 263/5/69 265/6/69 266/122/69 264/121/69
f 3/121/70 2/5/70 263/5/70 264/121/70
f 8/122/71 3/121/71 264/121/71 266/122/71
f 7/6/72 8/122/72 266/122/72 265/6/72
