# Blender v2.92.0 OBJ File: 'stationv2.blend'
# www.blender.org
mtllib wire2.mtl
o Wire_2_Cube.009
v -12.641675 -0.500788 1.203314
v -12.641675 -0.109219 1.203314
v -12.209649 -0.500788 1.075431
v -12.209649 -0.109219 1.075431
v -9.400849 -0.500788 12.151779
v -9.400849 -0.109219 12.151779
v -8.968823 -0.500788 12.023895
v -8.968823 -0.109219 12.023895
v -9.126947 0.672361 12.027349
v -9.126947 0.603054 11.897684
v -9.126947 0.509781 11.784031
v -9.126947 0.396129 11.690760
v -9.126947 0.266464 11.621452
v -9.126947 -0.166866 11.578773
v -9.126947 -0.550879 11.784031
v -9.040944 0.715040 12.195988
v -8.958245 0.672361 12.082164
v -8.882030 0.603054 11.977262
v -8.815228 0.509781 11.885316
v -8.760403 0.396129 11.809857
v -8.719666 0.266464 11.753786
v -8.694579 0.125769 11.719257
v -8.686109 -0.020549 11.707600
v -8.694579 -0.166866 11.719257
v -8.719666 -0.307561 11.753786
v -8.760403 -0.437226 11.809857
v -8.815228 -0.550879 11.885316
v -8.882030 -0.644151 11.977262
v -8.958245 -0.713458 12.082164
v -9.040944 -0.756137 12.195988
v -8.987791 0.715040 12.269148
v -8.853982 0.672361 12.225670
v -8.730663 0.603054 12.185600
v -8.622574 0.509781 12.150480
v -8.533866 0.396129 12.121658
v -8.467951 0.266464 12.100241
v -8.427361 0.125769 12.087052
v -8.413654 -0.020549 12.082600
v -8.427361 -0.166866 12.087052
v -8.467951 -0.307561 12.100241
v -8.533866 -0.437226 12.121658
v -8.622574 -0.550879 12.150480
v -8.730663 -0.644151 12.185600
v -8.853982 -0.713458 12.225670
v -8.987791 -0.756137 12.269148
v -8.987791 0.715040 12.359577
v -8.853982 0.672361 12.403053
v -8.730663 0.603054 12.443123
v -8.622574 0.509781 12.478243
v -8.533866 0.396129 12.507065
v -8.467951 0.266464 12.528482
v -8.427361 0.125769 12.541672
v -8.413654 -0.020549 12.546124
v -8.427361 -0.166866 12.541672
v -8.467951 -0.307561 12.528482
v -8.533866 -0.437226 12.507065
v -8.622574 -0.550879 12.478243
v -8.730663 -0.644151 12.443123
v -8.853982 -0.713458 12.403053
v -8.987791 -0.756137 12.359576
v -9.040944 0.715040 12.432735
v -8.958245 0.672361 12.546560
v -8.882030 0.603054 12.651461
v -8.815228 0.509781 12.743408
v -8.760403 0.396129 12.818867
v -8.719666 0.266464 12.874937
v -8.694579 0.125769 12.909466
v -8.686109 -0.020549 12.921125
v -8.694579 -0.166866 12.909466
v -8.719666 -0.307561 12.874937
v -8.760403 -0.437226 12.818867
v -8.815228 -0.550879 12.743408
v -8.882030 -0.644151 12.651461
v -8.958245 -0.713458 12.546560
v -9.040944 -0.756137 12.432735
v -9.126947 0.715040 12.460680
v -9.126947 0.672361 12.601375
v -9.126947 0.603054 12.731039
v -9.126947 0.509781 12.844692
v -9.126947 0.396129 12.937964
v -9.126947 0.266464 13.007272
v -9.126947 0.125769 13.049952
v -9.126947 -0.020549 13.064363
v -9.126947 -0.166866 13.049952
v -9.126947 -0.307561 13.007272
v -9.126947 -0.437226 12.937964
v -9.126947 -0.550879 12.844692
v -9.126947 -0.644151 12.731039
v -9.126947 -0.713458 12.601375
v -9.126947 -0.756137 12.460680
v -9.126947 -0.770549 12.314362
v -9.126947 0.729451 12.314363
v -9.212951 0.715040 12.432735
v -9.295650 0.672361 12.546560
v -9.371864 0.603054 12.651462
v -9.438667 0.509781 12.743408
v -9.493492 0.396129 12.818867
v -9.534229 0.266464 12.874938
v -9.559316 0.125769 12.909466
v -9.567786 -0.020549 12.921125
v -9.559316 -0.166866 12.909467
v -9.534229 -0.307561 12.874938
v -9.493492 -0.437226 12.818867
v -9.438667 -0.550879 12.743408
v -9.371864 -0.644151 12.651462
v -9.295649 -0.713458 12.546560
v -9.212951 -0.756137 12.432735
v -9.266104 0.715040 12.359577
v -9.399913 0.672361 12.403053
v -9.523232 0.603054 12.443123
v -9.631321 0.509781 12.478243
v -9.720028 0.396129 12.507066
v -9.785944 0.266464 12.528482
v -9.826534 0.125769 12.541672
v -9.840240 -0.020549 12.546125
v -9.826534 -0.166866 12.541672
v -9.785944 -0.307561 12.528482
v -9.720028 -0.437226 12.507066
v -9.631321 -0.550879 12.478243
v -9.523232 -0.644151 12.443123
v -9.399913 -0.713458 12.403053
v -9.266104 -0.756137 12.359577
v -9.266104 0.715040 12.269148
v -9.399913 0.672361 12.225670
v -9.523232 0.603054 12.185601
v -9.631321 0.509781 12.150480
v -9.720029 0.396129 12.121658
v -9.785944 0.266464 12.100241
v -9.826534 0.125769 12.087052
v -9.840240 -0.020549 12.082600
v -9.826534 -0.166866 12.087052
v -9.785944 -0.307561 12.100241
v -9.720029 -0.437226 12.121658
v -9.631321 -0.550879 12.150480
v -9.523232 -0.644151 12.185601
v -9.399913 -0.713458 12.225670
v -9.266104 -0.756137 12.269148
v -9.212951 0.715040 12.195988
v -9.295650 0.672361 12.082164
v -9.371864 0.603054 11.977262
v -9.438667 0.509781 11.885316
v -9.493492 0.396129 11.809856
v -9.534229 0.266464 11.753786
v -9.559316 0.125769 11.719257
v -9.567786 -0.020549 11.707600
v -9.559316 -0.166866 11.719257
v -9.534229 -0.307561 11.753786
v -9.493492 -0.437226 11.809856
v -9.438667 -0.550879 11.885316
v -9.371864 -0.644151 11.977262
v -9.295650 -0.713458 12.082164
v -9.212951 -0.756137 12.195988
v -9.126947 0.715040 12.168044
v -9.126947 0.125769 11.578773
v -9.126947 -0.020549 11.564362
v -9.126947 -0.307561 11.621452
v -9.126947 -0.437226 11.690760
v -9.126947 -0.644151 11.897684
v -9.126947 -0.713458 12.027349
v -9.126947 -0.756137 12.168044
vt 0.375000 0.000000
vt 0.625000 0.000000
vt 0.625000 0.250000
vt 0.375000 0.250000
vt 0.625000 0.500000
vt 0.375000 0.500000
vt 0.625000 0.750000
vt 0.375000 0.750000
vt 0.625000 1.000000
vt 0.375000 1.000000
vt 0.125000 0.500000
vt 0.125000 0.750000
vt 0.875000 0.500000
vt 0.875000 0.750000
vt 0.700000 0.875000
vt 0.700000 0.937500
vt 0.600000 0.937500
vt 0.600000 0.875000
vt 0.700000 0.375000
vt 0.700000 0.437500
vt 0.600000 0.437500
vt 0.600000 0.375000
vt 0.700000 0.812500
vt 0.600000 0.812500
vt 0.700000 0.312500
vt 0.600000 0.312500
vt 0.700000 0.750000
vt 0.600000 0.750000
vt 0.700000 0.250000
vt 0.600000 0.250000
vt 0.700000 0.687500
vt 0.600000 0.687500
vt 0.700000 0.187500
vt 0.600000 0.187500
vt 0.700000 0.625000
vt 0.600000 0.625000
vt 0.700000 0.125000
vt 0.600000 0.125000
vt 0.700000 0.562500
vt 0.600000 0.562500
vt 0.700000 0.062500
vt 0.600000 0.062500
vt 0.700000 0.500000
vt 0.600000 0.500000
vt 0.650000 1.000000
vt 0.650000 0.000000
vt 0.550000 1.000000
vt 0.500000 0.937500
vt 0.550000 0.000000
vt 0.500000 0.062500
vt 0.500000 0.500000
vt 0.500000 0.437500
vt 0.500000 0.875000
vt 0.500000 0.375000
vt 0.500000 0.812500
vt 0.500000 0.312500
vt 0.500000 0.750000
vt 0.500000 0.250000
vt 0.500000 0.687500
vt 0.500000 0.187500
vt 0.500000 0.625000
vt 0.500000 0.125000
vt 0.500000 0.562500
vt 0.400000 0.750000
vt 0.400000 0.687500
vt 0.400000 0.250000
vt 0.400000 0.187500
vt 0.400000 0.625000
vt 0.400000 0.125000
vt 0.400000 0.562500
vt 0.400000 0.062500
vt 0.400000 0.500000
vt 0.449999 1.000000
vt 0.400000 0.937500
vt 0.450000 0.000000
vt 0.400000 0.437500
vt 0.400000 0.875000
vt 0.400000 0.375000
vt 0.400000 0.812500
vt 0.400000 0.312500
vt 0.300000 0.500000
vt 0.300000 0.437500
vt 0.300000 0.937500
vt 0.300000 0.875000
vt 0.300000 0.375000
vt 0.300000 0.812500
vt 0.300000 0.312500
vt 0.300000 0.750000
vt 0.300000 0.250000
vt 0.300000 0.687500
vt 0.300000 0.187500
vt 0.300000 0.625000
vt 0.300000 0.125000
vt 0.300000 0.562500
vt 0.300000 0.062500
vt 0.349999 1.000000
vt 0.350000 0.000000
vt 0.200000 0.250000
vt 0.200000 0.187500
vt 0.200000 0.687500
vt 0.200000 0.625000
vt 0.200000 0.125000
vt 0.200000 0.562500
vt 0.200000 0.062500
vt 0.200000 0.500000
vt 0.250000 1.000000
vt 0.200000 0.937500
vt 0.250000 0.000000
vt 0.200000 0.437500
vt 0.200000 0.875000
vt 0.200000 0.375000
vt 0.200000 0.812500
vt 0.200000 0.312500
vt 0.200000 0.750000
vt 0.100000 0.937500
vt 0.100000 0.875000
vt 0.100000 0.437500
vt 0.100000 0.375000
vt 0.100000 0.812500
vt 0.100000 0.312500
vt 0.100000 0.750000
vt 0.100000 0.250000
vt 0.100000 0.687500
vt 0.100000 0.187500
vt 0.100000 0.625000
vt 0.100000 0.125000
vt 0.100000 0.562500
vt 0.100000 0.062500
vt 0.100000 0.500000
vt 0.150000 1.000000
vt 0.150000 0.000000
vt 0.000000 0.687500
vt 0.000000 0.625000
vt 0.000000 0.187500
vt 0.000000 0.125000
vt 0.000000 0.562500
vt 0.000000 0.062500
vt 0.000000 0.500000
vt 0.050000 1.000000
vt 0.000000 0.937500
vt 0.050000 0.000000
vt 0.000000 0.437500
vt 0.000000 0.875000
vt 0.000000 0.375000
vt 0.000000 0.812500
vt 0.000000 0.312500
vt 0.000000 0.750000
vt 0.000000 0.250000
vt 1.000000 0.375000
vt 1.000000 0.437500
vt 0.900000 0.437500
vt 0.900000 0.375000
vt 1.000000 0.812500
vt 1.000000 0.875000
vt 0.900000 0.875000
vt 0.900000 0.812500
vt 1.000000 0.312500
vt 0.900000 0.312500
vt 1.000000 0.750000
vt 0.900000 0.750000
vt 1.000000 0.250000
vt 0.900000 0.250000
vt 1.000000 0.687500
vt 0.900000 0.687500
vt 1.000000 0.187500
vt 0.900000 0.187500
vt 1.000000 0.625000
vt 0.900000 0.625000
vt 1.000000 0.125000
vt 0.900000 0.125000
vt 1.000000 0.562500
vt 0.900000 0.562500
vt 1.000000 0.062500
vt 0.900000 0.062500
vt 1.000000 0.500000
vt 0.900000 0.500000
vt 1.000000 0.937500
vt 0.950001 1.000000
vt 0.900000 0.937500
vt 0.950000 0.000000
vt 0.800000 0.187500
vt 0.800000 0.125000
vt 0.800000 0.625000
vt 0.800000 0.562500
vt 0.800000 0.062500
vt 0.800000 0.500000
vt 0.850000 1.000000
vt 0.800000 0.937500
vt 0.850000 0.000000
vt 0.800000 0.437500
vt 0.800000 0.875000
vt 0.800000 0.375000
vt 0.800000 0.812500
vt 0.800000 0.312500
vt 0.800000 0.750000
vt 0.800000 0.250000
vt 0.800000 0.687500
vt 0.750000 1.000000
vt 0.750000 0.000000
vn -0.2838 0.0000 -0.9589
vn 0.9589 0.0000 -0.2838
vn 0.2838 0.0000 0.9589
vn -0.9589 0.0000 0.2838
vn 0.0000 -1.0000 0.0000
vn 0.0000 1.0000 0.0000
vn 0.0939 0.9527 -0.2890
vn 0.2969 -0.2772 -0.9138
vn 0.1514 0.8718 -0.4660
vn 0.2755 -0.4532 -0.8478
vn 0.2019 0.7571 -0.6213
vn 0.2436 -0.6153 -0.7497
vn 0.2436 0.6153 -0.7497
vn 0.2019 -0.7571 -0.6213
vn 0.2755 0.4532 -0.8478
vn 0.1514 -0.8718 -0.4660
vn 0.2969 0.2772 -0.9138
vn 0.0939 -0.9527 -0.2890
vn 0.3077 0.0933 -0.9469
vn 0.0318 0.9947 -0.0980
vn 0.0318 -0.9947 -0.0980
vn 0.3077 -0.0933 -0.9469
vn 0.0833 0.9947 -0.0605
vn 0.0833 -0.9947 -0.0605
vn 0.8055 -0.0933 -0.5852
vn 0.2458 0.9527 -0.1786
vn 0.7773 -0.2772 -0.5648
vn 0.3964 0.8718 -0.2880
vn 0.7212 -0.4532 -0.5240
vn 0.5285 0.7571 -0.3840
vn 0.6378 -0.6153 -0.4634
vn 0.6378 0.6153 -0.4634
vn 0.5285 -0.7571 -0.3840
vn 0.7212 0.4532 -0.5240
vn 0.3964 -0.8718 -0.2880
vn 0.7773 0.2772 -0.5648
vn 0.2458 -0.9527 -0.1786
vn 0.8055 0.0933 -0.5852
vn 0.7883 0.6153 0.0000
vn 0.6533 -0.7571 0.0000
vn 0.8914 0.4532 0.0000
vn 0.4899 -0.8718 0.0000
vn 0.9608 0.2772 0.0000
vn 0.3039 -0.9527 0.0000
vn 0.9956 0.0933 0.0000
vn 0.1030 0.9947 0.0000
vn 0.1030 -0.9947 0.0000
vn 0.9956 -0.0933 0.0000
vn 0.3039 0.9527 0.0000
vn 0.9608 -0.2772 0.0000
vn 0.4899 0.8718 0.0000
vn 0.8914 -0.4532 0.0000
vn 0.6533 0.7571 0.0000
vn 0.7883 -0.6153 0.0000
vn 0.8055 -0.0933 0.5852
vn 0.2458 0.9527 0.1786
vn 0.7773 -0.2772 0.5648
vn 0.3964 0.8718 0.2880
vn 0.7212 -0.4532 0.5240
vn 0.5285 0.7571 0.3840
vn 0.6378 -0.6153 0.4634
vn 0.6378 0.6153 0.4634
vn 0.5285 -0.7571 0.3840
vn 0.7212 0.4532 0.5240
vn 0.3964 -0.8718 0.2880
vn 0.7773 0.2772 0.5648
vn 0.2458 -0.9527 0.1786
vn 0.8055 0.0933 0.5852
vn 0.0833 0.9947 0.0605
vn 0.0833 -0.9947 0.0605
vn 0.2019 -0.7571 0.6213
vn 0.2755 0.4532 0.8478
vn 0.1514 -0.8718 0.4660
vn 0.2969 0.2772 0.9138
vn 0.0939 -0.9527 0.2890
vn 0.3077 0.0933 0.9469
vn 0.0318 0.9947 0.0980
vn 0.0318 -0.9947 0.0980
vn 0.3077 -0.0933 0.9469
vn 0.0939 0.9527 0.2890
vn 0.2969 -0.2772 0.9138
vn 0.1514 0.8718 0.4660
vn 0.2755 -0.4532 0.8478
vn 0.2019 0.7571 0.6213
vn 0.2436 -0.6153 0.7497
vn 0.2436 0.6153 0.7497
vn -0.0939 0.9527 0.2890
vn -0.2969 -0.2772 0.9138
vn -0.1514 0.8718 0.4660
vn -0.2755 -0.4532 0.8478
vn -0.2019 0.7571 0.6213
vn -0.2436 -0.6153 0.7497
vn -0.2436 0.6153 0.7497
vn -0.2019 -0.7571 0.6213
vn -0.2755 0.4532 0.8478
vn -0.1514 -0.8718 0.4660
vn -0.2969 0.2772 0.9138
vn -0.0939 -0.9527 0.2890
vn -0.3077 0.0933 0.9469
vn -0.0318 0.9947 0.0980
vn -0.0318 -0.9947 0.0980
vn -0.3077 -0.0933 0.9469
vn -0.7212 0.4532 0.5240
vn -0.3964 -0.8718 0.2880
vn -0.7773 0.2772 0.5648
vn -0.2458 -0.9527 0.1786
vn -0.8055 0.0933 0.5852
vn -0.0833 0.9947 0.0605
vn -0.0833 -0.9947 0.0605
vn -0.8055 -0.0933 0.5852
vn -0.2458 0.9527 0.1786
vn -0.7773 -0.2772 0.5648
vn -0.3964 0.8718 0.2880
vn -0.7212 -0.4532 0.5240
vn -0.5285 0.7571 0.3840
vn -0.6378 -0.6153 0.4634
vn -0.6378 0.6153 0.4634
vn -0.5285 -0.7571 0.3840
vn -0.9608 -0.2772 0.0000
vn -0.4899 0.8718 0.0000
vn -0.8914 -0.4532 0.0000
vn -0.6533 0.7571 0.0000
vn -0.7883 -0.6153 0.0000
vn -0.7883 0.6153 0.0000
vn -0.6533 -0.7571 0.0000
vn -0.8914 0.4532 0.0000
vn -0.4899 -0.8718 0.0000
vn -0.9608 0.2772 0.0000
vn -0.3039 -0.9527 0.0000
vn -0.9956 0.0933 0.0000
vn -0.1030 0.9947 0.0000
vn -0.1030 -0.9947 0.0000
vn -0.9956 -0.0933 0.0000
vn -0.3039 0.9527 0.0000
vn -0.3964 -0.8718 -0.2880
vn -0.7773 0.2772 -0.5648
vn -0.2458 -0.9527 -0.1786
vn -0.8055 0.0933 -0.5852
vn -0.0833 0.9947 -0.0605
vn -0.0833 -0.9947 -0.0605
vn -0.8055 -0.0933 -0.5852
vn -0.2458 0.9527 -0.1786
vn -0.7773 -0.2772 -0.5648
vn -0.3964 0.8718 -0.2880
vn -0.7212 -0.4532 -0.5240
vn -0.5285 0.7571 -0.3840
vn -0.6378 -0.6153 -0.4634
vn -0.6378 0.6153 -0.4634
vn -0.5285 -0.7571 -0.3840
vn -0.7212 0.4532 -0.5240
vn -0.2755 -0.4532 -0.8478
vn -0.2019 0.7571 -0.6213
vn -0.2436 -0.6153 -0.7497
vn -0.2436 0.6153 -0.7497
vn -0.2019 -0.7571 -0.6213
vn -0.2755 0.4532 -0.8478
vn -0.1514 -0.8718 -0.4660
vn -0.2969 0.2772 -0.9138
vn -0.0939 -0.9527 -0.2890
vn -0.3077 0.0933 -0.9469
vn -0.0318 0.9947 -0.0980
vn -0.0318 -0.9947 -0.0980
vn -0.3077 -0.0933 -0.9469
vn -0.0939 0.9527 -0.2890
vn -0.2969 -0.2772 -0.9138
vn -0.1514 0.8718 -0.4660
usemtl Red_Light
s off
f 1/1/1 2/2/1 4/3/1 3/4/1
f 3/4/2 4/3/2 8/5/2 7/6/2
f 7/6/3 8/5/3 6/7/3 5/8/3
f 5/8/4 6/7/4 2/9/4 1/10/4
f 3/11/5 7/6/5 5/8/5 1/12/5
f 8/5/6 4/13/6 2/14/6 6/7/6
f 9/15/7 153/16/7 16/17/7 17/18/7
f 156/19/8 14/20/8 24/21/8 25/22/8
f 10/23/9 9/15/9 17/18/9 18/24/9
f 157/25/10 156/19/10 25/22/10 26/26/10
f 11/27/11 10/23/11 18/24/11 19/28/11
f 15/29/12 157/25/12 26/26/12 27/30/12
f 12/31/13 11/27/13 19/28/13 20/32/13
f 158/33/14 15/29/14 27/30/14 28/34/14
f 13/35/15 12/31/15 20/32/15 21/36/15
f 159/37/16 158/33/16 28/34/16 29/38/16
f 154/39/17 13/35/17 21/36/17 22/40/17
f 160/41/18 159/37/18 29/38/18 30/42/18
f 155/43/19 154/39/19 22/40/19 23/44/19
f 153/16/20 92/45/20 16/17/20
f 91/46/21 160/41/21 30/42/21
f 14/20/22 155/43/22 23/44/22 24/21/22
f 16/17/23 92/47/23 31/48/23
f 91/49/24 30/42/24 45/50/24
f 24/21/25 23/44/25 38/51/25 39/52/25
f 17/18/26 16/17/26 31/48/26 32/53/26
f 25/22/27 24/21/27 39/52/27 40/54/27
f 18/24/28 17/18/28 32/53/28 33/55/28
f 26/26/29 25/22/29 40/54/29 41/56/29
f 19/28/30 18/24/30 33/55/30 34/57/30
f 27/30/31 26/26/31 41/56/31 42/58/31
f 20/32/32 19/28/32 34/57/32 35/59/32
f 28/34/33 27/30/33 42/58/33 43/60/33
f 21/36/34 20/32/34 35/59/34 36/61/34
f 29/38/35 28/34/35 43/60/35 44/62/35
f 22/40/36 21/36/36 36/61/36 37/63/36
f 30/42/37 29/38/37 44/62/37 45/50/37
f 23/44/38 22/40/38 37/63/38 38/51/38
f 35/59/39 34/57/39 49/64/39 50/65/39
f 43/60/40 42/58/40 57/66/40 58/67/40
f 36/61/41 35/59/41 50/65/41 51/68/41
f 44/62/42 43/60/42 58/67/42 59/69/42
f 37/63/43 36/61/43 51/68/43 52/70/43
f 45/50/44 44/62/44 59/69/44 60/71/44
f 38/51/45 37/63/45 52/70/45 53/72/45
f 31/48/46 92/73/46 46/74/46
f 91/75/47 45/50/47 60/71/47
f 39/52/48 38/51/48 53/72/48 54/76/48
f 32/53/49 31/48/49 46/74/49 47/77/49
f 40/54/50 39/52/50 54/76/50 55/78/50
f 33/55/51 32/53/51 47/77/51 48/79/51
f 41/56/52 40/54/52 55/78/52 56/80/52
f 34/57/53 33/55/53 48/79/53 49/64/53
f 42/58/54 41/56/54 56/80/54 57/66/54
f 54/76/55 53/72/55 68/81/55 69/82/55
f 47/77/56 46/74/56 61/83/56 62/84/56
f 55/78/57 54/76/57 69/82/57 70/85/57
f 48/79/58 47/77/58 62/84/58 63/86/58
f 56/80/59 55/78/59 70/85/59 71/87/59
f 49/64/60 48/79/60 63/86/60 64/88/60
f 57/66/61 56/80/61 71/87/61 72/89/61
f 50/65/62 49/64/62 64/88/62 65/90/62
f 58/67/63 57/66/63 72/89/63 73/91/63
f 51/68/64 50/65/64 65/90/64 66/92/64
f 59/69/65 58/67/65 73/91/65 74/93/65
f 52/70/66 51/68/66 66/92/66 67/94/66
f 60/71/67 59/69/67 74/93/67 75/95/67
f 53/72/68 52/70/68 67/94/68 68/81/68
f 46/74/69 92/96/69 61/83/69
f 91/97/70 60/71/70 75/95/70
f 73/91/71 72/89/71 87/98/71 88/99/71
f 66/92/72 65/90/72 80/100/72 81/101/72
f 74/93/73 73/91/73 88/99/73 89/102/73
f 67/94/74 66/92/74 81/101/74 82/103/74
f 75/95/75 74/93/75 89/102/75 90/104/75
f 68/81/76 67/94/76 82/103/76 83/105/76
f 61/83/77 92/106/77 76/107/77
f 91/108/78 75/95/78 90/104/78
f 69/82/79 68/81/79 83/105/79 84/109/79
f 62/84/80 61/83/80 76/107/80 77/110/80
f 70/85/81 69/82/81 84/109/81 85/111/81
f 63/86/82 62/84/82 77/110/82 78/112/82
f 71/87/83 70/85/83 85/111/83 86/113/83
f 64/88/84 63/86/84 78/112/84 79/114/84
f 72/89/85 71/87/85 86/113/85 87/98/85
f 65/90/86 64/88/86 79/114/86 80/100/86
f 77/110/87 76/107/87 93/115/87 94/116/87
f 85/111/88 84/109/88 101/117/88 102/118/88
f 78/112/89 77/110/89 94/116/89 95/119/89
f 86/113/90 85/111/90 102/118/90 103/120/90
f 79/114/91 78/112/91 95/119/91 96/121/91
f 87/98/92 86/113/92 103/120/92 104/122/92
f 80/100/93 79/114/93 96/121/93 97/123/93
f 88/99/94 87/98/94 104/122/94 105/124/94
f 81/101/95 80/100/95 97/123/95 98/125/95
f 89/102/96 88/99/96 105/124/96 106/126/96
f 82/103/97 81/101/97 98/125/97 99/127/97
f 90/104/98 89/102/98 106/126/98 107/128/98
f 83/105/99 82/103/99 99/127/99 100/129/99
f 76/107/100 92/130/100 93/115/100
f 91/131/101 90/104/101 107/128/101
f 84/109/102 83/105/102 100/129/102 101/117/102
f 98/125/103 97/123/103 112/132/103 113/133/103
f 106/126/104 105/124/104 120/134/104 121/135/104
f 99/127/105 98/125/105 113/133/105 114/136/105
f 107/128/106 106/126/106 121/135/106 122/137/106
f 100/129/107 99/127/107 114/136/107 115/138/107
f 93/115/108 92/139/108 108/140/108
f 91/141/109 107/128/109 122/137/109
f 101/117/110 100/129/110 115/138/110 116/142/110
f 94/116/111 93/115/111 108/140/111 109/143/111
f 102/118/112 101/117/112 116/142/112 117/144/112
f 95/119/113 94/116/113 109/143/113 110/145/113
f 103/120/114 102/118/114 117/144/114 118/146/114
f 96/121/115 95/119/115 110/145/115 111/147/115
f 104/122/116 103/120/116 118/146/116 119/148/116
f 97/123/117 96/121/117 111/147/117 112/132/117
f 105/124/118 104/122/118 119/148/118 120/134/118
f 117/149/119 116/150/119 131/151/119 132/152/119
f 110/153/120 109/154/120 124/155/120 125/156/120
f 118/157/121 117/149/121 132/152/121 133/158/121
f 111/159/122 110/153/122 125/156/122 126/160/122
f 119/161/123 118/157/123 133/158/123 134/162/123
f 112/163/124 111/159/124 126/160/124 127/164/124
f 120/165/125 119/161/125 134/162/125 135/166/125
f 113/167/126 112/163/126 127/164/126 128/168/126
f 121/169/127 120/165/127 135/166/127 136/170/127
f 114/171/128 113/167/128 128/168/128 129/172/128
f 122/173/129 121/169/129 136/170/129 137/174/129
f 115/175/130 114/171/130 129/172/130 130/176/130
f 108/177/131 92/178/131 123/179/131
f 91/180/132 122/173/132 137/174/132
f 116/150/133 115/175/133 130/176/133 131/151/133
f 109/154/134 108/177/134 123/179/134 124/155/134
f 136/170/135 135/166/135 150/181/135 151/182/135
f 129/172/136 128/168/136 143/183/136 144/184/136
f 137/174/137 136/170/137 151/182/137 152/185/137
f 130/176/138 129/172/138 144/184/138 145/186/138
f 123/179/139 92/187/139 138/188/139
f 91/189/140 137/174/140 152/185/140
f 131/151/141 130/176/141 145/186/141 146/190/141
f 124/155/142 123/179/142 138/188/142 139/191/142
f 132/152/143 131/151/143 146/190/143 147/192/143
f 125/156/144 124/155/144 139/191/144 140/193/144
f 133/158/145 132/152/145 147/192/145 148/194/145
f 126/160/146 125/156/146 140/193/146 141/195/146
f 134/162/147 133/158/147 148/194/147 149/196/147
f 127/164/148 126/160/148 141/195/148 142/197/148
f 135/166/149 134/162/149 149/196/149 150/181/149
f 128/168/150 127/164/150 142/197/150 143/183/150
f 148/194/151 147/192/151 156/19/151 157/25/151
f 141/195/152 140/193/152 10/23/152 11/27/152
f 149/196/153 148/194/153 157/25/153 15/29/153
f 142/197/154 141/195/154 11/27/154 12/31/154
f 150/181/155 149/196/155 15/29/155 158/33/155
f 143/183/156 142/197/156 12/31/156 13/35/156
f 151/182/157 150/181/157 158/33/157 159/37/157
f 144/184/158 143/183/158 13/35/158 154/39/158
f 152/185/159 151/182/159 159/37/159 160/41/159
f 145/186/160 144/184/160 154/39/160 155/43/160
f 138/188/161 92/198/161 153/16/161
f 91/199/162 152/185/162 160/41/162
f 146/190/163 145/186/163 155/43/163 14/20/163
f 139/191/164 138/188/164 153/16/164 9/15/164
f 147/192/165 146/190/165 14/20/165 156/19/165
f 140/193/166 139/191/166 9/15/166 10/23/166
